<svg version="1.1" xmlns="http://www.w3.org/2000/svg" xmlns:xlink="http://www.w3.org/1999/xlink" width="2685" height="2175"><desc>title%20QR%20Scanner%20full%20flow%0A%0Aactor%20Staff%20Persona%0A%0Aparticipantgroup%20%23c4b4f1%20QR%20Scanner%20React%20Application%0Aparticipant%20UI%20interface%0Aparticipant%20MobX%20Store%0Aparticipant%20QR%20Code%20scanner%20library%0Aparticipantgroup%20API%20layer%0Aparticipant%20Indentity%20service%0Aparticipant%20BFF%20service%0Aend%0Aparticipant%20RXB%20SDK%20instance%0Aparticipantgroup%20%23lightblue%20RXB%20SDK%0Aparticipant%20RXB%20event%20bus%0Aparticipant%20JSON%20template%0Aparticipant%20Script%20Permission%0Aparticipant%20Script%20Check%20QR%20Code%0Aparticipant%20Script%20Use%20Ticket%0Adatabase%20Elastic%20Search%0Aend%0Aend%0A%0A%0A%0AStaff%20Persona-%3EUI%20interface%3A%20open%20UI%20in%20the%20first%20time%0AUI%20interface-%3EStaff%20Persona%3A%20ask%20email%0AStaff%20Persona-%3EUI%20interface%3A%20input%20email%0AUI%20interface-%3EMobX%20Store%3A%20store%20email%0AMobX%20Store-%3EIndentity%20service%3A%20Request%20OTP%0AIndentity%20service-%3EMobX%20Store%3A%20200%20OK%0AUI%20interface-%3EStaff%20Persona%3A%20ask%20OTP%0AStaff%20Persona-%3EUI%20interface%3A%20input%20OTP%0AUI%20interface-%3EMobX%20Store%3A%20OTP%20Code%0AMobX%20Store-%3ERXB%20SDK%20instance%3A%20authorization%20in%20SDK%0ARXB%20SDK%20instance-%3EMobX%20Store%3A%20return%20SDK%20instance%0AMobX%20Store-%3ERXB%20event%20bus%3A%20Send%20event%20DAVINCI_QR_CODE_VALIDATOR_PERMISSIONS%0ARXB%20event%20bus-%3EScript%20Permission%3A%20ask%20permissions%20%0AScript%20Permission-%3EJSON%20template%3A%20permissions%20array%20%0AJSON%20template-%3ERXB%20event%20bus%3A%20permissions%20array%20in%20JSON%20format%0ARXB%20event%20bus-%3EMobX%20Store%3A%20notify%20about%20available%20permissions%20by%20subscription%20event%0AMobX%20Store-%3EBFF%20service%3A%20enrich%20data%20of%20availalbe%20events%0ABFF%20service-%3EMobX%20Store%3A%20return%20enriched%20data%0AUI%20interface-%3EStaff%20Persona%3A%20show%20event%20list%20and%20ask%20event%20to%20choose%20one%0AStaff%20Persona-%3EUI%20interface%3A%20select%20event%0AUI%20interface-%3EMobX%20Store%3A%20store%20selected%20event%0AUI%20interface-%3EStaff%20Persona%3A%20QR%20scanner%20interface%0AStaff%20Persona-%3EUI%20interface%3A%20scan%20QR%20code%0AUI%20interface-%3EMobX%20Store%3A%20store%20scan%20result%0AMobX%20Store-%3ERXB%20event%20bus%3A%20Send%20event%20DAVINCI_QR_CODE_VALIDATOR_CHECK%0ARXB%20event%20bus-%3EScript%20Check%20QR%20Code%3A%20qr%20code%20data%0AScript%20Check%20QR%20Code-%3EElastic%20Search%3A%20ask%20previous%20reques%20of%20DAVINCI_QR_CODE_VALIDATOR_USE_TICKET%20event%0AElastic%20Search-%3EScript%20Check%20QR%20Code%3A%20result%20%0AScript%20Check%20QR%20Code-%3EJSON%20template%3A%20result%20%0AJSON%20template-%3ERXB%20event%20bus%3A%20result%20in%20JSON%20format%20%0ARXB%20event%20bus-%3EMobX%20Store%3A%20notify%20about%20vildation%20result%0A%0AUI%20interface-%3EStaff%20Persona%3A%20show%20QR%20code%20scan%20result%0A%0Aalt%20case%20result%20is%20false%0AUI%20interface-%3EStaff%20Persona%3Ashow%20error%20window%20with%20an%20error%20message%0Aelse%20case%20result%20is%20success%0AUI%20interface-%3EStaff%20Persona%3Ashow%20success%20scan%20window%0AStaff%20Persona-%3EUI%20interface%3A%20click%20to%20the%20button%20%22Use%20ticket%22%0AUI%20interface-%3EMobX%20Store%3A%20user%20ticket%20even%0AMobX%20Store-%3ERXB%20event%20bus%3A%20Send%20event%20DAVINCI_QR_CODE_VALIDATOR_USE_TICKET%0ARXB%20event%20bus-%3EElastic%20Search%3A%20save%20data%20of%20this%20request%20(DAVINCI_QR_CODE_VALIDATOR_USE_TICKET%20event)%0ARXB%20event%20bus-%3EScript%20Use%20Ticket%3A%20ticket%20data%0AScript%20Use%20Ticket-%3EJSON%20template%3A%20result%20%0AJSON%20template-%3ERXB%20event%20bus%3A%20result%20in%20JSON%20format%20%0ARXB%20event%20bus-%3EMobX%20Store%3A%20notify%20about%20vildation%20result%0AUI%20interface-%3EStaff%20Persona%3A%20activate%20QR%20scanner%20for%20scan%20next%20ticket%0Aend%0A%0A%0A</desc><defs/><g><g/><g/><g/><g/><g/><g/><g/><g/><g/><g/><g/><g/><g/><g/><g/><g/><g/><g/><g/><g/><g/><g/><g/><g/><g/><g/><g/><g/><g/><g/><g/><g/><g/><g/><g/><g/><g/><g/><g/><g/><g/><g/><g/><g/><g/><g/><g/><g/><g/><g/><g/><g/><g/><g/><g/><g/><g/><g/><g/><g/><g/><g/><g/><g/><g/><g/><g/><g/><g/><g/><g/><g/><g/><g/><g/><g/><g/><g/><g/><g/><g/><g/><g/><g/><g/><g/><g/><g/><g/><g/><g/><g/><g/><g/><g/><g/><g/><g/><g/><g/><g/><g/><g/><g/><g/><g/><g/><g/><g/><g/><g/><g/><g/><g/><g/><g/><g/><g/><g/><g/><g/><g/><g/><g/><g/><g/><g/><g/><g/><g/><g/><g/><g/><g/><g/><g/><g/><g/><g/><g/><g/><g/><g/><g/><g/><g/><g/><g/><g/><g/><g/><g/><g/><g/><g/><g/><g/><g/><g/><g/><g/><g/><g/><g/><g/><g/><g/><g/><g/><g/><g/><g/><g/><g/><g/><g/><g/><g/><g/><g/><g/><g/><g/><g/><g/><g/><g/><g/><g/><g/><g/><g/><g/><g/><g/><g/><g/><g/><g/><g/><g/><g/><g/><g/><g/><g/><g/><g/><g/><g/><g/><g/><g/><g/><g/><g/><g/><g/><g/><g/><g/><g/><g/><g/><g/><g/><g/><g/><g/><g/><g/><g/><g/><g/><g/><g/><g/><g/><g/><g/><g/><g/><g/><g/><g/><g/><g/><g/><g/><g/><g/><g/><g/><g/><g/><g/><g/><g/><g/><g/><g/><g/><g/><g/><g/><g/><g/><g/><g/><g/><g/><g/><g/><g/><g/><g/><g/><g/><g/><g/><g/><g/><g/><g/><g/><g/><g/><g/><g/><g/><g/><g/><g/><g/><g/><g/><g/><g/><g/><g/><g/><g/><g/><g/><g/><g/><g/><g/><g/><g/><g/><g/><g/><g/><g/><g/><g/><g/><g/><g/><g/><g/><g/><g/><g/><g/><g/><g/><g/><g/><g/><g/><g/><g/><g/><g/><g/><g/><g/><g/><g/><g/><g/><g/><g><rect fill="white" stroke="none" x="0" y="0" width="2685" height="2175"/></g><g><g><path fill="#c4b4f1" stroke="black" paint-order="fill stroke markers" d=" M 395.671089733789 46.380554152909085 L 2664.8571985014496 46.380554152909085 L 2664.8571985014496 2168.0218898389085 L 395.671089733789 2168.0218898389085 L 395.671089733789 46.380554152909085 Z" stroke-miterlimit="10" stroke-width="1.2565541" stroke-dasharray=""/></g><g><text fill="black" stroke="none" font-family="sans-serif" font-size="11pt" font-style="normal" font-weight="normal" text-decoration="normal" x="1430.8764488051193" y="67.49066303290908" text-anchor="start" dominant-baseline="alphabetic" xml:space="preserve">QR Scanner React Application</text></g><g><path fill="none" stroke="black" paint-order="fill stroke markers" d=" M 907.6363504315156 111.52031869690909 L 1187.3111887520938 111.52031869690909 L 1187.3111887520938 2168.0218898389085 L 907.6363504315156 2168.0218898389085 L 907.6363504315156 111.52031869690909 Z" stroke-miterlimit="10" stroke-width="1.2565541" stroke-dasharray=""/></g><g><text fill="black" stroke="none" font-family="sans-serif" font-size="11pt" font-style="normal" font-weight="normal" text-decoration="normal" x="1017.7426218256915" y="132.63042757690909" text-anchor="start" dominant-baseline="alphabetic" xml:space="preserve">API layer</text></g><g><path fill="lightblue" stroke="black" paint-order="fill stroke markers" d=" M 1373.192879060625 81.06144731290908 L 2657.3178739014493 81.06144731290908 L 2657.3178739014493 2168.0218898389085 L 1373.192879060625 2168.0218898389085 L 1373.192879060625 81.06144731290908 Z" stroke-miterlimit="10" stroke-width="1.2565541" stroke-dasharray=""/></g><g><text fill="black" stroke="none" font-family="sans-serif" font-size="11pt" font-style="normal" font-weight="normal" text-decoration="normal" x="1983.0839058389474" y="102.17155619290908" text-anchor="start" dominant-baseline="alphabetic" xml:space="preserve">RXB SDK</text></g></g><g><path fill="none" stroke="black" paint-order="fill stroke markers" d=" M 67.8539214 188.19524987890912 L 67.8539214 2168.0218898389085" stroke-miterlimit="10" stroke-width="1.2565541" stroke-dasharray="11.598960923076923,5.0262164"/><path fill="none" stroke="black" paint-order="fill stroke markers" d=" M 457.0415128759453 188.19524987890912 L 457.0415128759453 2168.0218898389085" stroke-miterlimit="10" stroke-width="1.2565541" stroke-dasharray="11.598960923076923,5.0262164"/><path fill="none" stroke="black" paint-order="fill stroke markers" d=" M 628.420387752703 188.19524987890912 L 628.420387752703 2168.0218898389085" stroke-miterlimit="10" stroke-width="1.2565541" stroke-dasharray="11.598960923076923,5.0262164"/><path fill="none" stroke="black" paint-order="fill stroke markers" d=" M 795.5557881751992 188.19524987890912 L 795.5557881751992 2168.0218898389085" stroke-miterlimit="10" stroke-width="1.2565541" stroke-dasharray="11.598960923076923,5.0262164"/><path fill="none" stroke="black" paint-order="fill stroke markers" d=" M 984.4860063617577 188.19524987890912 L 984.4860063617577 2168.0218898389085" stroke-miterlimit="10" stroke-width="1.2565541" stroke-dasharray="11.598960923076923,5.0262164"/><path fill="none" stroke="black" paint-order="fill stroke markers" d=" M 1124.3234255220468 188.19524987890912 L 1124.3234255220468 2168.0218898389085" stroke-miterlimit="10" stroke-width="1.2565541" stroke-dasharray="11.598960923076923,5.0262164"/><path fill="none" stroke="black" paint-order="fill stroke markers" d=" M 1280.2520339063594 188.19524987890912 L 1280.2520339063594 2168.0218898389085" stroke-miterlimit="10" stroke-width="1.2565541" stroke-dasharray="11.598960923076923,5.0262164"/><path fill="none" stroke="black" paint-order="fill stroke markers" d=" M 1445.9741374688947 188.19524987890912 L 1445.9741374688947 2168.0218898389085" stroke-miterlimit="10" stroke-width="1.2565541" stroke-dasharray="11.598960923076923,5.0262164"/><path fill="none" stroke="black" paint-order="fill stroke markers" d=" M 1706.0848696454573 188.19524987890912 L 1706.0848696454573 2168.0218898389085" stroke-miterlimit="10" stroke-width="1.2565541" stroke-dasharray="11.598960923076923,5.0262164"/><path fill="none" stroke="black" paint-order="fill stroke markers" d=" M 1866.0207055817855 188.19524987890912 L 1866.0207055817855 2168.0218898389085" stroke-miterlimit="10" stroke-width="1.2565541" stroke-dasharray="11.598960923076923,5.0262164"/><path fill="none" stroke="black" paint-order="fill stroke markers" d=" M 2044.9533853621917 188.19524987890912 L 2044.9533853621917 2168.0218898389085" stroke-miterlimit="10" stroke-width="1.2565541" stroke-dasharray="11.598960923076923,5.0262164"/><path fill="none" stroke="black" paint-order="fill stroke markers" d=" M 2323.946739731723 188.19524987890912 L 2323.946739731723 2168.0218898389085" stroke-miterlimit="10" stroke-width="1.2565541" stroke-dasharray="11.598960923076923,5.0262164"/><path fill="none" stroke="black" paint-order="fill stroke markers" d=" M 2602.940094101254 188.19524987890912 L 2602.940094101254 2168.0218898389085" stroke-miterlimit="10" stroke-width="1.2565541" stroke-dasharray="11.598960923076923,5.0262164"/></g><g><g><path fill="white" stroke="black" paint-order="fill stroke markers" d=" M 76.44875144400001 124.41256376290912 A 8.594830044 8.594830044 0 1 1 76.44874714658533 124.40396893429758 M 67.8539214 133.0073938069091 L 67.8539214 151.4033458309091 M 56.997293976 139.64199945490913 L 78.710548824 139.64199945490913 M 67.8539214 151.4033458309091 L 56.997293976 168.5930059189091 M 67.8539214 151.4033458309091 L 78.710548824 168.5930059189091" stroke-miterlimit="10" stroke-width="2.5633703640000003" stroke-dasharray=""/></g><g><g/><text fill="black" stroke="none" font-family="sans-serif" font-size="11pt" font-style="normal" font-weight="normal" text-decoration="normal" x="23.584634290625004" y="183.67165511890911" text-anchor="start" dominant-baseline="alphabetic" xml:space="preserve">Staff Persona</text></g><path fill="none" stroke="none"/><g><path fill="white" stroke="black" paint-order="fill stroke markers" d=" M 403.210414333789 147.48289703890913 L 510.8726114181015 147.48289703890913 L 510.8726114181015 188.19524987890912 L 403.210414333789 188.19524987890912 L 403.210414333789 147.48289703890913 Z" stroke-miterlimit="10" stroke-width="2.4125838720000004" stroke-dasharray=""/></g><g><g/><text fill="black" stroke="none" font-family="sans-serif" font-size="11pt" font-style="normal" font-weight="normal" text-decoration="normal" x="419.570748715789" y="173.11660067890912" text-anchor="start" dominant-baseline="alphabetic" xml:space="preserve">UI interface</text></g><path fill="none" stroke="none"/><g><path fill="white" stroke="black" paint-order="fill stroke markers" d=" M 573.3655495865233 147.48289703890913 L 683.4752259188828 147.48289703890913 L 683.4752259188828 188.19524987890912 L 573.3655495865233 188.19524987890912 L 573.3655495865233 147.48289703890913 Z" stroke-miterlimit="10" stroke-width="2.4125838720000004" stroke-dasharray=""/></g><g><g/><text fill="black" stroke="none" font-family="sans-serif" font-size="11pt" font-style="normal" font-weight="normal" text-decoration="normal" x="589.7258839685234" y="173.11660067890912" text-anchor="start" dominant-baseline="alphabetic" xml:space="preserve">MobX Store</text></g><path fill="none" stroke="none"/><g><path fill="white" stroke="black" paint-order="fill stroke markers" d=" M 698.5538751188827 147.48289703890913 L 892.5577012315156 147.48289703890913 L 892.5577012315156 188.19524987890912 L 698.5538751188827 188.19524987890912 L 698.5538751188827 147.48289703890913 Z" stroke-miterlimit="10" stroke-width="2.4125838720000004" stroke-dasharray=""/></g><g><g/><text fill="black" stroke="none" font-family="sans-serif" font-size="11pt" font-style="normal" font-weight="normal" text-decoration="normal" x="714.9142095008827" y="173.11660067890912" text-anchor="start" dominant-baseline="alphabetic" xml:space="preserve">QR Code scanner library</text></g><path fill="none" stroke="none"/><g><path fill="white" stroke="black" paint-order="fill stroke markers" d=" M 915.1756750315155 147.48289703890913 L 1053.796337692 147.48289703890913 L 1053.796337692 188.19524987890912 L 915.1756750315155 188.19524987890912 L 915.1756750315155 147.48289703890913 Z" stroke-miterlimit="10" stroke-width="2.4125838720000004" stroke-dasharray=""/></g><g><g/><text fill="black" stroke="none" font-family="sans-serif" font-size="11pt" font-style="normal" font-weight="normal" text-decoration="normal" x="931.5360094135156" y="173.11660067890912" text-anchor="start" dominant-baseline="alphabetic" xml:space="preserve">Indentity service</text></g><path fill="none" stroke="none"/><g><path fill="white" stroke="black" paint-order="fill stroke markers" d=" M 1068.874986892 147.48289703890913 L 1179.7718641520937 147.48289703890913 L 1179.7718641520937 188.19524987890912 L 1068.874986892 188.19524987890912 L 1068.874986892 147.48289703890913 Z" stroke-miterlimit="10" stroke-width="2.4125838720000004" stroke-dasharray=""/></g><g><g/><text fill="black" stroke="none" font-family="sans-serif" font-size="11pt" font-style="normal" font-weight="normal" text-decoration="normal" x="1085.235321274" y="173.11660067890912" text-anchor="start" dominant-baseline="alphabetic" xml:space="preserve">BFF service</text></g><path fill="none" stroke="none"/><g><path fill="white" stroke="black" paint-order="fill stroke markers" d=" M 1202.3898379520938 147.48289703890913 L 1358.114229860625 147.48289703890913 L 1358.114229860625 188.19524987890912 L 1202.3898379520938 188.19524987890912 L 1202.3898379520938 147.48289703890913 Z" stroke-miterlimit="10" stroke-width="2.4125838720000004" stroke-dasharray=""/></g><g><g/><text fill="black" stroke="none" font-family="sans-serif" font-size="11pt" font-style="normal" font-weight="normal" text-decoration="normal" x="1218.7501723340938" y="173.11660067890912" text-anchor="start" dominant-baseline="alphabetic" xml:space="preserve">RXB SDK instance</text></g><path fill="none" stroke="none"/><g><path fill="white" stroke="black" paint-order="fill stroke markers" d=" M 1380.7322036606251 147.48289703890913 L 1511.2160712771642 147.48289703890913 L 1511.2160712771642 188.19524987890912 L 1380.7322036606251 188.19524987890912 L 1380.7322036606251 147.48289703890913 Z" stroke-miterlimit="10" stroke-width="2.4125838720000004" stroke-dasharray=""/></g><g><g/><text fill="black" stroke="none" font-family="sans-serif" font-size="11pt" font-style="normal" font-weight="normal" text-decoration="normal" x="1397.0925380426252" y="173.11660067890912" text-anchor="start" dominant-baseline="alphabetic" xml:space="preserve">RXB event bus</text></g><path fill="none" stroke="none"/><g><path fill="white" stroke="black" paint-order="fill stroke markers" d=" M 1640.0378439792776 147.48289703890913 L 1772.131895311637 147.48289703890913 L 1772.131895311637 188.19524987890912 L 1640.0378439792776 188.19524987890912 L 1640.0378439792776 147.48289703890913 Z" stroke-miterlimit="10" stroke-width="2.4125838720000004" stroke-dasharray=""/></g><g><g/><text fill="black" stroke="none" font-family="sans-serif" font-size="11pt" font-style="normal" font-weight="normal" text-decoration="normal" x="1656.3981783612776" y="173.11660067890912" text-anchor="start" dominant-baseline="alphabetic" xml:space="preserve">JSON template</text></g><path fill="none" stroke="none"/><g><path fill="white" stroke="black" paint-order="fill stroke markers" d=" M 1792.649133101641 147.48289703890913 L 1939.39227806193 147.48289703890913 L 1939.39227806193 188.19524987890912 L 1792.649133101641 188.19524987890912 L 1792.649133101641 147.48289703890913 Z" stroke-miterlimit="10" stroke-width="2.4125838720000004" stroke-dasharray=""/></g><g><g/><text fill="black" stroke="none" font-family="sans-serif" font-size="11pt" font-style="normal" font-weight="normal" text-decoration="normal" x="1809.009467483641" y="173.11660067890912" text-anchor="start" dominant-baseline="alphabetic" xml:space="preserve">Script Permission</text></g><path fill="none" stroke="none"/><g><path fill="white" stroke="black" paint-order="fill stroke markers" d=" M 1954.47092726193 147.48289703890913 L 2135.4358434624532 147.48289703890913 L 2135.4358434624532 188.19524987890912 L 1954.47092726193 188.19524987890912 L 1954.47092726193 147.48289703890913 Z" stroke-miterlimit="10" stroke-width="2.4125838720000004" stroke-dasharray=""/></g><g><g/><text fill="black" stroke="none" font-family="sans-serif" font-size="11pt" font-style="normal" font-weight="normal" text-decoration="normal" x="1970.83126164393" y="173.11660067890912" text-anchor="start" dominant-baseline="alphabetic" xml:space="preserve">Script Check QR Code</text></g><path fill="none" stroke="none"/><g><path fill="white" stroke="black" paint-order="fill stroke markers" d=" M 2252.4788308868324 147.48289703890913 L 2395.4146485766137 147.48289703890913 L 2395.4146485766137 188.19524987890912 L 2252.4788308868324 188.19524987890912 L 2252.4788308868324 147.48289703890913 Z" stroke-miterlimit="10" stroke-width="2.4125838720000004" stroke-dasharray=""/></g><g><g/><text fill="black" stroke="none" font-family="sans-serif" font-size="11pt" font-style="normal" font-weight="normal" text-decoration="normal" x="2268.8391652688324" y="173.11660067890912" text-anchor="start" dominant-baseline="alphabetic" xml:space="preserve">Script Use Ticket</text></g><g><path fill="white" stroke="black" paint-order="fill stroke markers" d=" M 2580.9252662692543 158.6410974469091 L 2580.9252662692543 126.97593412690911 L 2624.954921933254 126.97593412690911 L 2624.954921933254 158.6410974469091" stroke-miterlimit="10" stroke-width="2.5633703640000003" stroke-dasharray=""/><path fill="white" stroke="black" paint-order="fill stroke markers" d=" M 2624.954921933254 125.87519273530911 L 2624.953821201035 125.974710161386 L 2624.9505191144513 126.0742176358032 L 2624.9450160037077 126.1737052078962 L 2624.9373124191115 126.27316292899071 L 2624.9274091310144 126.3725808533975 L 2624.915307129737 126.47194903940697 L 2624.9010076254694 126.5712575502833 L 2624.88451204815 126.67049645525822 L 2624.865822047323 126.76965583052387 L 2624.8449394919726 126.86872576022539 L 2624.821866470337 126.96769633745235 L 2624.7966052896995 127.06655766522952 L 2624.769158476157 127.16529985750651 L 2624.7395287743675 127.26391304014636 L 2624.707719147277 127.36238735191299 L 2624.6737327758215 127.46071294545727 L 2624.63757305861 127.55887998830181 L 2624.5992436115835 127.65687866382412 L 2624.5587482676556 127.7546991722383 L 2624.5160910763266 127.85233173157505 L 2624.47127630328 127.94976657865979 L 2624.424308429955 128.04699397008898 L 2624.3751921531016 128.14400418320454 L 2624.323932384305 128.24078751706597 L 2624.2705342495 128.33733429342055 L 2624.2150030884554 128.43363485767108 L 2624.1573444542414 128.52967957984143 L 2624.097564112673 128.62545885553936 L 2624.0356680417344 128.72096310691717 L 2623.9716624309817 128.8161827836293 L 2623.905553680922 128.91110836378738 L 2623.8373484023755 129.00573035491257 L 2623.7670534158133 129.10003929488454 L 2623.6946757506753 129.19402575288794 L 2623.620222644668 129.28768033035524 L 2623.5437015430393 129.38099366190679 L 2623.4651200978365 129.47395641628717 L 2623.3844861671378 129.5665592972984 L 2623.30180781427 129.65879304472955 L 2623.2170933069983 129.75064843528278 L 2623.130351116704 129.84211628349553 L 2623.0415899175327 129.9331874426592 L 2622.9508185855316 130.0238528057338 L 2622.858046197757 130.11410330625858 L 2622.7632820313715 130.20392991925868 L 2622.666535562712 130.29332366214763 L 2622.567816466345 130.38227559562569 L 2622.467134614098 130.47077682457356 L 2622.364500074072 130.5588184989422 L 2622.259923109636 130.64639181463744 L 2622.153414178399 130.73348801440076 L 2622.044983931165 130.82009838868473 L 2621.9346432108687 130.9062142765241 L 2621.8224030514903 130.99182706640187 L 2621.708274676952 131.07692819711033 L 2621.5922694999963 131.16150915860743 L 2621.4743991210444 131.2455614928674 L 2621.3546753270352 131.32907679472694 L 2621.2331100902493 131.41204671272544 L 2621.1097155671087 131.4944629499402 L 2620.984504096962 131.57631726481623 L 2620.857488200854 131.6576014719902 L 2620.728680580266 131.7383074431092 L 2620.5980941158546 131.8184271076433 L 2620.4657418661563 131.89795245369285 L 2620.331637066286 131.9768755287895 L 2620.1957931266124 132.05518844069152 L 2620.058223631416 132.13288335817302 L 2619.9189423375315 132.20995251180693 L 2619.7779631729722 132.28638819474213 L 2619.6353002355377 132.36218276347407 L 2619.490967791402 132.43732863860896 L 2619.34498027369 132.51181830562197 L 2619.1973522810313 132.58564431560845 L 2619.048098576102 132.6587992860289 L 2618.8972340841487 132.7312759014473 L 2618.744773891495 132.80306691426244 L 2618.5907332440324 132.87416514543293 L 2618.435127545698 132.94456348519483 L 2618.277972356931 133.0142548937729 L 2618.1192833931204 133.0832324020843 L 2617.95907652303 133.15148911243568 L 2617.797367767213 133.21901819921294 L 2617.6341732964106 133.28581290956362 L 2617.4695094299336 133.3518665640724 L 2617.3033926340318 133.4171725574288 L 2617.1358395202456 133.481724359088 L 2616.9668668437475 133.54551551392356 L 2616.796491501664 133.60853964287315 L 2616.6247305313877 133.67079044357644 L 2616.451601108872 133.73226169100522 L 2616.2771205469153 133.79294723808596 L 2616.101306293428 133.85284101631453 L 2615.924175929689 133.911937036363 L 2615.7457471685875 133.97022938867863 L 2615.56603785285 134.0277122440748 L 2615.3850659532595 134.0843798543138 L 2615.2028495668546 134.1402265526819 L 2615.0194069151216 134.19524675455574 L 2614.834756342174 134.249434957961 L 2614.648916312914 134.30278574412253 L 2614.46190541119 134.35529377800614 L 2614.2737423379367 134.40695380885222 L 2614.0844459093046 134.4577606707007 L 2613.894035054778 134.5077092829078 L 2613.702528815285 134.55679465065384 L 2613.509946341289 134.605011865443 L 2613.316306890877 134.65235610559398 L 2613.121629827833 134.69882263672218 L 2612.925934619701 134.74440681221327 L 2612.729240835839 134.78910407368764 L 2612.5315681454604 134.83290995145643 L 2612.332936315671 134.87582006496834 L 2612.133365209487 134.91783012324777 L 2611.932874783853 134.95893592532389 L 2611.731485087645 134.9991333606508 L 2611.5292162596647 135.03841840951844 L 2611.326088526626 135.07678714345462 L 2611.1221222011327 135.114235725618 L 2610.917337679648 135.1507604111815 L 2610.7117554404535 135.18635754770702 L 2610.505396041601 135.2210235755106 L 2610.298280118859 135.2547550280183 L 2610.090428383647 135.28754853211302 L 2609.8818616209655 135.31940080847167 L 2609.672600687317 135.35030867189315 L 2609.46266650862 135.38026903161688 L 2609.252080078117 135.40927889163183 L 2609.0408624542774 135.43733535097618 L 2608.8290347586862 135.46443560402741 L 2608.6166181739363 135.4905769407828 L 2608.4036339415097 135.5157567471304 L 2608.1901033596523 135.53997250511063 L 2607.976047781244 135.5632217931678 L 2607.761488611664 135.58550228639254 L 2607.546447306651 135.60681175675404 L 2607.330945370156 135.62714807332307 L 2607.1150043521934 135.6465092024849 L 2606.8986458466843 135.66489320814276 L 2606.6818914892997 135.6822982519114 L 2606.4647629552946 135.69872259330091 L 2606.2472819573413 135.71416458989088 L 2606.029470243358 135.7286226974945 L 2605.8113495943353 135.74209547031307 L 2605.592941822156 135.75458156108056 L 2605.374268767415 135.76607972119825 L 2605.1553522972363 135.7765888008597 L 2604.9362143030835 135.78610774916578 L 2604.716876698574 135.79463561422952 L 2604.497361417286 135.80217154327153 L 2604.277690410564 135.8087147827052 L 2604.0578856453253 135.81426467821206 L 2603.837969101864 135.81882067480714 L 2603.6179627716506 135.82238231689462 L 2603.3978886551354 135.82494924831323 L 2603.177768759546 135.82652121237197 L 2602.957625096689 135.82709805187577 L 2602.7374796807467 135.8266797091411 L 2602.517354526078 135.82526622600196 L 2602.2972716450145 135.82285774380543 L 2602.077253045661 135.81945450339776 L 2601.857320729694 135.81505684510012 L 2601.6374966901617 135.80966520867472 L 2601.417802909285 135.80328013328065 L 2601.198261356259 135.79590225742018 L 2600.978893985056 135.78753231887475 L 2600.7597227322303 135.7781711546312 L 2600.5407695147246 135.76781970079816 L 2600.322056227678 135.7564789925124 L 2600.103604742237 135.74415016383531 L 2599.8854369033684 135.73083444763947 L 2599.667574527674 135.7165331754854 L 2599.4500394012093 135.7012477774884 L 2599.2328532773067 135.68497978217553 L 2599.0160378743976 135.66773081633278 L 2598.7996148738407 135.64950260484235 L 2598.583605917756 135.6302969705102 L 2598.3680326068593 135.61011583388375 L 2598.152916498302 135.58896121305983 L 2597.938279103516 135.56683522348294 L 2597.7241418860613 135.5437400777336 L 2597.5105262594816 135.51967808530708 L 2597.2974535851617 135.4946516523826 L 2597.084945170191 135.4686632815826 L 2596.873022265234 135.4417155717225 L 2596.661706062405 135.41381121755086 L 2596.4510176931476 135.3849530094798 L 2596.240978226124 135.35514383330613 L 2596.0316086651046 135.32438666992255 L 2595.822929946872 135.29268459501984 L 2595.6149629391243 135.26004077877903 L 2595.407728438388 135.22645848555456 L 2595.2012471679413 135.19194107354775 L 2594.995539775739 135.15649199447105 L 2594.790626832349 135.12011479320282 L 2594.586528828894 135.08281310743288 L 2594.3832661750057 135.04459066729873 L 2594.180859196779 135.0054512950125 L 2593.9793281347434 134.96539890447883 L 2593.7786931418373 134.92443750090342 L 2593.5789742813927 134.88257118039243 L 2593.380191525129 134.83980412954307 L 2593.1823647511565 134.79614062502475 L 2592.9855137419872 134.75158503315157 L 2592.789658182559 134.7061418094456 L 2592.5948176582638 134.65981549819128 L 2592.4010116529917 134.6126107319812 L 2592.2082595471816 134.56453223125257 L 2592.0165806158843 134.51558480381547 L 2591.825994026832 134.4657733443718 L 2591.636518838526 134.41510283402602 L 2591.4481739983266 134.36357833978695 L 2591.260978340561 134.31120501406104 L 2591.074950584639 134.25798809413726 L 2590.8901093331806 134.20393290166325 L 2590.7064730701577 134.14904484211317 L 2590.524060159043 134.0933294042473 L 2590.342888840976 134.03679215956294 L 2590.1629772329375 133.97943876173744 L 2589.984343325938 133.92127494606285 L 2589.80700498322 133.8623065288722 L 2589.6309799384694 133.80253940695812 L 2589.456285794044 133.74197955698298 L 2589.282940019213 133.68063303488128 L 2589.1109599484093 133.61850597525418 L 2588.940362779497 133.5556045907558 L 2588.77116557205 133.49193517147216 L 2588.6033852456485 133.42750408429222 L 2588.4370385781854 133.36231777227093 L 2588.272142204189 133.2963827539852 L 2588.108712613159 133.2297056228819 L 2587.946766147918 133.1622930466186 L 2587.7863190029784 133.09415176639672 L 2587.6273872229203 133.0252885962875 L 2587.4699867007894 132.9557104225506 L 2587.314133176507 132.8854242029454 L 2587.1598422352954 132.81443696603523 L 2587.00712930612 132.7427558104847 L 2586.8560096601473 132.67038790434958 L 2586.706498409215 132.59734048436025 L 2586.558610504324 132.52362085519775 L 2586.412360734141 132.44923638876358 L 2586.2677637235224 132.37419452344244 L 2586.1248339320477 132.2985027633583 L 2585.9835856525774 132.2221686776241 L 2585.8440330098215 132.1451998995848 L 2585.706189958928 132.06760412605405 L 2585.5700702840873 131.98938911654457 L 2585.435687597153 131.91056269249208 L 2585.3030553362823 131.83113273647336 L 2585.172186764591 131.7511071914178 L 2585.0430949688266 131.67049405981317 L 2584.915792858061 131.5893014029055 L 2584.7902931624 131.50753733989282 L 2584.666608431708 131.4252100471133 L 2584.5447510343547 131.3423277572276 L 2584.424733155979 131.25889875839562 L 2584.3065667982687 131.17493139344774 L 2584.1902637777603 131.09043405905047 L 2584.0758357246596 131.00541520486686 L 2583.9632940816764 130.91988333271146 L 2583.8526501028814 130.83384699570024 L 2583.74391485258 130.74731479739515 L 2583.6370992042066 130.66029539094396 L 2583.532213839237 130.57279747821474 L 2583.429269246121 130.48482980892592 L 2583.328275719231 130.3964011797711 L 2583.2292433578364 130.30752043353948 L 2583.13218206509 130.21819645823163 L 2583.037101547041 130.12843818617063 L 2582.9440113116616 130.03825459310892 L 2582.852920667898 129.94765469733065 L 2582.7638387247384 129.85664755874987 L 2582.676774390303 129.7652422780046 L 2582.5917363709523 129.67344799554678 L 2582.508733170418 129.5812738907281 L 2582.4277730889507 129.48872918088233 L 2582.348864222491 129.39582312040324 L 2582.27201446186 129.30256499981948 L 2582.1972314919694 129.20896414486543 L 2582.1245227910545 129.11502991554852 L 2582.053895629924 129.02077170521346 L 2581.9853570712357 128.92619893960273 L 2581.918913968788 128.83132107591408 L 2581.854572966836 128.73614760185475 L 2581.7923404994262 128.64068803469291 L 2581.7322227897535 128.54495192030572 L 2581.674225849539 128.44894883222483 L 2581.618355478428 128.352688370679 L 2581.5646172634115 128.25618016163423 L 2581.5130165782657 128.15943385583097 L 2581.463558583016 128.06245912781918 L 2581.4162482234215 127.96526567499087 L 2581.3710902304783 127.86786321661032 L 2581.328089119948 127.77026149284217 L 2581.287249191906 127.6724702637775 L 2581.2485745303106 127.5744993084577 L 2581.2120690025968 127.47635842389667 L 2581.1777362592857 127.37805742410109 L 2581.1455797336234 127.27960613908901 L 2581.1156026412364 127.1810144139069 L 2581.0878079798076 127.0822921076451 L 2581.0621985287817 126.98344909245198 L 2581.038776849081 126.88449525254669 L 2581.0175452828544 126.78544048323076 L 2580.998505953241 126.68629468989857 L 2580.981660764158 126.58706778704685 L 2580.9670114001096 126.48776969728317 L 2580.954559326021 126.38841035033379 L 2580.9443057870885 126.28899968205057 L 2580.9362518086577 126.18954763341752 L 2580.9303981961193 126.09006414955662 L 2580.9267455348304 125.99055917873335 L 2580.925294190054 125.89104267136189 L 2580.926044306923 125.79152457901002 L 2580.928995810426 125.69201485340406 L 2580.934148405416 125.59252344543364 L 2580.941501576637 125.49306030415666 L 2580.951054588779 125.39363537580434 L 2580.9628064865474 125.29425860278668 L 2580.9767560947635 125.19493992269815 L 2580.9929020184773 125.09568926732403 L 2581.0112426431097 124.99651656164711 L 2581.0317761346146 124.89743172285533 L 2581.054500439659 124.79844465935 L 2581.0794132858314 124.69956526975497 L 2581.1065121818683 124.60080344192681 L 2581.1357944179026 124.50216905196602 L 2581.167257065735 124.40367196322937 L 2581.2008969791273 124.30532202534366 L 2581.236710794116 124.20712907322073 L 2581.2746949293487 124.10910292607396 L 2581.3148455864443 124.01125338643637 L 2581.3571587503707 123.9135902391804 L 2581.401630189846 123.81612325053938 L 2581.4482554577644 123.71886216713094 L 2581.497029891637 123.62181671498239 L 2581.547948614061 123.52499659855806 L 2581.6010065332075 123.42841149978892 L 2581.6561983433285 123.33207107710435 L 2581.7135185252882 123.23598496446634 L 2581.772961347117 123.14016277040608 L 2581.834520864582 123.04461407706313 L 2581.8981909217828 122.94934843922721 L 2581.963965151767 122.85437538338269 L 2582.0318369771653 122.75970440675601 L 2582.101799610853 122.66534497636597 L 2582.1738460566244 122.57130652807696 L 2582.247969109895 122.47759846565543 L 2582.324161358422 122.38423015982957 L 2582.4024151830426 122.29121094735211 L 2582.482722758441 122.19855013006682 L 2582.5650760539256 122.10625697397819 L 2582.6494668342357 122.01434070832492 L 2582.735886660364 121.92281052465698 L 2582.8243268903993 121.83167557591648 L 2582.914778680393 121.74094497552231 L 2583.007232985241 121.65062779645893 L 2583.1016805595896 121.560733070369 L 2583.1981119587604 121.47126978665017 L 2583.2965175396944 121.38224689155629 L 2583.3968874619145 121.29367328730267 L 2583.499211688513 121.20555783117594 L 2583.6034799871513 121.11790933464826 L 2583.7096819310877 121.03073656249626 L 2583.817806900216 120.94404823192451 L 2583.927844082129 120.85785301169383 L 2584.0397824732004 120.77215952125441 L 2584.1536108796845 120.68697632988388 L 2584.2693179188354 120.60231195583039 L 2584.3868920200457 120.5181748654608 L 2584.5063214260026 120.43457347241402 L 2584.627594193866 120.3515161367597 L 2584.7506981964602 120.26901116416218 L 2584.875621123487 120.18706680504998 L 2585.0023504827573 120.10569125379072 L 2585.1308736014416 120.02489264787171 L 2585.261177627335 119.9446790670862 L 2585.3932495301433 119.86505853272544 L 2585.527076102787 119.7860390067765 L 2585.662643962719 119.70762839112615 L 2585.7999395532674 119.6298345267706 L 2585.938949144987 119.55266519303144 L 2586.079658837035 119.47612810677776 L 2586.2220545585587 119.4002309216544 L 2586.366122070105 119.32498122731663 L 2586.511846965043 119.25038654867114 L 2586.6592146710045 119.17645434512369 L 2586.8082104513414 119.10319200983298 L 2586.9588194066005 119.0306068689715 L 2587.111026476011 118.95870618099286 L 2587.2648164389934 118.88749713590593 L 2587.4201739166792 118.81698685455588 L 2587.5770833734505 118.74718238791209 L 2587.7355291184917 118.67809071636304 L 2587.895495307361 118.60971874901833 L 2588.056965943573 118.5420733230177 L 2588.2199248801976 118.47516120284739 L 2588.3843558214776 118.40898907966366 L 2588.550242324456 118.34356357062367 L 2588.7175678006206 118.2788912182238 L 2588.8863155175627 118.21497848964543 L 2589.0564686006524 118.15183177610814 L 2589.228010034722 118.08945739223064 L 2589.400922665772 118.02786157539936 L 2589.575189202683 117.96705048514465 L 2589.750792218946 117.90703020252487 L 2589.927714154406 117.84780672951824 L 2590.105937317018 117.78938598842274 L 2590.2854438846125 117.73177382126377 L 2590.4662159066834 117.67497598921004 L 2590.6482353061792 117.61899817199743 L 2590.831483881311 117.56384596736102 L 2591.0159433073745 117.5095248904753 L 2591.2015951385806 117.4560403734027 L 2591.3884208099007 117.40339776455035 L 2591.5764016389235 117.35160232813527 L 2591.765518827723 117.30065924365793 L 2591.955753464738 117.25057360538435 L 2592.147086526663 117.2013504218366 L 2592.339498880351 117.15299461529202 L 2592.5329712847274 117.10551102129097 L 2592.727484392713 117.05890438815327 L 2592.923018753159 117.0131793765034 L 2593.119554812792 116.96834055880443 L 2593.31707291817 116.92439241890077 L 2593.5155533176476 116.88133935156975 L 2593.7149761633495 116.83918566208227 L 2593.915321513158 116.79793556577212 L 2594.1165693327043 116.75759318761459 L 2594.318699497375 116.71816256181383 L 2594.5216917943208 116.6796476313996 L 2594.7255259244826 116.64205224783282 L 2594.9301815046165 116.60538017062055 L 2595.135638069335 116.56963506693991 L 2595.3418750731535 116.53482051127152 L 2595.5488718925426 116.5009399850419 L 2595.7566078279933 116.46799687627546 L 2595.965062106085 116.43599447925563 L 2596.174213881564 116.40493599419543 L 2596.3840422394264 116.37482452691748 L 2596.5945261970114 116.34566308854342 L 2596.8056447060994 116.31745459519279 L 2597.0173766550147 116.29020186769141 L 2597.229700870739 116.26390763128934 L 2597.4425961210277 116.23857451538828 L 2597.6560411165333 116.21420505327873 L 2597.870014512934 116.1908016818866 L 2598.0844949130687 116.1683667415295 L 2598.2994608690756 116.14690247568278 L 2598.5148908845385 116.12641103075515 L 2598.7307634166355 116.10689445587401 L 2598.947056878293 116.0883547026806 L 2599.163749640346 116.07079362513478 L 2599.3808200336975 116.05421297932966 L 2599.5982463514897 116.03861442331603 L 2599.816006851272 116.02399951693647 L 2600.034079757176 116.01036972166946 L 2600.252443262093 115.99772640048315 L 2600.471075529854 115.98607081769912 L 2600.6899546974146 115.97540413886594 L 2600.9090588770405 115.96572743064262 L 2601.128366158496 115.9570416606919 L 2601.3478546112365 115.94934769758355 L 2601.567502286599 115.94264631070745 L 2601.787287219999 115.93693817019673 L 2602.0071874331265 115.93222384686065 L 2602.2271809361437 115.92850381212766 L 2602.447245729883 115.92577843799809 L 2602.667359808049 115.92404799700711 L 2602.8875011594164 115.92331266219736 L 2603.107647770035 115.92357250710171 L 2603.327777625426 115.9248275057359 L 2603.5478687127875 115.92707753260112 L 2603.7678990231943 115.93032236269651 L 2603.9878465537986 115.93456167154183 L 2604.207689310031 115.93979503520967 L 2604.427405307799 115.94602193036806 L 2604.6469725756856 115.95324173433266 L 2604.8663691571473 115.96145372512909 L 2605.0855731127085 115.97065708156512 L 2605.3045625221566 115.98085088331277 L 2605.523315486733 115.99203411100036 L 2605.7418101313233 116.00420564631446 L 2605.960024606645 116.01736427211165 L 2606.1779370914333 116.03150867254033 L 2606.395525794621 116.04663743317224 L 2606.6127689575183 116.06274904114393 L 2606.829644855991 116.07984188530804 L 2607.046131802629 116.09791425639438 L 2607.262208148919 116.1169643471809 L 2607.4778522874058 116.1369902526744 L 2607.6930426538556 116.15798997030103 L 2607.9077577294106 116.1799614001065 L 2608.121976042743 116.20290234496619 L 2608.335676172199 116.22681051080468 L 2608.5488367479443 116.25168350682533 L 2608.7614364540987 116.27751884574926 L 2608.973454030869 116.30431394406412 L 2609.1848682766745 116.3320661222824 L 2609.3956580502663 116.36077260520939 L 2609.6058022728425 116.39043052222074 L 2609.8152799301565 116.42103690754946 L 2610.024070074617 116.45258870058252 L 2610.2321518273834 116.48508274616691 L 2610.439504380454 116.51851579492514 L 2610.646106998746 116.5528845035802 L 2610.8519390221695 116.58818543528989 L 2611.0569798676947 116.62441505999041 L 2611.261209031407 116.66156975474952 L 2611.4646060905607 116.69964580412869 L 2611.667150705619 116.73863940055472 L 2611.8688226222894 116.77854664470044 L 2612.0696016735487 116.81936354587472 L 2612.269467781658 116.86108602242145 L 2612.468400960174 116.90370990212773 L 2612.666381315945 116.94723092264113 L 2612.8633890510987 116.99164473189583 L 2613.0594044650275 117.03694688854794 L 2613.254407956352 117.08313286241956 L 2613.448380024887 117.13019803495177 L 2613.641301273586 117.17813769966656 L 2613.8331524104856 117.22694706263738 L 2614.0239142506316 117.27662124296862 L 2614.2135677179995 117.32715527328364 L 2614.4020938474 117.37854410022152 L 2614.5894737863778 117.43078258494239 L 2614.7756887970945 117.48386550364133 L 2614.9607202582047 117.53778754807067 L 2615.1445496667166 117.59254332607092 L 2615.327158639842 117.64812736210992 L 2615.508528916836 117.70453409783036 L 2615.688642360822 117.7617578926057 L 2615.8674809606064 117.81979302410413 L 2616.045026832477 117.87863368886087 L 2616.221262221996 117.93827400285848 L 2616.3961695057696 117.99870800211527 L 2616.5697311932167 118.05992964328165 L 2616.7419299283124 118.12193280424454 L 2616.912748491327 118.18471128473949 L 2617.082169800546 118.24825880697081 L 2617.250176913981 118.3125690162392 L 2617.4167530310588 118.37763548157731 L 2617.581881494308 118.44345169639288 L 2617.745545791019 118.51001107911922 L 2617.907729554899 118.57730697387356 L 2618.068416567707 118.6453326511225 L 2618.227590760875 118.71408130835499 L 2618.3852362171165 118.7835460707626 L 2618.5413371720174 118.85371999192698 L 2618.695878015612 118.92459605451448 L 2618.8488432939453 118.99616717097793 L 2619.000217710616 119.0684261842653 L 2619.14998612831 119.1413658685355 L 2619.298133570309 119.21497892988086 L 2619.4446452219927 119.28925800705662 L 2619.589506432318 119.36419567221692 L 2619.732702715285 119.43978443165774 L 2619.8742197513843 119.5160167265661 L 2620.01404338903 119.59288493377602 L 2620.152159645975 119.67038136653088 L 2620.28855471071 119.74849827525193 L 2620.42321494384 119.82722784831344 L 2620.5561268794554 119.9065622128237 L 2620.687277226473 119.98649343541236 L 2620.8166528699667 120.06701352302377 L 2620.9442408724813 120.1481144237163 L 2621.070028475322 120.22978802746741 L 2621.1940030998335 120.31202616698484 L 2621.3161523486565 120.39482061852313 L 2621.4364640069684 120.47816310270613 L 2621.554926043703 120.5620452853549 L 2621.6715266127558 120.64645877832105 L 2621.786254054167 120.73139514032563 L 2621.899096895288 120.81684587780323 L 2622.010043851929 120.9028024457513 L 2622.119083829486 120.9892562485847 L 2622.2262059240525 121.07619864099514 L 2622.331399423509 121.16362092881589 L 2622.4346538085924 121.25151436989098 L 2622.53595875395 121.33987017494957 L 2622.6353041291727 121.42867950848476 L 2622.7326799998054 121.51793348963722 L 2622.8280766283415 121.60762319308321 L 2622.9214844751987 121.69773964992713 L 2623.012894199669 121.7882738485984 L 2623.102296660857 121.87921673575256 L 2623.189682918591 121.97055921717673 L 2623.2750442343176 122.06229215869885 L 2623.358372071977 122.15440638710123 L 2623.439658098854 122.24689269103779 L 2623.5188941864144 122.33974182195519 L 2623.5960724111155 122.43294449501774 L 2623.6711850551983 122.52649139003577 L 2623.744224607462 122.62037315239778 L 2623.8151837640116 122.71458039400572 L 2623.884055428991 122.80910369421396 L 2623.9508327152907 122.90393360077124 L 2624.015508945238 122.99906063076594 L 2624.0780776512634 123.09447527157432 L 2624.138532576549 123.19016798181183 L 2624.1968676756524 123.28612919228716 L 2624.253077115112 123.38234930695926 L 2624.307155274031 123.47881870389682 L 2624.359096744639 123.57552773624055 L 2624.4088963328313 123.67246673316781 L 2624.456549058691 123.76962600085969 L 2624.5020501569857 123.86699582347038 L 2624.5453950776428 123.96456646409875 L 2624.5865794862066 124.06232816576207 L 2624.625599264271 124.16027115237162 L 2624.66245050989 124.25838562971038 L 2624.69712953797 124.35666178641236 L 2624.729632880637 124.45508979494379 L 2624.759957287584 124.55365981258583 L 2624.7880997263956 124.6523619824189 L 2624.8140573828514 124.75118643430821 L 2624.837827661207 124.85012328589096 L 2624.859408184455 124.94916264356442 L 2624.8787967945605 125.04829460347538 L 2624.895991552679 125.14750925251043 L 2624.9109907393486 125.24679666928738 L 2624.9237928546636 125.34614692514725 L 2624.934396618423 125.44555008514727 L 2624.9428009702588 125.54499620905428 L 2624.9490050697436 125.64447535233874 L 2624.9530082964725 125.74397756716924 L 2624.9548102501253 125.84349290340721 M 2624.954921933254 157.5403560553091 L 2624.953821201035 157.639873481386 L 2624.9505191144513 157.7393809558032 L 2624.9450160037077 157.8388685278962 L 2624.9373124191115 157.9383262489907 L 2624.9274091310144 158.0377441733975 L 2624.915307129737 158.13711235940696 L 2624.9010076254694 158.2364208702833 L 2624.88451204815 158.3356597752582 L 2624.865822047323 158.43481915052385 L 2624.8449394919726 158.53388908022538 L 2624.821866470337 158.63285965745234 L 2624.7966052896995 158.73172098522952 L 2624.769158476157 158.8304631775065 L 2624.7395287743675 158.92907636014635 L 2624.707719147277 159.02755067191296 L 2624.6737327758215 159.12587626545726 L 2624.63757305861 159.22404330830182 L 2624.5992436115835 159.3220419838241 L 2624.5587482676556 159.4198624922383 L 2624.5160910763266 159.51749505157505 L 2624.47127630328 159.61492989865977 L 2624.424308429955 159.71215729008898 L 2624.3751921531016 159.80916750320452 L 2624.323932384305 159.90595083706594 L 2624.2705342495 160.00249761342053 L 2624.2150030884554 160.09879817767109 L 2624.1573444542414 160.1948428998414 L 2624.097564112673 160.29062217553937 L 2624.0356680417344 160.38612642691717 L 2623.9716624309817 160.48134610362928 L 2623.905553680922 160.57627168378738 L 2623.8373484023755 160.67089367491255 L 2623.7670534158133 160.76520261488454 L 2623.6946757506753 160.85918907288792 L 2623.620222644668 160.95284365035525 L 2623.5437015430393 161.0461569819068 L 2623.4651200978365 161.13911973628714 L 2623.3844861671378 161.23172261729837 L 2623.30180781427 161.32395636472955 L 2623.2170933069983 161.41581175528276 L 2623.130351116704 161.5072796034955 L 2623.0415899175327 161.5983507626592 L 2622.9508185855316 161.68901612573381 L 2622.858046197757 161.77926662625856 L 2622.7632820313715 161.86909323925866 L 2622.666535562712 161.95848698214763 L 2622.567816466345 162.04743891562566 L 2622.467134614098 162.13594014457357 L 2622.364500074072 162.22398181894218 L 2622.259923109636 162.31155513463744 L 2622.153414178399 162.39865133440074 L 2622.044983931165 162.48526170868473 L 2621.9346432108687 162.5713775965241 L 2621.8224030514903 162.65699038640184 L 2621.708274676952 162.74209151711034 L 2621.5922694999963 162.8266724786074 L 2621.4743991210444 162.91072481286741 L 2621.3546753270352 162.99424011472695 L 2621.2331100902493 163.07721003272542 L 2621.1097155671087 163.1596262699402 L 2620.984504096962 163.2414805848162 L 2620.857488200854 163.32276479199018 L 2620.728680580266 163.40347076310917 L 2620.5980941158546 163.48359042764326 L 2620.4657418661563 163.56311577369283 L 2620.331637066286 163.6420388487895 L 2620.1957931266124 163.72035176069153 L 2620.058223631416 163.798046678173 L 2619.9189423375315 163.8751158318069 L 2619.7779631729722 163.95155151474214 L 2619.6353002355377 164.02734608347404 L 2619.490967791402 164.10249195860897 L 2619.34498027369 164.17698162562195 L 2619.1973522810313 164.25080763560842 L 2619.048098576102 164.3239626060289 L 2618.8972340841487 164.39643922144728 L 2618.744773891495 164.46823023426245 L 2618.5907332440324 164.5393284654329 L 2618.435127545698 164.6097268051948 L 2618.277972356931 164.67941821377286 L 2618.1192833931204 164.74839572208427 L 2617.95907652303 164.81665243243566 L 2617.797367767213 164.88418151921292 L 2617.6341732964106 164.95097622956362 L 2617.4695094299336 165.01702988407237 L 2617.3033926340318 165.08233587742882 L 2617.1358395202456 165.146887679088 L 2616.9668668437475 165.21067883392354 L 2616.796491501664 165.27370296287316 L 2616.6247305313877 165.33595376357644 L 2616.451601108872 165.3974250110052 L 2616.2771205469153 165.45811055808593 L 2616.101306293428 165.5180043363145 L 2615.924175929689 165.577100356363 L 2615.7457471685875 165.63539270867864 L 2615.56603785285 165.69287556407477 L 2615.3850659532595 165.7495431743138 L 2615.2028495668546 165.80538987268187 L 2615.0194069151216 165.86041007455572 L 2614.834756342174 165.914598277961 L 2614.648916312914 165.96794906412254 L 2614.46190541119 166.02045709800615 L 2614.2737423379367 166.0721171288522 L 2614.0844459093046 166.1229239907007 L 2613.894035054778 166.17287260290777 L 2613.702528815285 166.22195797065382 L 2613.509946341289 166.27017518544298 L 2613.316306890877 166.31751942559396 L 2613.121629827833 166.3639859567222 L 2612.925934619701 166.40957013221328 L 2612.729240835839 166.45426739368764 L 2612.5315681454604 166.4980732714564 L 2612.332936315671 166.5409833849683 L 2612.133365209487 166.58299344324774 L 2611.932874783853 166.6240992453239 L 2611.731485087645 166.6642966806508 L 2611.5292162596647 166.70358172951842 L 2611.326088526626 166.74195046345463 L 2611.1221222011327 166.779399045618 L 2610.917337679648 166.8159237311815 L 2610.7117554404535 166.85152086770702 L 2610.505396041601 166.88618689551058 L 2610.298280118859 166.9199183480183 L 2610.090428383647 166.95271185211303 L 2609.8818616209655 166.98456412847167 L 2609.672600687317 167.01547199189315 L 2609.46266650862 167.04543235161685 L 2609.252080078117 167.0744422116318 L 2609.0408624542774 167.1024986709762 L 2608.8290347586862 167.12959892402742 L 2608.6166181739363 167.15574026078278 L 2608.4036339415097 167.1809200671304 L 2608.1901033596523 167.2051358251106 L 2607.976047781244 167.2283851131678 L 2607.761488611664 167.25066560639252 L 2607.546447306651 167.27197507675405 L 2607.330945370156 167.29231139332308 L 2607.1150043521934 167.3116725224849 L 2606.8986458466843 167.33005652814276 L 2606.6818914892997 167.34746157191137 L 2606.4647629552946 167.3638859133009 L 2606.2472819573413 167.37932790989086 L 2606.029470243358 167.3937860174945 L 2605.8113495943353 167.40725879031308 L 2605.592941822156 167.41974488108053 L 2605.374268767415 167.43124304119823 L 2605.1553522972363 167.44175212085972 L 2604.9362143030835 167.45127106916576 L 2604.716876698574 167.4597989342295 L 2604.497361417286 167.46733486327153 L 2604.277690410564 167.4738781027052 L 2604.0578856453253 167.47942799821206 L 2603.837969101864 167.48398399480715 L 2603.6179627716506 167.4875456368946 L 2603.3978886551354 167.4901125683132 L 2603.177768759546 167.49168453237195 L 2602.957625096689 167.49226137187574 L 2602.7374796807467 167.4918430291411 L 2602.517354526078 167.49042954600193 L 2602.2972716450145 167.48802106380543 L 2602.077253045661 167.48461782339774 L 2601.857320729694 167.48022016510012 L 2601.6374966901617 167.4748285286747 L 2601.417802909285 167.46844345328066 L 2601.198261356259 167.4610655774202 L 2600.978893985056 167.45269563887473 L 2600.7597227322303 167.44333447463117 L 2600.5407695147246 167.43298302079813 L 2600.322056227678 167.4216423125124 L 2600.103604742237 167.4093134838353 L 2599.8854369033684 167.39599776763947 L 2599.667574527674 167.3816964954854 L 2599.4500394012093 167.3664110974884 L 2599.2328532773067 167.35014310217554 L 2599.0160378743976 167.33289413633278 L 2598.7996148738407 167.31466592484233 L 2598.583605917756 167.2954602905102 L 2598.3680326068593 167.27527915388373 L 2598.152916498302 167.25412453305984 L 2597.938279103516 167.23199854348294 L 2597.7241418860613 167.20890339773356 L 2597.5105262594816 167.18484140530705 L 2597.2974535851617 167.15981497238258 L 2597.084945170191 167.1338266015826 L 2596.873022265234 167.10687889172252 L 2596.661706062405 167.07897453755086 L 2596.4510176931476 167.0501163294798 L 2596.240978226124 167.0203071533061 L 2596.0316086651046 166.98954998992255 L 2595.822929946872 166.9578479150198 L 2595.6149629391243 166.925204098779 L 2595.407728438388 166.89162180555454 L 2595.2012471679413 166.85710439354773 L 2594.995539775739 166.82165531447103 L 2594.790626832349 166.78527811320282 L 2594.586528828894 166.7479764274329 L 2594.3832661750057 166.7097539872987 L 2594.180859196779 166.6706146150125 L 2593.9793281347434 166.63056222447884 L 2593.7786931418373 166.5896008209034 L 2593.5789742813927 166.5477345003924 L 2593.380191525129 166.50496744954305 L 2593.1823647511565 166.46130394502475 L 2592.9855137419872 166.41674835315158 L 2592.789658182559 166.37130512944557 L 2592.5948176582638 166.32497881819128 L 2592.4010116529917 166.27777405198117 L 2592.2082595471816 166.22969555125258 L 2592.0165806158843 166.18074812381545 L 2591.825994026832 166.1309366643718 L 2591.636518838526 166.08026615402602 L 2591.4481739983266 166.02874165978693 L 2591.260978340561 165.97636833406105 L 2591.074950584639 165.92315141413727 L 2590.8901093331806 165.86909622166323 L 2590.7064730701577 165.81420816211318 L 2590.524060159043 165.75849272424728 L 2590.342888840976 165.7019554795629 L 2590.1629772329375 165.64460208173745 L 2589.984343325938 165.58643826606283 L 2589.80700498322 165.52746984887222 L 2589.6309799384694 165.46770272695812 L 2589.456285794044 165.40714287698296 L 2589.282940019213 165.3457963548813 L 2589.1109599484093 165.28366929525416 L 2588.940362779497 165.22076791075577 L 2588.77116557205 165.15709849147217 L 2588.6033852456485 165.0926674042922 L 2588.4370385781854 165.02748109227093 L 2588.272142204189 164.9615460739852 L 2588.108712613159 164.8948689428819 L 2587.946766147918 164.8274563666186 L 2587.7863190029784 164.75931508639673 L 2587.6273872229203 164.69045191628751 L 2587.4699867007894 164.6208737425506 L 2587.314133176507 164.55058752294536 L 2587.1598422352954 164.47960028603524 L 2587.00712930612 164.4079191304847 L 2586.8560096601473 164.3355512243496 L 2586.706498409215 164.26250380436022 L 2586.558610504324 164.18878417519772 L 2586.412360734141 164.11439970876359 L 2586.2677637235224 164.03935784344245 L 2586.1248339320477 163.9636660833583 L 2585.9835856525774 163.8873319976241 L 2585.8440330098215 163.8103632195848 L 2585.706189958928 163.73276744605405 L 2585.5700702840873 163.65455243654455 L 2585.435687597153 163.57572601249208 L 2585.3030553362823 163.49629605647334 L 2585.172186764591 163.41627051141776 L 2585.0430949688266 163.33565737981317 L 2584.915792858061 163.2544647229055 L 2584.7902931624 163.17270065989283 L 2584.666608431708 163.09037336711327 L 2584.5447510343547 163.00749107722757 L 2584.424733155979 162.9240620783956 L 2584.3065667982687 162.8400947134477 L 2584.1902637777603 162.75559737905047 L 2584.0758357246596 162.67057852486684 L 2583.9632940816764 162.58504665271147 L 2583.8526501028814 162.49901031570022 L 2583.74391485258 162.41247811739512 L 2583.6370992042066 162.32545871094393 L 2583.532213839237 162.23796079821474 L 2583.429269246121 162.14999312892593 L 2583.328275719231 162.06156449977107 L 2583.2292433578364 161.97268375353946 L 2583.13218206509 161.8833597782316 L 2583.037101547041 161.79360150617063 L 2582.9440113116616 161.70341791310892 L 2582.852920667898 161.61281801733062 L 2582.7638387247384 161.52181087874985 L 2582.676774390303 161.4304055980046 L 2582.5917363709523 161.33861131554676 L 2582.508733170418 161.24643721072812 L 2582.4277730889507 161.1538925008823 L 2582.348864222491 161.0609864404032 L 2582.27201446186 160.96772831981949 L 2582.1972314919694 160.8741274648654 L 2582.1245227910545 160.78019323554852 L 2582.053895629924 160.68593502521347 L 2581.9853570712357 160.59136225960273 L 2581.918913968788 160.49648439591405 L 2581.854572966836 160.40131092185476 L 2581.7923404994262 160.30585135469292 L 2581.7322227897535 160.21011524030573 L 2581.674225849539 160.1141121522248 L 2581.618355478428 160.017851690679 L 2581.5646172634115 159.92134348163424 L 2581.5130165782657 159.82459717583097 L 2581.463558583016 159.7276224478192 L 2581.4162482234215 159.63042899499087 L 2581.3710902304783 159.5330265366103 L 2581.328089119948 159.43542481284217 L 2581.287249191906 159.3376335837775 L 2581.2485745303106 159.2396626284577 L 2581.2120690025968 159.14152174389667 L 2581.1777362592857 159.0432207441011 L 2581.1455797336234 158.944769459089 L 2581.1156026412364 158.84617773390687 L 2581.0878079798076 158.7474554276451 L 2581.0621985287817 158.64861241245197 L 2581.038776849081 158.5496585725467 L 2581.0175452828544 158.45060380323076 L 2580.998505953241 158.35145800989858 L 2580.981660764158 158.25223110704684 L 2580.9670114001096 158.15293301728317 L 2580.954559326021 158.05357367033378 L 2580.9443057870885 157.95416300205056 L 2580.9362518086577 157.8547109534175 L 2580.9303981961193 157.75522746955662 L 2580.9267455348304 157.65572249873335 L 2580.925294190054 157.55620599136188" stroke-miterlimit="10" stroke-width="2.5633703640000003" stroke-dasharray=""/></g><g><g/><text fill="black" stroke="none" font-family="sans-serif" font-size="11pt" font-style="normal" font-weight="normal" text-decoration="normal" x="2556.101638901059" y="183.67165511890911" text-anchor="start" dominant-baseline="alphabetic" xml:space="preserve">Elastic Search</text></g></g><g><g><text fill="black" stroke="none" font-family="sans-serif" font-size="16pt" font-style="normal" font-weight="normal" text-decoration="normal" x="1245.2997131347656" y="22.75505242909091" text-anchor="start" dominant-baseline="alphabetic" xml:space="preserve">QR Scanner full flow</text></g><g><text fill="black" stroke="none" font-family="sans-serif" font-size="11pt" font-style="normal" font-weight="normal" text-decoration="normal" x="187.09827560965232" y="231.9233325589091" text-anchor="start" dominant-baseline="alphabetic" xml:space="preserve">open UI in the first time</text></g><g><path fill="none" stroke="black" paint-order="fill stroke markers" d=" M 67.8539214 237.9547922389091 L 444.6267583679453 237.9547922389091" stroke-miterlimit="10" stroke-width="1.2565541" stroke-dasharray=""/><g transform="translate(457.0415128759453,237.9547922389091) translate(-457.0415128759453,-237.9547922389091)"><path fill="black" stroke="none" paint-order="stroke fill markers" d=" M 444.4759718759453 231.6720217389091 L 457.0415128759453 237.9547922389091 L 444.4759718759453 244.2375627389091 Z"/></g></g><g><text fill="black" stroke="none" font-family="sans-serif" font-size="11pt" font-style="normal" font-weight="normal" text-decoration="normal" x="231.49640793387107" y="274.1435503189091" text-anchor="start" dominant-baseline="alphabetic" xml:space="preserve">ask email</text></g><g><path fill="none" stroke="black" paint-order="fill stroke markers" d=" M 457.0415128759453 280.1750099989091 L 80.268675908 280.1750099989091" stroke-miterlimit="10" stroke-width="1.2565541" stroke-dasharray=""/><g transform="translate(67.8539214,280.1750099989091) translate(-67.8539214,-280.1750099989091)"><path fill="black" stroke="none" paint-order="stroke fill markers" d=" M 80.4194624 273.8922394989091 L 67.8539214 280.1750099989091 L 80.4194624 286.45778049890913 Z"/></g></g><g><text fill="black" stroke="none" font-family="sans-serif" font-size="11pt" font-style="normal" font-weight="normal" text-decoration="normal" x="227.00936264578513" y="316.3637680789092" text-anchor="start" dominant-baseline="alphabetic" xml:space="preserve">input email</text></g><g><path fill="none" stroke="black" paint-order="fill stroke markers" d=" M 67.8539214 322.39522775890913 L 444.6267583679453 322.39522775890913" stroke-miterlimit="10" stroke-width="1.2565541" stroke-dasharray=""/><g transform="translate(457.0415128759453,322.39522775890913) translate(-457.0415128759453,-322.39522775890913)"><path fill="black" stroke="none" paint-order="stroke fill markers" d=" M 444.4759718759453 316.1124572589091 L 457.0415128759453 322.39522775890913 L 444.4759718759453 328.67799825890916 Z"/></g></g><g><text fill="black" stroke="none" font-family="sans-serif" font-size="11pt" font-style="normal" font-weight="normal" text-decoration="normal" x="506.8918389861992" y="358.58398583890914" text-anchor="start" dominant-baseline="alphabetic" xml:space="preserve">store email</text></g><g><path fill="none" stroke="black" paint-order="fill stroke markers" d=" M 457.0415128759453 364.61544551890915 L 616.0056332447031 364.61544551890915" stroke-miterlimit="10" stroke-width="1.2565541" stroke-dasharray=""/><g transform="translate(628.420387752703,364.61544551890915) translate(-628.420387752703,-364.61544551890915)"><path fill="black" stroke="none" paint-order="stroke fill markers" d=" M 615.854846752703 358.33267501890913 L 628.420387752703 364.61544551890915 L 615.854846752703 370.8982160189092 Z"/></g></g><g><text fill="black" stroke="none" font-family="sans-serif" font-size="11pt" font-style="normal" font-weight="normal" text-decoration="normal" x="762.0586429190469" y="400.8042035989092" text-anchor="start" dominant-baseline="alphabetic" xml:space="preserve">Request OTP</text></g><g><path fill="none" stroke="black" paint-order="fill stroke markers" d=" M 628.420387752703 406.8356632789092 L 972.0712518537578 406.8356632789092" stroke-miterlimit="10" stroke-width="1.2565541" stroke-dasharray=""/><g transform="translate(984.4860063617577,406.8356632789092) translate(-984.4860063617577,-406.8356632789092)"><path fill="black" stroke="none" paint-order="stroke fill markers" d=" M 971.9204653617577 400.55289277890915 L 984.4860063617577 406.8356632789092 L 971.9204653617577 413.1184337789092 Z"/></g></g><g><text fill="black" stroke="none" font-family="sans-serif" font-size="11pt" font-style="normal" font-weight="normal" text-decoration="normal" x="781.6026950430703" y="443.0244213589092" text-anchor="start" dominant-baseline="alphabetic" xml:space="preserve">200 OK</text></g><g><path fill="none" stroke="black" paint-order="fill stroke markers" d=" M 984.4860063617577 449.0558810389092 L 640.835142260703 449.0558810389092" stroke-miterlimit="10" stroke-width="1.2565541" stroke-dasharray=""/><g transform="translate(628.420387752703,449.0558810389092) translate(-628.420387752703,-449.0558810389092)"><path fill="black" stroke="none" paint-order="stroke fill markers" d=" M 640.9859287527031 442.7731105389092 L 628.420387752703 449.0558810389092 L 640.9859287527031 455.33865153890923 Z"/></g></g><g><text fill="black" stroke="none" font-family="sans-serif" font-size="11pt" font-style="normal" font-weight="normal" text-decoration="normal" x="233.94388718191794" y="485.2446391189093" text-anchor="start" dominant-baseline="alphabetic" xml:space="preserve">ask OTP</text></g><g><path fill="none" stroke="black" paint-order="fill stroke markers" d=" M 457.0415128759453 491.27609879890923 L 80.268675908 491.27609879890923" stroke-miterlimit="10" stroke-width="1.2565541" stroke-dasharray=""/><g transform="translate(67.8539214,491.27609879890923) translate(-67.8539214,-491.27609879890923)"><path fill="black" stroke="none" paint-order="stroke fill markers" d=" M 80.4194624 484.9933282989092 L 67.8539214 491.27609879890923 L 80.4194624 497.55886929890926 Z"/></g></g><g><text fill="black" stroke="none" font-family="sans-serif" font-size="11pt" font-style="normal" font-weight="normal" text-decoration="normal" x="229.456841893832" y="527.4648568789092" text-anchor="start" dominant-baseline="alphabetic" xml:space="preserve">input OTP</text></g><g><path fill="none" stroke="black" paint-order="fill stroke markers" d=" M 67.8539214 533.4963165589093 L 444.6267583679453 533.4963165589093" stroke-miterlimit="10" stroke-width="1.2565541" stroke-dasharray=""/><g transform="translate(457.0415128759453,533.4963165589093) translate(-457.0415128759453,-533.4963165589093)"><path fill="black" stroke="none" paint-order="stroke fill markers" d=" M 444.4759718759453 527.2135460589093 L 457.0415128759453 533.4963165589093 L 444.4759718759453 539.7790870589092 Z"/></g></g><g><text fill="black" stroke="none" font-family="sans-serif" font-size="11pt" font-style="normal" font-weight="normal" text-decoration="normal" x="508.1120004241875" y="569.6850746389092" text-anchor="start" dominant-baseline="alphabetic" xml:space="preserve">OTP Code</text></g><g><path fill="none" stroke="black" paint-order="fill stroke markers" d=" M 457.0415128759453 575.7165343189092 L 616.0056332447031 575.7165343189092" stroke-miterlimit="10" stroke-width="1.2565541" stroke-dasharray=""/><g transform="translate(628.420387752703,575.7165343189092) translate(-628.420387752703,-575.7165343189092)"><path fill="black" stroke="none" paint-order="stroke fill markers" d=" M 615.854846752703 569.4337638189093 L 628.420387752703 575.7165343189092 L 615.854846752703 581.9993048189092 Z"/></g></g><g><text fill="black" stroke="none" font-family="sans-serif" font-size="11pt" font-style="normal" font-weight="normal" text-decoration="normal" x="887.531477553164" y="611.9052923989092" text-anchor="start" dominant-baseline="alphabetic" xml:space="preserve">authorization in SDK</text></g><g><path fill="none" stroke="black" paint-order="fill stroke markers" d=" M 628.420387752703 617.9367520789092 L 1267.8372793983594 617.9367520789092" stroke-miterlimit="10" stroke-width="1.2565541" stroke-dasharray=""/><g transform="translate(1280.2520339063594,617.9367520789092) translate(-1280.2520339063594,-617.9367520789092)"><path fill="black" stroke="none" paint-order="stroke fill markers" d=" M 1267.6864929063595 611.6539815789092 L 1280.2520339063594 617.9367520789092 L 1267.6864929063595 624.2195225789092 Z"/></g></g><g><text fill="black" stroke="none" font-family="sans-serif" font-size="11pt" font-style="normal" font-weight="normal" text-decoration="normal" x="888.7587953632226" y="654.1255101589092" text-anchor="start" dominant-baseline="alphabetic" xml:space="preserve">return SDK instance</text></g><g><path fill="none" stroke="black" paint-order="fill stroke markers" d=" M 1280.2520339063594 660.1569698389092 L 640.835142260703 660.1569698389092" stroke-miterlimit="10" stroke-width="1.2565541" stroke-dasharray=""/><g transform="translate(628.420387752703,660.1569698389092) translate(-628.420387752703,-660.1569698389092)"><path fill="black" stroke="none" paint-order="stroke fill markers" d=" M 640.9859287527031 653.8741993389092 L 628.420387752703 660.1569698389092 L 640.9859287527031 666.4397403389091 Z"/></g></g><g><text fill="black" stroke="none" font-family="sans-serif" font-size="11pt" font-style="normal" font-weight="normal" text-decoration="normal" x="829.2227905649004" y="696.3457279189091" text-anchor="start" dominant-baseline="alphabetic" xml:space="preserve">Send event DAVINCI_QR_CODE_VALIDATOR_PERMISSIONS</text></g><g><path fill="none" stroke="black" paint-order="fill stroke markers" d=" M 628.420387752703 702.3771875989091 L 1433.5593829608947 702.3771875989091" stroke-miterlimit="10" stroke-width="1.2565541" stroke-dasharray=""/><g transform="translate(1445.9741374688947,702.3771875989091) translate(-1445.9741374688947,-702.3771875989091)"><path fill="black" stroke="none" paint-order="stroke fill markers" d=" M 1433.4085964688948 696.0944170989092 L 1445.9741374688947 702.3771875989091 L 1433.4085964688948 708.6599580989091 Z"/></g></g><g><text fill="black" stroke="none" font-family="sans-serif" font-size="11pt" font-style="normal" font-weight="normal" text-decoration="normal" x="1601.4265063031721" y="738.5659456789091" text-anchor="start" dominant-baseline="alphabetic" xml:space="preserve">ask permissions </text></g><g><path fill="none" stroke="black" paint-order="fill stroke markers" d=" M 1445.9741374688947 744.5974053589091 L 1853.6059510737855 744.5974053589091" stroke-miterlimit="10" stroke-width="1.2565541" stroke-dasharray=""/><g transform="translate(1866.0207055817855,744.5974053589091) translate(-1866.0207055817855,-744.5974053589091)"><path fill="black" stroke="none" paint-order="stroke fill markers" d=" M 1853.4551645817855 738.3146348589091 L 1866.0207055817855 744.5974053589091 L 1853.4551645817855 750.8801758589091 Z"/></g></g><g><text fill="black" stroke="none" font-family="sans-serif" font-size="11pt" font-style="normal" font-weight="normal" text-decoration="normal" x="1726.1897352454573" y="780.786163438909" text-anchor="start" dominant-baseline="alphabetic" xml:space="preserve">permissions array </text></g><g><path fill="none" stroke="black" paint-order="fill stroke markers" d=" M 1866.0207055817855 786.8176231189091 L 1718.4996241534573 786.8176231189091" stroke-miterlimit="10" stroke-width="1.2565541" stroke-dasharray=""/><g transform="translate(1706.0848696454573,786.8176231189091) translate(-1706.0848696454573,-786.8176231189091)"><path fill="black" stroke="none" paint-order="stroke fill markers" d=" M 1718.6504106454572 780.5348526189091 L 1706.0848696454573 786.8176231189091 L 1718.6504106454572 793.100393618909 Z"/></g></g><g><text fill="black" stroke="none" font-family="sans-serif" font-size="11pt" font-style="normal" font-weight="normal" text-decoration="normal" x="1466.0790030688947" y="823.006381198909" text-anchor="start" dominant-baseline="alphabetic" xml:space="preserve">permissions array in JSON format</text></g><g><path fill="none" stroke="black" paint-order="fill stroke markers" d=" M 1706.0848696454573 829.037840878909 L 1458.3888919768947 829.037840878909" stroke-miterlimit="10" stroke-width="1.2565541" stroke-dasharray=""/><g transform="translate(1445.9741374688947,829.037840878909) translate(-1445.9741374688947,-829.037840878909)"><path fill="black" stroke="none" paint-order="stroke fill markers" d=" M 1458.5396784688946 822.7550703789091 L 1445.9741374688947 829.037840878909 L 1458.5396784688946 835.320611378909 Z"/></g></g><g><text fill="black" stroke="none" font-family="sans-serif" font-size="11pt" font-style="normal" font-weight="normal" text-decoration="normal" x="856.3378494638262" y="865.226598958909" text-anchor="start" dominant-baseline="alphabetic" xml:space="preserve">notify about available permissions by subscription event</text></g><g><path fill="none" stroke="black" paint-order="fill stroke markers" d=" M 1445.9741374688947 871.258058638909 L 640.835142260703 871.258058638909" stroke-miterlimit="10" stroke-width="1.2565541" stroke-dasharray=""/><g transform="translate(628.420387752703,871.258058638909) translate(-628.420387752703,-871.258058638909)"><path fill="black" stroke="none" paint-order="stroke fill markers" d=" M 640.9859287527031 864.975288138909 L 628.420387752703 871.258058638909 L 640.9859287527031 877.540829138909 Z"/></g></g><g><text fill="black" stroke="none" font-family="sans-serif" font-size="11pt" font-style="normal" font-weight="normal" text-decoration="normal" x="777.3778117887421" y="907.446816718909" text-anchor="start" dominant-baseline="alphabetic" xml:space="preserve">enrich data of availalbe events</text></g><g><path fill="none" stroke="black" paint-order="fill stroke markers" d=" M 628.420387752703 913.478276398909 L 1111.9086710140468 913.478276398909" stroke-miterlimit="10" stroke-width="1.2565541" stroke-dasharray=""/><g transform="translate(1124.3234255220468,913.478276398909) translate(-1124.3234255220468,-913.478276398909)"><path fill="black" stroke="none" paint-order="stroke fill markers" d=" M 1111.7578845220469 907.195505898909 L 1124.3234255220468 913.478276398909 L 1111.7578845220469 919.761046898909 Z"/></g></g><g><text fill="black" stroke="none" font-family="sans-serif" font-size="11pt" font-style="normal" font-weight="normal" text-decoration="normal" x="810.7837566129608" y="949.6670344789089" text-anchor="start" dominant-baseline="alphabetic" xml:space="preserve">return enriched data</text></g><g><path fill="none" stroke="black" paint-order="fill stroke markers" d=" M 1124.3234255220468 955.6984941589089 L 640.835142260703 955.6984941589089" stroke-miterlimit="10" stroke-width="1.2565541" stroke-dasharray=""/><g transform="translate(628.420387752703,955.6984941589089) translate(-628.420387752703,-955.6984941589089)"><path fill="black" stroke="none" paint-order="stroke fill markers" d=" M 640.9859287527031 949.415723658909 L 628.420387752703 955.6984941589089 L 640.9859287527031 961.9812646589089 Z"/></g></g><g><text fill="black" stroke="none" font-family="sans-serif" font-size="11pt" font-style="normal" font-weight="normal" text-decoration="normal" x="118.6439985710781" y="991.8872522389089" text-anchor="start" dominant-baseline="alphabetic" xml:space="preserve">show event list and ask event to choose one</text></g><g><path fill="none" stroke="black" paint-order="fill stroke markers" d=" M 457.0415128759453 997.9187119189089 L 80.268675908 997.9187119189089" stroke-miterlimit="10" stroke-width="1.2565541" stroke-dasharray=""/><g transform="translate(67.8539214,997.9187119189089) translate(-67.8539214,-997.9187119189089)"><path fill="black" stroke="none" paint-order="stroke fill markers" d=" M 80.4194624 991.6359414189089 L 67.8539214 997.9187119189089 L 80.4194624 1004.2014824189089 Z"/></g></g><g><text fill="black" stroke="none" font-family="sans-serif" font-size="11pt" font-style="normal" font-weight="normal" text-decoration="normal" x="223.34172195974998" y="1034.107469998909" text-anchor="start" dominant-baseline="alphabetic" xml:space="preserve">select event</text></g><g><path fill="none" stroke="black" paint-order="fill stroke markers" d=" M 67.8539214 1040.1389296789089 L 444.6267583679453 1040.1389296789089" stroke-miterlimit="10" stroke-width="1.2565541" stroke-dasharray=""/><g transform="translate(457.0415128759453,1040.1389296789089) translate(-457.0415128759453,-1040.1389296789089)"><path fill="black" stroke="none" paint-order="stroke fill markers" d=" M 444.4759718759453 1033.856159178909 L 457.0415128759453 1040.1389296789089 L 444.4759718759453 1046.4217001789088 Z"/></g></g><g><text fill="black" stroke="none" font-family="sans-serif" font-size="11pt" font-style="normal" font-weight="normal" text-decoration="normal" x="477.1463784759453" y="1076.327687758909" text-anchor="start" dominant-baseline="alphabetic" xml:space="preserve">store selected event</text></g><g><path fill="none" stroke="black" paint-order="fill stroke markers" d=" M 457.0415128759453 1082.3591474389088 L 616.0056332447031 1082.3591474389088" stroke-miterlimit="10" stroke-width="1.2565541" stroke-dasharray=""/><g transform="translate(628.420387752703,1082.3591474389088) translate(-628.420387752703,-1082.3591474389088)"><path fill="black" stroke="none" paint-order="stroke fill markers" d=" M 615.854846752703 1076.0763769389089 L 628.420387752703 1082.3591474389088 L 615.854846752703 1088.6419179389088 Z"/></g></g><g><text fill="black" stroke="none" font-family="sans-serif" font-size="11pt" font-style="normal" font-weight="normal" text-decoration="normal" x="193.20623917166404" y="1118.547905518909" text-anchor="start" dominant-baseline="alphabetic" xml:space="preserve">QR scanner interface</text></g><g><path fill="none" stroke="black" paint-order="fill stroke markers" d=" M 457.0415128759453 1124.5793651989088 L 80.268675908 1124.5793651989088" stroke-miterlimit="10" stroke-width="1.2565541" stroke-dasharray=""/><g transform="translate(67.8539214,1124.5793651989088) translate(-67.8539214,-1124.5793651989088)"><path fill="black" stroke="none" paint-order="stroke fill markers" d=" M 80.4194624 1118.2965946989088 L 67.8539214 1124.5793651989088 L 80.4194624 1130.8621356989088 Z"/></g></g><g><text fill="black" stroke="none" font-family="sans-serif" font-size="11pt" font-style="normal" font-weight="normal" text-decoration="normal" x="216.01359695974998" y="1160.768123278909" text-anchor="start" dominant-baseline="alphabetic" xml:space="preserve">scan QR code</text></g><g><path fill="none" stroke="black" paint-order="fill stroke markers" d=" M 67.8539214 1166.7995829589088 L 444.6267583679453 1166.7995829589088" stroke-miterlimit="10" stroke-width="1.2565541" stroke-dasharray=""/><g transform="translate(457.0415128759453,1166.7995829589088) translate(-457.0415128759453,-1166.7995829589088)"><path fill="black" stroke="none" paint-order="stroke fill markers" d=" M 444.4759718759453 1160.5168124589088 L 457.0415128759453 1166.7995829589088 L 444.4759718759453 1173.0823534589088 Z"/></g></g><g><text fill="black" stroke="none" font-family="sans-serif" font-size="11pt" font-style="normal" font-weight="normal" text-decoration="normal" x="488.96870513610156" y="1202.9883410389089" text-anchor="start" dominant-baseline="alphabetic" xml:space="preserve">store scan result</text></g><g><path fill="none" stroke="black" paint-order="fill stroke markers" d=" M 457.0415128759453 1209.0198007189088 L 616.0056332447031 1209.0198007189088" stroke-miterlimit="10" stroke-width="1.2565541" stroke-dasharray=""/><g transform="translate(628.420387752703,1209.0198007189088) translate(-628.420387752703,-1209.0198007189088)"><path fill="black" stroke="none" paint-order="stroke fill markers" d=" M 615.854846752703 1202.7370302189088 L 628.420387752703 1209.0198007189088 L 615.854846752703 1215.3025712189087 Z"/></g></g><g><text fill="black" stroke="none" font-family="sans-serif" font-size="11pt" font-style="normal" font-weight="normal" text-decoration="normal" x="854.4704712289629" y="1245.2085587989088" text-anchor="start" dominant-baseline="alphabetic" xml:space="preserve">Send event DAVINCI_QR_CODE_VALIDATOR_CHECK</text></g><g><path fill="none" stroke="black" paint-order="fill stroke markers" d=" M 628.420387752703 1251.2400184789087 L 1433.5593829608947 1251.2400184789087" stroke-miterlimit="10" stroke-width="1.2565541" stroke-dasharray=""/><g transform="translate(1445.9741374688947,1251.2400184789087) translate(-1445.9741374688947,-1251.2400184789087)"><path fill="black" stroke="none" paint-order="stroke fill markers" d=" M 1433.4085964688948 1244.9572479789088 L 1445.9741374688947 1251.2400184789087 L 1433.4085964688948 1257.5227889789087 Z"/></g></g><g><text fill="black" stroke="none" font-family="sans-serif" font-size="11pt" font-style="normal" font-weight="normal" text-decoration="normal" x="1704.722535219254" y="1287.4287765589088" text-anchor="start" dominant-baseline="alphabetic" xml:space="preserve">qr code data</text></g><g><path fill="none" stroke="black" paint-order="fill stroke markers" d=" M 1445.9741374688947 1293.4602362389087 L 2032.5386308541918 1293.4602362389087" stroke-miterlimit="10" stroke-width="1.2565541" stroke-dasharray=""/><g transform="translate(2044.9533853621917,1293.4602362389087) translate(-2044.9533853621917,-1293.4602362389087)"><path fill="black" stroke="none" paint-order="stroke fill markers" d=" M 2032.3878443621918 1287.1774657389087 L 2044.9533853621917 1293.4602362389087 L 2032.3878443621918 1299.7430067389087 Z"/></g></g><g><text fill="black" stroke="none" font-family="sans-serif" font-size="11pt" font-style="normal" font-weight="normal" text-decoration="normal" x="2065.058250962192" y="1329.6489943189088" text-anchor="start" dominant-baseline="alphabetic" xml:space="preserve">ask previous reques of DAVINCI_QR_CODE_VALIDATOR_USE_TICKET event</text></g><g><path fill="none" stroke="black" paint-order="fill stroke markers" d=" M 2044.9533853621917 1335.6804539989087 L 2590.525339593254 1335.6804539989087" stroke-miterlimit="10" stroke-width="1.2565541" stroke-dasharray=""/><g transform="translate(2602.940094101254,1335.6804539989087) translate(-2602.940094101254,-1335.6804539989087)"><path fill="black" stroke="none" paint-order="stroke fill markers" d=" M 2590.374553101254 1329.3976834989087 L 2602.940094101254 1335.6804539989087 L 2590.374553101254 1341.9632244989086 Z"/></g></g><g><text fill="black" stroke="none" font-family="sans-serif" font-size="11pt" font-style="normal" font-weight="normal" text-decoration="normal" x="2303.9911962136566" y="1371.8692120789087" text-anchor="start" dominant-baseline="alphabetic" xml:space="preserve">result </text></g><g><path fill="none" stroke="black" paint-order="fill stroke markers" d=" M 2602.940094101254 1377.9006717589086 L 2057.368139870192 1377.9006717589086" stroke-miterlimit="10" stroke-width="1.2565541" stroke-dasharray=""/><g transform="translate(2044.9533853621917,1377.9006717589086) translate(-2044.9533853621917,-1377.9006717589086)"><path fill="black" stroke="none" paint-order="stroke fill markers" d=" M 2057.518926362192 1371.6179012589087 L 2044.9533853621917 1377.9006717589086 L 2057.518926362192 1384.1834422589086 Z"/></g></g><g><text fill="black" stroke="none" font-family="sans-serif" font-size="11pt" font-style="normal" font-weight="normal" text-decoration="normal" x="1855.5635839857582" y="1414.0894298389087" text-anchor="start" dominant-baseline="alphabetic" xml:space="preserve">result </text></g><g><path fill="none" stroke="black" paint-order="fill stroke markers" d=" M 2044.9533853621917 1420.1208895189086 L 1718.4996241534573 1420.1208895189086" stroke-miterlimit="10" stroke-width="1.2565541" stroke-dasharray=""/><g transform="translate(1706.0848696454573,1420.1208895189086) translate(-1706.0848696454573,-1420.1208895189086)"><path fill="black" stroke="none" paint-order="stroke fill markers" d=" M 1718.6504106454572 1413.8381190189086 L 1706.0848696454573 1420.1208895189086 L 1718.6504106454572 1426.4036600189086 Z"/></g></g><g><text fill="black" stroke="none" font-family="sans-serif" font-size="11pt" font-style="normal" font-weight="normal" text-decoration="normal" x="1503.9505240649885" y="1456.3096475989087" text-anchor="start" dominant-baseline="alphabetic" xml:space="preserve">result in JSON format </text></g><g><path fill="none" stroke="black" paint-order="fill stroke markers" d=" M 1706.0848696454573 1462.3411072789086 L 1458.3888919768947 1462.3411072789086" stroke-miterlimit="10" stroke-width="1.2565541" stroke-dasharray=""/><g transform="translate(1445.9741374688947,1462.3411072789086) translate(-1445.9741374688947,-1462.3411072789086)"><path fill="black" stroke="none" paint-order="stroke fill markers" d=" M 1458.5396784688946 1456.0583367789086 L 1445.9741374688947 1462.3411072789086 L 1458.5396784688946 1468.6238777789085 Z"/></g></g><g><text fill="black" stroke="none" font-family="sans-serif" font-size="11pt" font-style="normal" font-weight="normal" text-decoration="normal" x="950.4298294442949" y="1498.5298653589086" text-anchor="start" dominant-baseline="alphabetic" xml:space="preserve">notify about vildation result</text></g><g><path fill="none" stroke="black" paint-order="fill stroke markers" d=" M 1445.9741374688947 1504.5613250389085 L 640.835142260703 1504.5613250389085" stroke-miterlimit="10" stroke-width="1.2565541" stroke-dasharray=""/><g transform="translate(628.420387752703,1504.5613250389085) translate(-628.420387752703,-1504.5613250389085)"><path fill="black" stroke="none" paint-order="stroke fill markers" d=" M 640.9859287527031 1498.2785545389086 L 628.420387752703 1504.5613250389085 L 640.9859287527031 1510.8440955389085 Z"/></g></g><g><text fill="black" stroke="none" font-family="sans-serif" font-size="11pt" font-style="normal" font-weight="normal" text-decoration="normal" x="176.91475815359763" y="1540.7500831189086" text-anchor="start" dominant-baseline="alphabetic" xml:space="preserve">show QR code scan result</text></g><g><path fill="none" stroke="black" paint-order="fill stroke markers" d=" M 457.0415128759453 1546.7815427989085 L 80.268675908 1546.7815427989085" stroke-miterlimit="10" stroke-width="1.2565541" stroke-dasharray=""/><g transform="translate(67.8539214,1546.7815427989085) translate(-67.8539214,-1546.7815427989085)"><path fill="black" stroke="none" paint-order="stroke fill markers" d=" M 80.4194624 1540.4987722989085 L 67.8539214 1546.7815427989085 L 80.4194624 1553.0643132989085 Z"/></g></g><g><text fill="black" stroke="none" font-family="sans-serif" font-size="11pt" font-style="normal" font-weight="normal" text-decoration="normal" x="126.82373184744529" y="1623.6826537189086" text-anchor="start" dominant-baseline="alphabetic" xml:space="preserve">show error window with an error message</text></g><g><path fill="none" stroke="black" paint-order="fill stroke markers" d=" M 457.0415128759453 1629.7141133989085 L 80.268675908 1629.7141133989085" stroke-miterlimit="10" stroke-width="1.2565541" stroke-dasharray=""/><g transform="translate(67.8539214,1629.7141133989085) translate(-67.8539214,-1629.7141133989085)"><path fill="black" stroke="none" paint-order="stroke fill markers" d=" M 80.4194624 1623.4313428989085 L 67.8539214 1629.7141133989085 L 80.4194624 1635.9968838989084 Z"/></g></g><g><text fill="black" stroke="none" font-family="sans-serif" font-size="11pt" font-style="normal" font-weight="normal" text-decoration="normal" x="172.84278244558982" y="1706.6152243189085" text-anchor="start" dominant-baseline="alphabetic" xml:space="preserve">show success scan window</text></g><g><path fill="none" stroke="black" paint-order="fill stroke markers" d=" M 457.0415128759453 1712.6466839989084 L 80.268675908 1712.6466839989084" stroke-miterlimit="10" stroke-width="1.2565541" stroke-dasharray=""/><g transform="translate(67.8539214,1712.6466839989084) translate(-67.8539214,-1712.6466839989084)"><path fill="black" stroke="none" paint-order="stroke fill markers" d=" M 80.4194624 1706.3639134989085 L 67.8539214 1712.6466839989084 L 80.4194624 1718.9294544989084 Z"/></g></g><g><text fill="black" stroke="none" font-family="sans-serif" font-size="11pt" font-style="normal" font-weight="normal" text-decoration="normal" x="166.00844711844138" y="1748.8354420789085" text-anchor="start" dominant-baseline="alphabetic" xml:space="preserve">click to the button "Use ticket"</text></g><g><path fill="none" stroke="black" paint-order="fill stroke markers" d=" M 67.8539214 1754.8669017589084 L 444.6267583679453 1754.8669017589084" stroke-miterlimit="10" stroke-width="1.2565541" stroke-dasharray=""/><g transform="translate(457.0415128759453,1754.8669017589084) translate(-457.0415128759453,-1754.8669017589084)"><path fill="black" stroke="none" paint-order="stroke fill markers" d=" M 444.4759718759453 1748.5841312589084 L 457.0415128759453 1754.8669017589084 L 444.4759718759453 1761.1496722589084 Z"/></g></g><g><text fill="black" stroke="none" font-family="sans-serif" font-size="11pt" font-style="normal" font-weight="normal" text-decoration="normal" x="491.4090280120781" y="1791.0556598389085" text-anchor="start" dominant-baseline="alphabetic" xml:space="preserve">user ticket even</text></g><g><path fill="none" stroke="black" paint-order="fill stroke markers" d=" M 457.0415128759453 1797.0871195189084 L 616.0056332447031 1797.0871195189084" stroke-miterlimit="10" stroke-width="1.2565541" stroke-dasharray=""/><g transform="translate(628.420387752703,1797.0871195189084) translate(-628.420387752703,-1797.0871195189084)"><path fill="black" stroke="none" paint-order="stroke fill markers" d=" M 615.854846752703 1790.8043490189084 L 628.420387752703 1797.0871195189084 L 615.854846752703 1803.3698900189083 Z"/></g></g><g><text fill="black" stroke="none" font-family="sans-serif" font-size="11pt" font-style="normal" font-weight="normal" text-decoration="normal" x="834.9228332895098" y="1833.2758775989084" text-anchor="start" dominant-baseline="alphabetic" xml:space="preserve">Send event DAVINCI_QR_CODE_VALIDATOR_USE_TICKET</text></g><g><path fill="none" stroke="black" paint-order="fill stroke markers" d=" M 628.420387752703 1839.3073372789083 L 1433.5593829608947 1839.3073372789083" stroke-miterlimit="10" stroke-width="1.2565541" stroke-dasharray=""/><g transform="translate(1445.9741374688947,1839.3073372789083) translate(-1445.9741374688947,-1839.3073372789083)"><path fill="black" stroke="none" paint-order="stroke fill markers" d=" M 1433.4085964688948 1833.0245667789084 L 1445.9741374688947 1839.3073372789083 L 1433.4085964688948 1845.5901077789083 Z"/></g></g><g><text fill="black" stroke="none" font-family="sans-serif" font-size="11pt" font-style="normal" font-weight="normal" text-decoration="normal" x="1754.572876588297" y="1875.4960953589084" text-anchor="start" dominant-baseline="alphabetic" xml:space="preserve">save data of this request (DAVINCI_QR_CODE_VALIDATOR_USE_TICKET event)</text></g><g><path fill="none" stroke="black" paint-order="fill stroke markers" d=" M 1445.9741374688947 1881.5275550389083 L 2590.525339593254 1881.5275550389083" stroke-miterlimit="10" stroke-width="1.2565541" stroke-dasharray=""/><g transform="translate(2602.940094101254,1881.5275550389083) translate(-2602.940094101254,-1881.5275550389083)"><path fill="black" stroke="none" paint-order="stroke fill markers" d=" M 2590.374553101254 1875.2447845389083 L 2602.940094101254 1881.5275550389083 L 2590.374553101254 1887.8103255389083 Z"/></g></g><g><text fill="black" stroke="none" font-family="sans-serif" font-size="11pt" font-style="normal" font-weight="normal" text-decoration="normal" x="1851.5580719621253" y="1917.7163131189084" text-anchor="start" dominant-baseline="alphabetic" xml:space="preserve">ticket data</text></g><g><path fill="none" stroke="black" paint-order="fill stroke markers" d=" M 1445.9741374688947 1923.7477727989083 L 2311.531985223723 1923.7477727989083" stroke-miterlimit="10" stroke-width="1.2565541" stroke-dasharray=""/><g transform="translate(2323.946739731723,1923.7477727989083) translate(-2323.946739731723,-1923.7477727989083)"><path fill="black" stroke="none" paint-order="stroke fill markers" d=" M 2311.381198731723 1917.4650022989083 L 2323.946739731723 1923.7477727989083 L 2311.381198731723 1930.0305432989082 Z"/></g></g><g><text fill="black" stroke="none" font-family="sans-serif" font-size="11pt" font-style="normal" font-weight="normal" text-decoration="normal" x="1995.0602611705237" y="1959.9365308789083" text-anchor="start" dominant-baseline="alphabetic" xml:space="preserve">result </text></g><g><path fill="none" stroke="black" paint-order="fill stroke markers" d=" M 2323.946739731723 1965.9679905589082 L 1718.4996241534573 1965.9679905589082" stroke-miterlimit="10" stroke-width="1.2565541" stroke-dasharray=""/><g transform="translate(1706.0848696454573,1965.9679905589082) translate(-1706.0848696454573,-1965.9679905589082)"><path fill="black" stroke="none" paint-order="stroke fill markers" d=" M 1718.6504106454572 1959.6852200589083 L 1706.0848696454573 1965.9679905589082 L 1718.6504106454572 1972.2507610589082 Z"/></g></g><g><text fill="black" stroke="none" font-family="sans-serif" font-size="11pt" font-style="normal" font-weight="normal" text-decoration="normal" x="1503.9505240649885" y="2002.1567486389083" text-anchor="start" dominant-baseline="alphabetic" xml:space="preserve">result in JSON format </text></g><g><path fill="none" stroke="black" paint-order="fill stroke markers" d=" M 1706.0848696454573 2008.1882083189082 L 1458.3888919768947 2008.1882083189082" stroke-miterlimit="10" stroke-width="1.2565541" stroke-dasharray=""/><g transform="translate(1445.9741374688947,2008.1882083189082) translate(-1445.9741374688947,-2008.1882083189082)"><path fill="black" stroke="none" paint-order="stroke fill markers" d=" M 1458.5396784688946 2001.9054378189082 L 1445.9741374688947 2008.1882083189082 L 1458.5396784688946 2014.4709788189082 Z"/></g></g><g><text fill="black" stroke="none" font-family="sans-serif" font-size="11pt" font-style="normal" font-weight="normal" text-decoration="normal" x="950.4298294442949" y="2044.3769663989083" text-anchor="start" dominant-baseline="alphabetic" xml:space="preserve">notify about vildation result</text></g><g><path fill="none" stroke="black" paint-order="fill stroke markers" d=" M 1445.9741374688947 2050.408426078908 L 640.835142260703 2050.408426078908" stroke-miterlimit="10" stroke-width="1.2565541" stroke-dasharray=""/><g transform="translate(628.420387752703,2050.408426078908) translate(-628.420387752703,-2050.408426078908)"><path fill="black" stroke="none" paint-order="stroke fill markers" d=" M 640.9859287527031 2044.1256555789082 L 628.420387752703 2050.408426078908 L 640.9859287527031 2056.691196578908 Z"/></g></g><g><text fill="black" stroke="none" font-family="sans-serif" font-size="11pt" font-style="normal" font-weight="normal" text-decoration="normal" x="132.92811722342185" y="2086.5971841589085" text-anchor="start" dominant-baseline="alphabetic" xml:space="preserve">activate QR scanner for scan next ticket</text></g><g><path fill="none" stroke="black" paint-order="fill stroke markers" d=" M 457.0415128759453 2092.6286438389084 L 80.268675908 2092.6286438389084" stroke-miterlimit="10" stroke-width="1.2565541" stroke-dasharray=""/><g transform="translate(67.8539214,2092.6286438389084) translate(-67.8539214,-2092.6286438389084)"><path fill="black" stroke="none" paint-order="stroke fill markers" d=" M 80.4194624 2086.3458733389084 L 67.8539214 2092.6286438389084 L 80.4194624 2098.9114143389083 Z"/></g></g><g><g/><path fill="none" stroke="black" paint-order="fill stroke markers" d=" M 15.078649200000001 1569.3995165989086 L 2655.715366301254 1569.3995165989086 L 2655.715366301254 2115.2466176389084 L 15.078649200000001 2115.2466176389084 L 15.078649200000001 1569.3995165989086 Z" stroke-miterlimit="10" stroke-width="2.154092742857143" stroke-dasharray=""/><path fill="white" stroke="black" paint-order="fill stroke markers" d=" M 15.078649200000001 1569.3995165989086 L 15.078649200000001 1587.4938956389085 L 58.91163729726563 1587.4938956389085 L 67.95882681726563 1578.4467061189087 L 67.95882681726563 1569.3995165989086 L 15.078649200000001 1569.3995165989086" stroke-miterlimit="10" stroke-width="2.154092742857143" stroke-dasharray=""/><text fill="black" stroke="none" font-family="sans-serif" font-size="8.8pt" font-style="normal" font-weight="bold" text-decoration="normal" x="30.157298400000002" y="1581.4624359589086" text-anchor="start" dominant-baseline="alphabetic" xml:space="preserve">alt</text><g><rect fill="white" stroke="none" x="80.77567863726563" y="1570.6058085349086" width="116.56125345140624" height="15.681795168000004"/></g><text fill="black" stroke="none" font-family="sans-serif" font-size="8.8pt" font-style="normal" font-weight="bold" text-decoration="normal" x="83.03747601726563" y="1581.4624359589086" text-anchor="start" dominant-baseline="alphabetic" xml:space="preserve">[case result is false]</text><g><path fill="none" stroke="black" paint-order="fill stroke markers" d=" M 15.078649200000001 1652.3320871989085 L 2655.715366301254 1652.3320871989085" stroke-miterlimit="10" stroke-width="2.154092742857143" stroke-dasharray="3.7696623000000002"/></g><g/><g><rect fill="white" stroke="none" x="80.77567863726563" y="1653.5383791349086" width="136.1134842863672" height="15.681795168000004"/></g><text fill="black" stroke="none" font-family="sans-serif" font-size="8.8pt" font-style="normal" font-weight="bold" text-decoration="normal" x="83.03747601726563" y="1664.3950065589086" text-anchor="start" dominant-baseline="alphabetic" xml:space="preserve">[case result is success]</text></g><g/></g><g/><g/><g/><g/><g/><g/><g/><g/><g/><g/><g/><g/><g/></g></svg>