<svg version="1.1" xmlns="http://www.w3.org/2000/svg" xmlns:xlink="http://www.w3.org/1999/xlink" width="2424" height="2048"><desc>title%20QR%20Scanner%20full%20flow%0A%0Aactor%20Staff%20Persona%0A%0Aparticipantgroup%20%23c4b4f1%20QR%20Scanner%20React%20Application%0Aparticipant%20UI%20interface%0Aparticipant%20MobX%20Store%0Aparticipant%20QR%20Code%20scanner%20library%0Aparticipantgroup%20API%20layer%0Aparticipant%20Indentity%20service%0Aparticipant%20BFF%20service%0Aend%0Aparticipant%20RXB%20SDK%20instance%0Aparticipantgroup%20%23lightblue%20RXB%20SDK%0Aparticipant%20RXB%20event%20bus%0Aparticipant%20JSON%20template%0Aparticipant%20Script%20Permission%0Aparticipant%20Script%20Check%20QR%20Code%0Aparticipant%20Script%20Use%20Ticket%0Adatabase%20Elastic%20Search%0Aend%0Aend%0A%0A%0A%0AStaff%20Persona-%3EUI%20interface%3A%20open%20UI%20in%20the%20first%20time%0AUI%20interface-%3EStaff%20Persona%3A%20ask%20email%0AStaff%20Persona-%3EUI%20interface%3A%20input%20email%0AUI%20interface-%3EMobX%20Store%3A%20store%20email%0AMobX%20Store-%3EIndentity%20service%3A%20Request%20OTP%0AIndentity%20service-%3EMobX%20Store%3A%20200%20OK%0AUI%20interface-%3EStaff%20Persona%3A%20ask%20OTP%0AStaff%20Persona-%3EUI%20interface%3A%20input%20OTP%0AUI%20interface-%3EMobX%20Store%3A%20OTP%20Code%0AMobX%20Store-%3ERXB%20SDK%20instance%3A%20authorization%20in%20SDK%0ARXB%20SDK%20instance-%3EMobX%20Store%3A%20return%20SDK%20instance%0AMobX%20Store-%3ERXB%20event%20bus%3A%20Send%20event%20DAVINCI_QR_CODE_VALIDATOR_PERMISSIONS%0ARXB%20event%20bus-%3EScript%20Permission%3A%20ask%20permissions%20%0AScript%20Permission-%3EJSON%20template%3A%20permissions%20array%20%0AJSON%20template-%3ERXB%20event%20bus%3A%20permissions%20array%20in%20JSON%20format%0ARXB%20event%20bus-%3EMobX%20Store%3A%20notify%20about%20available%20permissions%20by%20subscription%20event%0AMobX%20Store-%3EBFF%20service%3A%20enrich%20data%20of%20availalbe%20events%0ABFF%20service-%3EMobX%20Store%3A%20return%20enriched%20data%0AUI%20interface-%3EStaff%20Persona%3A%20show%20event%20list%20and%20ask%20event%20to%20choose%20one%0AStaff%20Persona-%3EUI%20interface%3A%20select%20event%0AUI%20interface-%3EMobX%20Store%3A%20store%20selected%20event%0AUI%20interface-%3EStaff%20Persona%3A%20QR%20scanner%20interface%0AStaff%20Persona-%3EUI%20interface%3A%20scan%20QR%20code%0AUI%20interface-%3EMobX%20Store%3A%20store%20scan%20result%0AMobX%20Store-%3ERXB%20event%20bus%3A%20Send%20event%20DAVINCI_QR_CODE_VALIDATOR_CHECK%0ARXB%20event%20bus-%3EScript%20Check%20QR%20Code%3A%20qr%20code%20data%0AScript%20Check%20QR%20Code-%3EJSON%20template%3A%20result%20%0AJSON%20template-%3ERXB%20event%20bus%3A%20result%20in%20JSON%20format%20%0ARXB%20event%20bus-%3EMobX%20Store%3A%20notify%20about%20vildation%20result%0A%0AUI%20interface-%3EStaff%20Persona%3A%20show%20QR%20code%20scan%20result%0A%0Aalt%20case%20result%20is%20false%0AUI%20interface-%3EStaff%20Persona%3Ashow%20error%20window%20with%20an%20error%20message%0Aelse%20case%20result%20is%20success%0AUI%20interface-%3EStaff%20Persona%3Ashow%20success%20scan%20window%0AStaff%20Persona-%3EUI%20interface%3A%20click%20to%20the%20button%20%22Use%20ticket%22%0AUI%20interface-%3EMobX%20Store%3A%20user%20ticket%20even%0AMobX%20Store-%3ERXB%20event%20bus%3A%20Send%20event%20DAVINCI_QR_CODE_VALIDATOR_USE_TICKET%0A%0A%0ARXB%20event%20bus-%3EScript%20Use%20Ticket%3A%20ticket%20data%0AScript%20Use%20Ticket-%3EJSON%20template%3A%20result%20%0AJSON%20template-%3ERXB%20event%20bus%3A%20result%20in%20JSON%20format%20%0ARXB%20event%20bus-%3EMobX%20Store%3A%20notify%20about%20vildation%20result%0AUI%20interface-%3EStaff%20Persona%3A%20activate%20QR%20scanner%20for%20scan%20next%20ticket%0Aend%0A%0A%0A</desc><defs/><g><g/><g/><g/><g/><g/><g/><g/><g/><g/><g/><g/><g/><g/><g/><g/><g/><g/><g/><g/><g/><g/><g/><g/><g/><g/><g/><g/><g/><g/><g/><g/><g/><g/><g/><g/><g/><g/><g/><g/><g/><g/><g/><g/><g/><g/><g/><g/><g/><g/><g/><g/><g/><g/><g/><g/><g/><g/><g/><g/><g/><g/><g/><g/><g/><g/><g/><g/><g/><g/><g/><g/><g/><g/><g/><g/><g/><g/><g/><g/><g/><g/><g/><g/><g/><g/><g/><g/><g/><g/><g/><g/><g/><g/><g/><g/><g/><g/><g/><g/><g/><g/><g/><g/><g/><g/><g/><g/><g/><g/><g/><g/><g/><g/><g/><g/><g/><g/><g/><g/><g/><g/><g/><g/><g/><g/><g/><g/><g/><g/><g/><g/><g/><g/><g/><g/><g/><g/><g/><g/><g/><g/><g/><g/><g/><g/><g/><g/><g/><g/><g/><g/><g/><g/><g/><g/><g/><g/><g/><g/><g/><g/><g/><g/><g/><g/><g/><g/><g/><g/><g/><g/><g/><g/><g/><g/><g/><g/><g/><g/><g/><g/><g/><g/><g/><g/><g/><g/><g/><g/><g/><g/><g/><g/><g/><g/><g/><g/><g/><g/><g/><g/><g/><g/><g/><g/><g/><g/><g/><g/><g/><g/><g/><g/><g/><g/><g/><g/><g/><g/><g/><g/><g/><g/><g/><g/><g/><g/><g/><g/><g/><g/><g/><g/><g/><g/><g/><g/><g/><g/><g/><g/><g/><g/><g/><g/><g/><g/><g/><g/><g/><g/><g/><g/><g/><g/><g/><g/><g/><g/><g/><g/><g/><g/><g/><g/><g/><g/><g/><g/><g/><g/><g/><g/><g/><g/><g/><g/><g/><g/><g/><g/><g/><g/><g/><g/><g/><g/><g/><g/><g/><g/><g/><g/><g/><g/><g/><g/><g/><g/><g/><g/><g/><g/><g/><g/><g/><g/><g/><g/><g/><g/><g/><g/><g/><g><rect fill="white" stroke="none" x="0" y="0" width="2424" height="2048"/></g><g><g><path fill="#c4b4f1" stroke="black" paint-order="fill stroke markers" d=" M 395.671089733789 46.380554152909085 L 2417.2845191526253 46.380554152909085 L 2417.2845191526253 2041.3612365589083 L 395.671089733789 2041.3612365589083 L 395.671089733789 46.380554152909085 Z" stroke-miterlimit="10" stroke-width="1.2565541" stroke-dasharray=""/></g><g><text fill="black" stroke="none" font-family="sans-serif" font-size="11pt" font-style="normal" font-weight="normal" text-decoration="normal" x="1307.090109130707" y="67.49066303290908" text-anchor="start" dominant-baseline="alphabetic" xml:space="preserve">QR Scanner React Application</text></g><g><path fill="none" stroke="black" paint-order="fill stroke markers" d=" M 907.6363504315156 111.52031869690909 L 1187.3111887520938 111.52031869690909 L 1187.3111887520938 2041.3612365589083 L 907.6363504315156 2041.3612365589083 L 907.6363504315156 111.52031869690909 Z" stroke-miterlimit="10" stroke-width="1.2565541" stroke-dasharray=""/></g><g><text fill="black" stroke="none" font-family="sans-serif" font-size="11pt" font-style="normal" font-weight="normal" text-decoration="normal" x="1017.7426218256915" y="132.63042757690909" text-anchor="start" dominant-baseline="alphabetic" xml:space="preserve">API layer</text></g><g><path fill="lightblue" stroke="black" paint-order="fill stroke markers" d=" M 1373.192879060625 81.06144731290908 L 2409.745194552625 81.06144731290908 L 2409.745194552625 2041.3612365589083 L 1373.192879060625 2041.3612365589083 L 1373.192879060625 81.06144731290908 Z" stroke-miterlimit="10" stroke-width="1.2565541" stroke-dasharray=""/></g><g><text fill="black" stroke="none" font-family="sans-serif" font-size="11pt" font-style="normal" font-weight="normal" text-decoration="normal" x="1859.297566164535" y="102.17155619290908" text-anchor="start" dominant-baseline="alphabetic" xml:space="preserve">RXB SDK</text></g></g><g><path fill="none" stroke="black" paint-order="fill stroke markers" d=" M 67.8539214 188.19524987890912 L 67.8539214 2041.3612365589083" stroke-miterlimit="10" stroke-width="1.2565541" stroke-dasharray="11.598960923076923,5.0262164"/><path fill="none" stroke="black" paint-order="fill stroke markers" d=" M 457.0415128759453 188.19524987890912 L 457.0415128759453 2041.3612365589083" stroke-miterlimit="10" stroke-width="1.2565541" stroke-dasharray="11.598960923076923,5.0262164"/><path fill="none" stroke="black" paint-order="fill stroke markers" d=" M 628.420387752703 188.19524987890912 L 628.420387752703 2041.3612365589083" stroke-miterlimit="10" stroke-width="1.2565541" stroke-dasharray="11.598960923076923,5.0262164"/><path fill="none" stroke="black" paint-order="fill stroke markers" d=" M 795.5557881751992 188.19524987890912 L 795.5557881751992 2041.3612365589083" stroke-miterlimit="10" stroke-width="1.2565541" stroke-dasharray="11.598960923076923,5.0262164"/><path fill="none" stroke="black" paint-order="fill stroke markers" d=" M 984.4860063617577 188.19524987890912 L 984.4860063617577 2041.3612365589083" stroke-miterlimit="10" stroke-width="1.2565541" stroke-dasharray="11.598960923076923,5.0262164"/><path fill="none" stroke="black" paint-order="fill stroke markers" d=" M 1124.3234255220468 188.19524987890912 L 1124.3234255220468 2041.3612365589083" stroke-miterlimit="10" stroke-width="1.2565541" stroke-dasharray="11.598960923076923,5.0262164"/><path fill="none" stroke="black" paint-order="fill stroke markers" d=" M 1280.2520339063594 188.19524987890912 L 1280.2520339063594 2041.3612365589083" stroke-miterlimit="10" stroke-width="1.2565541" stroke-dasharray="11.598960923076923,5.0262164"/><path fill="none" stroke="black" paint-order="fill stroke markers" d=" M 1445.9741374688947 188.19524987890912 L 1445.9741374688947 2041.3612365589083" stroke-miterlimit="10" stroke-width="1.2565541" stroke-dasharray="11.598960923076923,5.0262164"/><path fill="none" stroke="black" paint-order="fill stroke markers" d=" M 1706.0848696454573 188.19524987890912 L 1706.0848696454573 2041.3612365589083" stroke-miterlimit="10" stroke-width="1.2565541" stroke-dasharray="11.598960923076923,5.0262164"/><path fill="none" stroke="black" paint-order="fill stroke markers" d=" M 1866.0207055817855 188.19524987890912 L 1866.0207055817855 2041.3612365589083" stroke-miterlimit="10" stroke-width="1.2565541" stroke-dasharray="11.598960923076923,5.0262164"/><path fill="none" stroke="black" paint-order="fill stroke markers" d=" M 2044.9533853621917 188.19524987890912 L 2044.9533853621917 2041.3612365589083" stroke-miterlimit="10" stroke-width="1.2565541" stroke-dasharray="11.598960923076923,5.0262164"/><path fill="none" stroke="black" paint-order="fill stroke markers" d=" M 2221.982401507344 188.19524987890912 L 2221.982401507344 2041.3612365589083" stroke-miterlimit="10" stroke-width="1.2565541" stroke-dasharray="11.598960923076923,5.0262164"/><path fill="none" stroke="black" paint-order="fill stroke markers" d=" M 2355.36741475243 188.19524987890912 L 2355.36741475243 2041.3612365589083" stroke-miterlimit="10" stroke-width="1.2565541" stroke-dasharray="11.598960923076923,5.0262164"/></g><g><g><path fill="white" stroke="black" paint-order="fill stroke markers" d=" M 76.44875144400001 124.41256376290912 A 8.594830044 8.594830044 0 1 1 76.44874714658533 124.40396893429758 M 67.8539214 133.0073938069091 L 67.8539214 151.4033458309091 M 56.997293976 139.64199945490913 L 78.710548824 139.64199945490913 M 67.8539214 151.4033458309091 L 56.997293976 168.5930059189091 M 67.8539214 151.4033458309091 L 78.710548824 168.5930059189091" stroke-miterlimit="10" stroke-width="2.5633703640000003" stroke-dasharray=""/></g><g><g/><text fill="black" stroke="none" font-family="sans-serif" font-size="11pt" font-style="normal" font-weight="normal" text-decoration="normal" x="23.584634290625004" y="183.67165511890911" text-anchor="start" dominant-baseline="alphabetic" xml:space="preserve">Staff Persona</text></g><path fill="none" stroke="none"/><g><path fill="white" stroke="black" paint-order="fill stroke markers" d=" M 403.210414333789 147.48289703890913 L 510.8726114181015 147.48289703890913 L 510.8726114181015 188.19524987890912 L 403.210414333789 188.19524987890912 L 403.210414333789 147.48289703890913 Z" stroke-miterlimit="10" stroke-width="2.4125838720000004" stroke-dasharray=""/></g><g><g/><text fill="black" stroke="none" font-family="sans-serif" font-size="11pt" font-style="normal" font-weight="normal" text-decoration="normal" x="419.570748715789" y="173.11660067890912" text-anchor="start" dominant-baseline="alphabetic" xml:space="preserve">UI interface</text></g><path fill="none" stroke="none"/><g><path fill="white" stroke="black" paint-order="fill stroke markers" d=" M 573.3655495865233 147.48289703890913 L 683.4752259188828 147.48289703890913 L 683.4752259188828 188.19524987890912 L 573.3655495865233 188.19524987890912 L 573.3655495865233 147.48289703890913 Z" stroke-miterlimit="10" stroke-width="2.4125838720000004" stroke-dasharray=""/></g><g><g/><text fill="black" stroke="none" font-family="sans-serif" font-size="11pt" font-style="normal" font-weight="normal" text-decoration="normal" x="589.7258839685234" y="173.11660067890912" text-anchor="start" dominant-baseline="alphabetic" xml:space="preserve">MobX Store</text></g><path fill="none" stroke="none"/><g><path fill="white" stroke="black" paint-order="fill stroke markers" d=" M 698.5538751188827 147.48289703890913 L 892.5577012315156 147.48289703890913 L 892.5577012315156 188.19524987890912 L 698.5538751188827 188.19524987890912 L 698.5538751188827 147.48289703890913 Z" stroke-miterlimit="10" stroke-width="2.4125838720000004" stroke-dasharray=""/></g><g><g/><text fill="black" stroke="none" font-family="sans-serif" font-size="11pt" font-style="normal" font-weight="normal" text-decoration="normal" x="714.9142095008827" y="173.11660067890912" text-anchor="start" dominant-baseline="alphabetic" xml:space="preserve">QR Code scanner library</text></g><path fill="none" stroke="none"/><g><path fill="white" stroke="black" paint-order="fill stroke markers" d=" M 915.1756750315155 147.48289703890913 L 1053.796337692 147.48289703890913 L 1053.796337692 188.19524987890912 L 915.1756750315155 188.19524987890912 L 915.1756750315155 147.48289703890913 Z" stroke-miterlimit="10" stroke-width="2.4125838720000004" stroke-dasharray=""/></g><g><g/><text fill="black" stroke="none" font-family="sans-serif" font-size="11pt" font-style="normal" font-weight="normal" text-decoration="normal" x="931.5360094135156" y="173.11660067890912" text-anchor="start" dominant-baseline="alphabetic" xml:space="preserve">Indentity service</text></g><path fill="none" stroke="none"/><g><path fill="white" stroke="black" paint-order="fill stroke markers" d=" M 1068.874986892 147.48289703890913 L 1179.7718641520937 147.48289703890913 L 1179.7718641520937 188.19524987890912 L 1068.874986892 188.19524987890912 L 1068.874986892 147.48289703890913 Z" stroke-miterlimit="10" stroke-width="2.4125838720000004" stroke-dasharray=""/></g><g><g/><text fill="black" stroke="none" font-family="sans-serif" font-size="11pt" font-style="normal" font-weight="normal" text-decoration="normal" x="1085.235321274" y="173.11660067890912" text-anchor="start" dominant-baseline="alphabetic" xml:space="preserve">BFF service</text></g><path fill="none" stroke="none"/><g><path fill="white" stroke="black" paint-order="fill stroke markers" d=" M 1202.3898379520938 147.48289703890913 L 1358.114229860625 147.48289703890913 L 1358.114229860625 188.19524987890912 L 1202.3898379520938 188.19524987890912 L 1202.3898379520938 147.48289703890913 Z" stroke-miterlimit="10" stroke-width="2.4125838720000004" stroke-dasharray=""/></g><g><g/><text fill="black" stroke="none" font-family="sans-serif" font-size="11pt" font-style="normal" font-weight="normal" text-decoration="normal" x="1218.7501723340938" y="173.11660067890912" text-anchor="start" dominant-baseline="alphabetic" xml:space="preserve">RXB SDK instance</text></g><path fill="none" stroke="none"/><g><path fill="white" stroke="black" paint-order="fill stroke markers" d=" M 1380.7322036606251 147.48289703890913 L 1511.2160712771642 147.48289703890913 L 1511.2160712771642 188.19524987890912 L 1380.7322036606251 188.19524987890912 L 1380.7322036606251 147.48289703890913 Z" stroke-miterlimit="10" stroke-width="2.4125838720000004" stroke-dasharray=""/></g><g><g/><text fill="black" stroke="none" font-family="sans-serif" font-size="11pt" font-style="normal" font-weight="normal" text-decoration="normal" x="1397.0925380426252" y="173.11660067890912" text-anchor="start" dominant-baseline="alphabetic" xml:space="preserve">RXB event bus</text></g><path fill="none" stroke="none"/><g><path fill="white" stroke="black" paint-order="fill stroke markers" d=" M 1640.0378439792776 147.48289703890913 L 1772.131895311637 147.48289703890913 L 1772.131895311637 188.19524987890912 L 1640.0378439792776 188.19524987890912 L 1640.0378439792776 147.48289703890913 Z" stroke-miterlimit="10" stroke-width="2.4125838720000004" stroke-dasharray=""/></g><g><g/><text fill="black" stroke="none" font-family="sans-serif" font-size="11pt" font-style="normal" font-weight="normal" text-decoration="normal" x="1656.3981783612776" y="173.11660067890912" text-anchor="start" dominant-baseline="alphabetic" xml:space="preserve">JSON template</text></g><path fill="none" stroke="none"/><g><path fill="white" stroke="black" paint-order="fill stroke markers" d=" M 1792.649133101641 147.48289703890913 L 1939.39227806193 147.48289703890913 L 1939.39227806193 188.19524987890912 L 1792.649133101641 188.19524987890912 L 1792.649133101641 147.48289703890913 Z" stroke-miterlimit="10" stroke-width="2.4125838720000004" stroke-dasharray=""/></g><g><g/><text fill="black" stroke="none" font-family="sans-serif" font-size="11pt" font-style="normal" font-weight="normal" text-decoration="normal" x="1809.009467483641" y="173.11660067890912" text-anchor="start" dominant-baseline="alphabetic" xml:space="preserve">Script Permission</text></g><path fill="none" stroke="none"/><g><path fill="white" stroke="black" paint-order="fill stroke markers" d=" M 1954.47092726193 147.48289703890913 L 2135.4358434624532 147.48289703890913 L 2135.4358434624532 188.19524987890912 L 1954.47092726193 188.19524987890912 L 1954.47092726193 147.48289703890913 Z" stroke-miterlimit="10" stroke-width="2.4125838720000004" stroke-dasharray=""/></g><g><g/><text fill="black" stroke="none" font-family="sans-serif" font-size="11pt" font-style="normal" font-weight="normal" text-decoration="normal" x="1970.83126164393" y="173.11660067890912" text-anchor="start" dominant-baseline="alphabetic" xml:space="preserve">Script Check QR Code</text></g><path fill="none" stroke="none"/><g><path fill="white" stroke="black" paint-order="fill stroke markers" d=" M 2150.5144926624534 147.48289703890913 L 2293.4503103522347 147.48289703890913 L 2293.4503103522347 188.19524987890912 L 2150.5144926624534 188.19524987890912 L 2150.5144926624534 147.48289703890913 Z" stroke-miterlimit="10" stroke-width="2.4125838720000004" stroke-dasharray=""/></g><g><g/><text fill="black" stroke="none" font-family="sans-serif" font-size="11pt" font-style="normal" font-weight="normal" text-decoration="normal" x="2166.8748270444535" y="173.11660067890912" text-anchor="start" dominant-baseline="alphabetic" xml:space="preserve">Script Use Ticket</text></g><g><path fill="white" stroke="black" paint-order="fill stroke markers" d=" M 2333.35258692043 158.6410974469091 L 2333.35258692043 126.97593412690911 L 2377.3822425844296 126.97593412690911 L 2377.3822425844296 158.6410974469091" stroke-miterlimit="10" stroke-width="2.5633703640000003" stroke-dasharray=""/><path fill="white" stroke="black" paint-order="fill stroke markers" d=" M 2377.3822425844296 125.87519273530911 L 2377.381141852211 125.974710161386 L 2377.377839765627 126.0742176358032 L 2377.3723366548834 126.1737052078962 L 2377.3646330702873 126.27316292899071 L 2377.35472978219 126.3725808533975 L 2377.3426277809126 126.47194903940697 L 2377.328328276645 126.5712575502833 L 2377.311832699326 126.67049645525822 L 2377.2931426984987 126.76965583052387 L 2377.2722601431483 126.86872576022539 L 2377.249187121513 126.96769633745235 L 2377.2239259408752 127.06655766522952 L 2377.1964791273326 127.16529985750651 L 2377.166849425543 127.26391304014636 L 2377.135039798453 127.36238735191299 L 2377.101053426997 127.46071294545727 L 2377.064893709786 127.55887998830181 L 2377.026564262759 127.65687866382412 L 2376.9860689188313 127.7546991722383 L 2376.9434117275023 127.85233173157505 L 2376.8985969544556 127.94976657865979 L 2376.851629081131 128.04699397008898 L 2376.8025128042773 128.14400418320454 L 2376.7512530354807 128.24078751706597 L 2376.697854900676 128.33733429342055 L 2376.642323739631 128.43363485767108 L 2376.584665105417 128.52967957984143 L 2376.5248847638486 128.62545885553936 L 2376.46298869291 128.72096310691717 L 2376.3989830821574 128.8161827836293 L 2376.3328743320976 128.91110836378738 L 2376.264669053551 129.00573035491257 L 2376.194374066989 129.10003929488454 L 2376.121996401851 129.19402575288794 L 2376.0475432958438 129.28768033035524 L 2375.971022194215 129.38099366190679 L 2375.892440749012 129.47395641628717 L 2375.8118068183135 129.5665592972984 L 2375.7291284654457 129.65879304472955 L 2375.644413958174 129.75064843528278 L 2375.5576717678796 129.84211628349553 L 2375.4689105687085 129.9331874426592 L 2375.3781392367073 130.0238528057338 L 2375.285366848933 130.11410330625858 L 2375.1906026825473 130.20392991925868 L 2375.0938562138876 130.29332366214763 L 2374.9951371175207 130.38227559562569 L 2374.894455265274 130.47077682457356 L 2374.791820725248 130.5588184989422 L 2374.6872437608117 130.64639181463744 L 2374.580734829575 130.73348801440076 L 2374.4723045823407 130.82009838868473 L 2374.3619638620444 130.9062142765241 L 2374.249723702666 130.99182706640187 L 2374.1355953281277 131.07692819711033 L 2374.019590151172 131.16150915860743 L 2373.90171977222 131.2455614928674 L 2373.781995978211 131.32907679472694 L 2373.660430741425 131.41204671272544 L 2373.5370362182844 131.4944629499402 L 2373.4118247481383 131.57631726481623 L 2373.2848088520295 131.6576014719902 L 2373.1560012314417 131.7383074431092 L 2373.0254147670303 131.8184271076433 L 2372.8930625173316 131.89795245369285 L 2372.7589577174617 131.9768755287895 L 2372.623113777788 132.05518844069152 L 2372.4855442825915 132.13288335817302 L 2372.346262988707 132.20995251180693 L 2372.205283824148 132.28638819474213 L 2372.0626208867134 132.36218276347407 L 2371.9182884425777 132.43732863860896 L 2371.7723009248657 132.51181830562197 L 2371.624672932207 132.58564431560845 L 2371.4754192272776 132.6587992860289 L 2371.3245547353245 132.7312759014473 L 2371.1720945426705 132.80306691426244 L 2371.018053895208 132.87416514543293 L 2370.8624481968736 132.94456348519483 L 2370.7052930081068 133.0142548937729 L 2370.546604044296 133.0832324020843 L 2370.3863971742057 133.15148911243568 L 2370.2246884183887 133.21901819921294 L 2370.0614939475863 133.28581290956362 L 2369.8968300811093 133.3518665640724 L 2369.7307132852075 133.4171725574288 L 2369.5631601714213 133.481724359088 L 2369.3941874949232 133.54551551392356 L 2369.22381215284 133.60853964287315 L 2369.0520511825634 133.67079044357644 L 2368.878921760048 133.73226169100522 L 2368.704441198091 133.79294723808596 L 2368.5286269446037 133.85284101631453 L 2368.351496580865 133.911937036363 L 2368.173067819763 133.97022938867863 L 2367.9933585040258 134.0277122440748 L 2367.8123866044352 134.0843798543138 L 2367.6301702180303 134.1402265526819 L 2367.4467275662973 134.19524675455574 L 2367.2620769933496 134.249434957961 L 2367.0762369640897 134.30278574412253 L 2366.8892260623657 134.35529377800614 L 2366.7010629891124 134.40695380885222 L 2366.5117665604803 134.4577606707007 L 2366.321355705954 134.5077092829078 L 2366.1298494664607 134.55679465065384 L 2365.9372669924646 134.605011865443 L 2365.7436275420528 134.65235610559398 L 2365.548950479009 134.69882263672218 L 2365.3532552708766 134.74440681221327 L 2365.1565614870146 134.78910407368764 L 2364.958888796636 134.83290995145643 L 2364.7602569668466 134.87582006496834 L 2364.5606858606625 134.91783012324777 L 2364.360195435029 134.95893592532389 L 2364.158805738821 134.9991333606508 L 2363.9565369108404 135.03841840951844 L 2363.7534091778016 135.07678714345462 L 2363.5494428523084 135.114235725618 L 2363.3446583308237 135.1507604111815 L 2363.1390760916292 135.18635754770702 L 2362.932716692777 135.2210235755106 L 2362.725600770035 135.2547550280183 L 2362.517749034823 135.28754853211302 L 2362.3091822721412 135.31940080847167 L 2362.0999213384925 135.35030867189315 L 2361.8899871597955 135.38026903161688 L 2361.679400729293 135.40927889163183 L 2361.468183105453 135.43733535097618 L 2361.256355409862 135.46443560402741 L 2361.043938825112 135.4905769407828 L 2360.8309545926854 135.5157567471304 L 2360.617424010828 135.53997250511063 L 2360.4033684324195 135.5632217931678 L 2360.1888092628396 135.58550228639254 L 2359.9737679578266 135.60681175675404 L 2359.7582660213316 135.62714807332307 L 2359.542325003369 135.6465092024849 L 2359.32596649786 135.66489320814276 L 2359.1092121404754 135.6822982519114 L 2358.8920836064704 135.69872259330091 L 2358.674602608517 135.71416458989088 L 2358.4567908945337 135.7286226974945 L 2358.238670245511 135.74209547031307 L 2358.0202624733315 135.75458156108056 L 2357.8015894185905 135.76607972119825 L 2357.582672948412 135.7765888008597 L 2357.363534954259 135.78610774916578 L 2357.14419734975 135.79463561422952 L 2356.9246820684616 135.80217154327153 L 2356.7050110617397 135.8087147827052 L 2356.485206296501 135.81426467821206 L 2356.2652897530397 135.81882067480714 L 2356.0452834228263 135.82238231689462 L 2355.825209306311 135.82494924831323 L 2355.6050894107216 135.82652121237197 L 2355.3849457478645 135.82709805187577 L 2355.1648003319224 135.8266797091411 L 2354.944675177254 135.82526622600196 L 2354.72459229619 135.82285774380543 L 2354.504573696837 135.81945450339776 L 2354.2846413808697 135.81505684510012 L 2354.0648173413374 135.80966520867472 L 2353.8451235604607 135.80328013328065 L 2353.625582007435 135.79590225742018 L 2353.4062146362317 135.78753231887475 L 2353.187043383406 135.7781711546312 L 2352.9680901659003 135.76781970079816 L 2352.7493768788536 135.7564789925124 L 2352.530925393413 135.74415016383531 L 2352.312757554544 135.73083444763947 L 2352.0948951788496 135.7165331754854 L 2351.877360052385 135.7012477774884 L 2351.6601739284824 135.68497978217553 L 2351.4433585255733 135.66773081633278 L 2351.2269355250164 135.64950260484235 L 2351.0109265689316 135.6302969705102 L 2350.795353258035 135.61011583388375 L 2350.580237149478 135.58896121305983 L 2350.3655997546916 135.56683522348294 L 2350.151462537237 135.5437400777336 L 2349.9378469106573 135.51967808530708 L 2349.7247742363375 135.4946516523826 L 2349.512265821367 135.4686632815826 L 2349.3003429164096 135.4417155717225 L 2349.0890267135806 135.41381121755086 L 2348.8783383443233 135.3849530094798 L 2348.6682988772995 135.35514383330613 L 2348.4589293162803 135.32438666992255 L 2348.250250598048 135.29268459501984 L 2348.0422835903 135.26004077877903 L 2347.8350490895637 135.22645848555456 L 2347.628567819117 135.19194107354775 L 2347.4228604269147 135.15649199447105 L 2347.2179474835248 135.12011479320282 L 2347.01384948007 135.08281310743288 L 2346.8105868261814 135.04459066729873 L 2346.6081798479545 135.0054512950125 L 2346.406648785919 134.96539890447883 L 2346.206013793013 134.92443750090342 L 2346.0062949325684 134.88257118039243 L 2345.8075121763045 134.83980412954307 L 2345.609685402332 134.79614062502475 L 2345.412834393163 134.75158503315157 L 2345.2169788337346 134.7061418094456 L 2345.0221383094395 134.65981549819128 L 2344.8283323041674 134.6126107319812 L 2344.6355801983573 134.56453223125257 L 2344.44390126706 134.51558480381547 L 2344.253314678008 134.4657733443718 L 2344.063839489702 134.41510283402602 L 2343.8754946495023 134.36357833978695 L 2343.6882989917367 134.31120501406104 L 2343.5022712358145 134.25798809413726 L 2343.3174299843563 134.20393290166325 L 2343.1337937213334 134.14904484211317 L 2342.951380810219 134.0933294042473 L 2342.7702094921515 134.03679215956294 L 2342.590297884113 133.97943876173744 L 2342.4116639771137 133.92127494606285 L 2342.2343256343956 133.8623065288722 L 2342.058300589645 133.80253940695812 L 2341.88360644522 133.74197955698298 L 2341.710260670389 133.68063303488128 L 2341.538280599585 133.61850597525418 L 2341.3676834306725 133.5556045907558 L 2341.1984862232257 133.49193517147216 L 2341.030705896824 133.42750408429222 L 2340.864359229361 133.36231777227093 L 2340.699462855365 133.2963827539852 L 2340.5360332643345 133.2297056228819 L 2340.3740867990937 133.1622930466186 L 2340.213639654154 133.09415176639672 L 2340.054707874096 133.0252885962875 L 2339.897307351965 132.9557104225506 L 2339.7414538276826 132.8854242029454 L 2339.587162886471 132.81443696603523 L 2339.434449957296 132.7427558104847 L 2339.283330311323 132.67038790434958 L 2339.1338190603906 132.59734048436025 L 2338.9859311554997 132.52362085519775 L 2338.839681385317 132.44923638876358 L 2338.695084374698 132.37419452344244 L 2338.5521545832235 132.2985027633583 L 2338.410906303753 132.2221686776241 L 2338.271353660997 132.1451998995848 L 2338.1335106101037 132.06760412605405 L 2337.997390935263 131.98938911654457 L 2337.8630082483287 131.91056269249208 L 2337.730375987458 131.83113273647336 L 2337.5995074157668 131.7511071914178 L 2337.4704156200023 131.67049405981317 L 2337.343113509237 131.5893014029055 L 2337.2176138135756 131.50753733989282 L 2337.0939290828837 131.4252100471133 L 2336.9720716855304 131.3423277572276 L 2336.852053807155 131.25889875839562 L 2336.7338874494444 131.17493139344774 L 2336.617584428936 131.09043405905047 L 2336.5031563758353 131.00541520486686 L 2336.390614732852 130.91988333271146 L 2336.279970754057 130.83384699570024 L 2336.1712355037557 130.74731479739515 L 2336.0644198553823 130.66029539094396 L 2335.959534490413 130.57279747821474 L 2335.8565898972965 130.48482980892592 L 2335.7555963704067 130.3964011797711 L 2335.656564009012 130.30752043353948 L 2335.559502716266 130.21819645823163 L 2335.4644221982167 130.12843818617063 L 2335.3713319628373 130.03825459310892 L 2335.280241319074 129.94765469733065 L 2335.191159375914 129.85664755874987 L 2335.1040950414786 129.7652422780046 L 2335.019057022128 129.67344799554678 L 2334.9360538215938 129.5812738907281 L 2334.8550937401264 129.48872918088233 L 2334.776184873667 129.39582312040324 L 2334.699335113036 129.30256499981948 L 2334.624552143145 129.20896414486543 L 2334.55184344223 129.11502991554852 L 2334.4812162811 129.02077170521346 L 2334.4126777224114 128.92619893960273 L 2334.3462346199635 128.83132107591408 L 2334.2818936180115 128.73614760185475 L 2334.219661150602 128.64068803469291 L 2334.159543440929 128.54495192030572 L 2334.101546500715 128.44894883222483 L 2334.0456761296036 128.352688370679 L 2333.991937914587 128.25618016163423 L 2333.9403372294414 128.15943385583097 L 2333.8908792341917 128.06245912781918 L 2333.843568874597 127.96526567499087 L 2333.798410881654 127.86786321661032 L 2333.7554097711236 127.77026149284217 L 2333.714569843082 127.6724702637775 L 2333.6758951814863 127.5744993084577 L 2333.6393896537725 127.47635842389667 L 2333.6050569104614 127.37805742410109 L 2333.572900384799 127.27960613908901 L 2333.542923292412 127.1810144139069 L 2333.5151286309833 127.0822921076451 L 2333.4895191799574 126.98344909245198 L 2333.4660975002566 126.88449525254669 L 2333.44486593403 126.78544048323076 L 2333.4258266044167 126.68629468989857 L 2333.4089814153335 126.58706778704685 L 2333.3943320512853 126.48776969728317 L 2333.3818799771966 126.38841035033379 L 2333.3716264382642 126.28899968205057 L 2333.3635724598334 126.18954763341752 L 2333.357718847295 126.09006414955662 L 2333.354066186006 125.99055917873335 L 2333.3526148412298 125.89104267136189 L 2333.3533649580986 125.79152457901002 L 2333.3563164616016 125.69201485340406 L 2333.361469056592 125.59252344543364 L 2333.368822227813 125.49306030415666 L 2333.3783752399545 125.39363537580434 L 2333.390127137723 125.29425860278668 L 2333.404076745939 125.19493992269815 L 2333.420222669653 125.09568926732403 L 2333.4385632942854 124.99651656164711 L 2333.4590967857903 124.89743172285533 L 2333.4818210908347 124.79844465935 L 2333.506733937007 124.69956526975497 L 2333.533832833044 124.60080344192681 L 2333.5631150690783 124.50216905196602 L 2333.594577716911 124.40367196322937 L 2333.628217630303 124.30532202534366 L 2333.6640314452916 124.20712907322073 L 2333.7020155805244 124.10910292607396 L 2333.74216623762 124.01125338643637 L 2333.7844794015464 123.9135902391804 L 2333.8289508410217 123.81612325053938 L 2333.87557610894 123.71886216713094 L 2333.9243505428126 123.62181671498239 L 2333.975269265237 123.52499659855806 L 2334.028327184383 123.42841149978892 L 2334.083518994504 123.33207107710435 L 2334.140839176464 123.23598496446634 L 2334.2002819982927 123.14016277040608 L 2334.2618415157576 123.04461407706313 L 2334.3255115729585 122.94934843922721 L 2334.3912858029425 122.85437538338269 L 2334.459157628341 122.75970440675601 L 2334.5291202620288 122.66534497636597 L 2334.6011667078 122.57130652807696 L 2334.675289761071 122.47759846565543 L 2334.7514820095976 122.38423015982957 L 2334.829735834219 122.29121094735211 L 2334.9100434096167 122.19855013006682 L 2334.9923967051013 122.10625697397819 L 2335.0767874854114 122.01434070832492 L 2335.1632073115397 121.92281052465698 L 2335.251647541575 121.83167557591648 L 2335.3420993315685 121.74094497552231 L 2335.4345536364167 121.65062779645893 L 2335.5290012107653 121.560733070369 L 2335.625432609936 121.47126978665017 L 2335.72383819087 121.38224689155629 L 2335.82420811309 121.29367328730267 L 2335.9265323396885 121.20555783117594 L 2336.030800638327 121.11790933464826 L 2336.1370025822634 121.03073656249626 L 2336.2451275513918 120.94404823192451 L 2336.3551647333047 120.85785301169383 L 2336.467103124376 120.77215952125441 L 2336.58093153086 120.68697632988388 L 2336.696638570011 120.60231195583039 L 2336.8142126712214 120.5181748654608 L 2336.9336420771783 120.43457347241402 L 2337.054914845042 120.3515161367597 L 2337.178018847636 120.26901116416218 L 2337.3029417746625 120.18706680504998 L 2337.429671133933 120.10569125379072 L 2337.5581942526173 120.02489264787171 L 2337.688498278511 119.9446790670862 L 2337.820570181319 119.86505853272544 L 2337.9543967539626 119.7860390067765 L 2338.0899646138946 119.70762839112615 L 2338.227260204443 119.6298345267706 L 2338.3662697961627 119.55266519303144 L 2338.50697948821 119.47612810677776 L 2338.6493752097344 119.4002309216544 L 2338.793442721281 119.32498122731663 L 2338.9391676162186 119.25038654867114 L 2339.08653532218 119.17645434512369 L 2339.235531102517 119.10319200983298 L 2339.386140057776 119.0306068689715 L 2339.5383471271866 118.95870618099286 L 2339.692137090169 118.88749713590593 L 2339.847494567855 118.81698685455588 L 2340.004404024626 118.74718238791209 L 2340.1628497696674 118.67809071636304 L 2340.322815958537 118.60971874901833 L 2340.4842865947485 118.5420733230177 L 2340.6472455313733 118.47516120284739 L 2340.8116764726533 118.40898907966366 L 2340.977562975632 118.34356357062367 L 2341.1448884517963 118.2788912182238 L 2341.3136361687384 118.21497848964543 L 2341.483789251828 118.15183177610814 L 2341.6553306858978 118.08945739223064 L 2341.828243316948 118.02786157539936 L 2342.0025098538586 117.96705048514465 L 2342.178112870122 117.90703020252487 L 2342.355034805582 117.84780672951824 L 2342.5332579681935 117.78938598842274 L 2342.712764535788 117.73177382126377 L 2342.893536557859 117.67497598921004 L 2343.075555957355 117.61899817199743 L 2343.258804532487 117.56384596736102 L 2343.4432639585502 117.5095248904753 L 2343.6289157897563 117.4560403734027 L 2343.8157414610764 117.40339776455035 L 2344.003722290099 117.35160232813527 L 2344.192839478899 117.30065924365793 L 2344.3830741159136 117.25057360538435 L 2344.5744071778386 117.2013504218366 L 2344.766819531527 117.15299461529202 L 2344.960291935903 117.10551102129097 L 2345.1548050438887 117.05890438815327 L 2345.3503394043346 117.0131793765034 L 2345.546875463968 116.96834055880443 L 2345.744393569346 116.92439241890077 L 2345.9428739688233 116.88133935156975 L 2346.1422968145253 116.83918566208227 L 2346.3426421643335 116.79793556577212 L 2346.54388998388 116.75759318761459 L 2346.7460201485505 116.71816256181383 L 2346.949012445497 116.6796476313996 L 2347.1528465756583 116.64205224783282 L 2347.357502155792 116.60538017062055 L 2347.562958720511 116.56963506693991 L 2347.769195724329 116.53482051127152 L 2347.9761925437183 116.5009399850419 L 2348.183928479169 116.46799687627546 L 2348.3923827572607 116.43599447925563 L 2348.6015345327396 116.40493599419543 L 2348.811362890602 116.37482452691748 L 2349.021846848187 116.34566308854342 L 2349.232965357275 116.31745459519279 L 2349.4446973061904 116.29020186769141 L 2349.657021521915 116.26390763128934 L 2349.8699167722034 116.23857451538828 L 2350.083361767709 116.21420505327873 L 2350.29733516411 116.1908016818866 L 2350.5118155642444 116.1683667415295 L 2350.7267815202513 116.14690247568278 L 2350.9422115357143 116.12641103075515 L 2351.158084067811 116.10689445587401 L 2351.374377529469 116.0883547026806 L 2351.5910702915216 116.07079362513478 L 2351.8081406848733 116.05421297932966 L 2352.0255670026654 116.03861442331603 L 2352.2433275024478 116.02399951693647 L 2352.461400408352 116.01036972166946 L 2352.6797639132687 115.99772640048315 L 2352.8983961810295 115.98607081769912 L 2353.1172753485903 115.97540413886594 L 2353.336379528216 115.96572743064262 L 2353.555686809672 115.9570416606919 L 2353.775175262412 115.94934769758355 L 2353.9948229377746 115.94264631070745 L 2354.214607871175 115.93693817019673 L 2354.4345080843023 115.93222384686065 L 2354.6545015873194 115.92850381212766 L 2354.8745663810587 115.92577843799809 L 2355.0946804592245 115.92404799700711 L 2355.314821810592 115.92331266219736 L 2355.5349684212106 115.92357250710171 L 2355.7550982766015 115.9248275057359 L 2355.975189363963 115.92707753260112 L 2356.19521967437 115.93032236269651 L 2356.4151672049743 115.93456167154183 L 2356.635009961207 115.93979503520967 L 2356.8547259589745 115.94602193036806 L 2357.0742932268613 115.95324173433266 L 2357.293689808323 115.96145372512909 L 2357.512893763884 115.97065708156512 L 2357.7318831733323 115.98085088331277 L 2357.9506361379085 115.99203411100036 L 2358.169130782499 116.00420564631446 L 2358.387345257821 116.01736427211165 L 2358.605257742609 116.03150867254033 L 2358.8228464457966 116.04663743317224 L 2359.040089608694 116.06274904114393 L 2359.2569655071666 116.07984188530804 L 2359.473452453805 116.09791425639438 L 2359.6895288000946 116.1169643471809 L 2359.9051729385815 116.1369902526744 L 2360.1203633050313 116.15798997030103 L 2360.3350783805863 116.1799614001065 L 2360.5492966939187 116.20290234496619 L 2360.7629968233746 116.22681051080468 L 2360.97615739912 116.25168350682533 L 2361.1887571052744 116.27751884574926 L 2361.400774682045 116.30431394406412 L 2361.61218892785 116.3320661222824 L 2361.822978701442 116.36077260520939 L 2362.0331229240182 116.39043052222074 L 2362.242600581332 116.42103690754946 L 2362.451390725793 116.45258870058252 L 2362.659472478559 116.48508274616691 L 2362.8668250316296 116.51851579492514 L 2363.0734276499215 116.5528845035802 L 2363.279259673345 116.58818543528989 L 2363.4843005188704 116.62441505999041 L 2363.6885296825826 116.66156975474952 L 2363.8919267417364 116.69964580412869 L 2364.0944713567947 116.73863940055472 L 2364.296143273465 116.77854664470044 L 2364.4969223247244 116.81936354587472 L 2364.6967884328337 116.86108602242145 L 2364.89572161135 116.90370990212773 L 2365.0937019671205 116.94723092264113 L 2365.2907097022744 116.99164473189583 L 2365.486725116203 117.03694688854794 L 2365.681728607528 117.08313286241956 L 2365.8757006760625 117.13019803495177 L 2366.068621924762 117.17813769966656 L 2366.2604730616613 117.22694706263738 L 2366.4512349018073 117.27662124296862 L 2366.640888369175 117.32715527328364 L 2366.8294144985757 117.37854410022152 L 2367.0167944375535 117.43078258494239 L 2367.20300944827 117.48386550364133 L 2367.3880409093804 117.53778754807067 L 2367.5718703178923 117.59254332607092 L 2367.7544792910176 117.64812736210992 L 2367.9358495680117 117.70453409783036 L 2368.115963011998 117.7617578926057 L 2368.294801611782 117.81979302410413 L 2368.472347483653 117.87863368886087 L 2368.6485828731716 117.93827400285848 L 2368.8234901569454 117.99870800211527 L 2368.9970518443924 118.05992964328165 L 2369.169250579488 118.12193280424454 L 2369.3400691425027 118.18471128473949 L 2369.509490451722 118.24825880697081 L 2369.6774975651565 118.3125690162392 L 2369.8440736822345 118.37763548157731 L 2370.009202145484 118.44345169639288 L 2370.172866442195 118.51001107911922 L 2370.335050206075 118.57730697387356 L 2370.495737218883 118.6453326511225 L 2370.6549114120508 118.71408130835499 L 2370.812556868292 118.7835460707626 L 2370.968657823193 118.85371999192698 L 2371.1231986667876 118.92459605451448 L 2371.276163945121 118.99616717097793 L 2371.427538361792 119.0684261842653 L 2371.5773067794858 119.1413658685355 L 2371.7254542214846 119.21497892988086 L 2371.8719658731684 119.28925800705662 L 2372.016827083494 119.36419567221692 L 2372.160023366461 119.43978443165774 L 2372.30154040256 119.5160167265661 L 2372.441364040206 119.59288493377602 L 2372.579480297151 119.67038136653088 L 2372.7158753618855 119.74849827525193 L 2372.8505355950156 119.82722784831344 L 2372.983447530631 119.9065622128237 L 2373.1145978776485 119.98649343541236 L 2373.2439735211424 120.06701352302377 L 2373.371561523657 120.1481144237163 L 2373.4973491264977 120.22978802746741 L 2373.621323751009 120.31202616698484 L 2373.743472999832 120.39482061852313 L 2373.863784658144 120.47816310270613 L 2373.9822466948785 120.5620452853549 L 2374.0988472639315 120.64645877832105 L 2374.2135747053426 120.73139514032563 L 2374.3264175464637 120.81684587780323 L 2374.4373645031046 120.9028024457513 L 2374.5464044806617 120.9892562485847 L 2374.653526575228 121.07619864099514 L 2374.758720074685 121.16362092881589 L 2374.861974459768 121.25151436989098 L 2374.963279405126 121.33987017494957 L 2375.0626247803484 121.42867950848476 L 2375.160000650981 121.51793348963722 L 2375.255397279517 121.60762319308321 L 2375.3488051263744 121.69773964992713 L 2375.4402148508448 121.7882738485984 L 2375.5296173120328 121.87921673575256 L 2375.617003569767 121.97055921717673 L 2375.7023648854934 122.06229215869885 L 2375.785692723153 122.15440638710123 L 2375.86697875003 122.24689269103779 L 2375.94621483759 122.33974182195519 L 2376.0233930622912 122.43294449501774 L 2376.0985057063745 122.52649139003577 L 2376.1715452586377 122.62037315239778 L 2376.2425044151873 122.71458039400572 L 2376.3113760801666 122.80910369421396 L 2376.3781533664664 122.90393360077124 L 2376.4428295964135 122.99906063076594 L 2376.505398302439 123.09447527157432 L 2376.565853227725 123.19016798181183 L 2376.624188326828 123.28612919228716 L 2376.6803977662876 123.38234930695926 L 2376.734475925207 123.47881870389682 L 2376.7864173958146 123.57552773624055 L 2376.836216984007 123.67246673316781 L 2376.8838697098668 123.76962600085969 L 2376.9293708081614 123.86699582347038 L 2376.9727157288185 123.96456646409875 L 2377.0139001373823 124.06232816576207 L 2377.0529199154466 124.16027115237162 L 2377.0897711610655 124.25838562971038 L 2377.1244501891456 124.35666178641236 L 2377.1569535318126 124.45508979494379 L 2377.1872779387595 124.55365981258583 L 2377.2154203775713 124.6523619824189 L 2377.241378034027 124.75118643430821 L 2377.2651483123827 124.85012328589096 L 2377.2867288356306 124.94916264356442 L 2377.306117445736 125.04829460347538 L 2377.3233122038546 125.14750925251043 L 2377.3383113905243 125.24679666928738 L 2377.3511135058393 125.34614692514725 L 2377.3617172695986 125.44555008514727 L 2377.3701216214345 125.54499620905428 L 2377.3763257209193 125.64447535233874 L 2377.380328947648 125.74397756716924 L 2377.382130901301 125.84349290340721 M 2377.3822425844296 157.5403560553091 L 2377.381141852211 157.639873481386 L 2377.377839765627 157.7393809558032 L 2377.3723366548834 157.8388685278962 L 2377.3646330702873 157.9383262489907 L 2377.35472978219 158.0377441733975 L 2377.3426277809126 158.13711235940696 L 2377.328328276645 158.2364208702833 L 2377.311832699326 158.3356597752582 L 2377.2931426984987 158.43481915052385 L 2377.2722601431483 158.53388908022538 L 2377.249187121513 158.63285965745234 L 2377.2239259408752 158.73172098522952 L 2377.1964791273326 158.8304631775065 L 2377.166849425543 158.92907636014635 L 2377.135039798453 159.02755067191296 L 2377.101053426997 159.12587626545726 L 2377.064893709786 159.22404330830182 L 2377.026564262759 159.3220419838241 L 2376.9860689188313 159.4198624922383 L 2376.9434117275023 159.51749505157505 L 2376.8985969544556 159.61492989865977 L 2376.851629081131 159.71215729008898 L 2376.8025128042773 159.80916750320452 L 2376.7512530354807 159.90595083706594 L 2376.697854900676 160.00249761342053 L 2376.642323739631 160.09879817767109 L 2376.584665105417 160.1948428998414 L 2376.5248847638486 160.29062217553937 L 2376.46298869291 160.38612642691717 L 2376.3989830821574 160.48134610362928 L 2376.3328743320976 160.57627168378738 L 2376.264669053551 160.67089367491255 L 2376.194374066989 160.76520261488454 L 2376.121996401851 160.85918907288792 L 2376.0475432958438 160.95284365035525 L 2375.971022194215 161.0461569819068 L 2375.892440749012 161.13911973628714 L 2375.8118068183135 161.23172261729837 L 2375.7291284654457 161.32395636472955 L 2375.644413958174 161.41581175528276 L 2375.5576717678796 161.5072796034955 L 2375.4689105687085 161.5983507626592 L 2375.3781392367073 161.68901612573381 L 2375.285366848933 161.77926662625856 L 2375.1906026825473 161.86909323925866 L 2375.0938562138876 161.95848698214763 L 2374.9951371175207 162.04743891562566 L 2374.894455265274 162.13594014457357 L 2374.791820725248 162.22398181894218 L 2374.6872437608117 162.31155513463744 L 2374.580734829575 162.39865133440074 L 2374.4723045823407 162.48526170868473 L 2374.3619638620444 162.5713775965241 L 2374.249723702666 162.65699038640184 L 2374.1355953281277 162.74209151711034 L 2374.019590151172 162.8266724786074 L 2373.90171977222 162.91072481286741 L 2373.781995978211 162.99424011472695 L 2373.660430741425 163.07721003272542 L 2373.5370362182844 163.1596262699402 L 2373.4118247481383 163.2414805848162 L 2373.2848088520295 163.32276479199018 L 2373.1560012314417 163.40347076310917 L 2373.0254147670303 163.48359042764326 L 2372.8930625173316 163.56311577369283 L 2372.7589577174617 163.6420388487895 L 2372.623113777788 163.72035176069153 L 2372.4855442825915 163.798046678173 L 2372.346262988707 163.8751158318069 L 2372.205283824148 163.95155151474214 L 2372.0626208867134 164.02734608347404 L 2371.9182884425777 164.10249195860897 L 2371.7723009248657 164.17698162562195 L 2371.624672932207 164.25080763560842 L 2371.4754192272776 164.3239626060289 L 2371.3245547353245 164.39643922144728 L 2371.1720945426705 164.46823023426245 L 2371.018053895208 164.5393284654329 L 2370.8624481968736 164.6097268051948 L 2370.7052930081068 164.67941821377286 L 2370.546604044296 164.74839572208427 L 2370.3863971742057 164.81665243243566 L 2370.2246884183887 164.88418151921292 L 2370.0614939475863 164.95097622956362 L 2369.8968300811093 165.01702988407237 L 2369.7307132852075 165.08233587742882 L 2369.5631601714213 165.146887679088 L 2369.3941874949232 165.21067883392354 L 2369.22381215284 165.27370296287316 L 2369.0520511825634 165.33595376357644 L 2368.878921760048 165.3974250110052 L 2368.704441198091 165.45811055808593 L 2368.5286269446037 165.5180043363145 L 2368.351496580865 165.577100356363 L 2368.173067819763 165.63539270867864 L 2367.9933585040258 165.69287556407477 L 2367.8123866044352 165.7495431743138 L 2367.6301702180303 165.80538987268187 L 2367.4467275662973 165.86041007455572 L 2367.2620769933496 165.914598277961 L 2367.0762369640897 165.96794906412254 L 2366.8892260623657 166.02045709800615 L 2366.7010629891124 166.0721171288522 L 2366.5117665604803 166.1229239907007 L 2366.321355705954 166.17287260290777 L 2366.1298494664607 166.22195797065382 L 2365.9372669924646 166.27017518544298 L 2365.7436275420528 166.31751942559396 L 2365.548950479009 166.3639859567222 L 2365.3532552708766 166.40957013221328 L 2365.1565614870146 166.45426739368764 L 2364.958888796636 166.4980732714564 L 2364.7602569668466 166.5409833849683 L 2364.5606858606625 166.58299344324774 L 2364.360195435029 166.6240992453239 L 2364.158805738821 166.6642966806508 L 2363.9565369108404 166.70358172951842 L 2363.7534091778016 166.74195046345463 L 2363.5494428523084 166.779399045618 L 2363.3446583308237 166.8159237311815 L 2363.1390760916292 166.85152086770702 L 2362.932716692777 166.88618689551058 L 2362.725600770035 166.9199183480183 L 2362.517749034823 166.95271185211303 L 2362.3091822721412 166.98456412847167 L 2362.0999213384925 167.01547199189315 L 2361.8899871597955 167.04543235161685 L 2361.679400729293 167.0744422116318 L 2361.468183105453 167.1024986709762 L 2361.256355409862 167.12959892402742 L 2361.043938825112 167.15574026078278 L 2360.8309545926854 167.1809200671304 L 2360.617424010828 167.2051358251106 L 2360.4033684324195 167.2283851131678 L 2360.1888092628396 167.25066560639252 L 2359.9737679578266 167.27197507675405 L 2359.7582660213316 167.29231139332308 L 2359.542325003369 167.3116725224849 L 2359.32596649786 167.33005652814276 L 2359.1092121404754 167.34746157191137 L 2358.8920836064704 167.3638859133009 L 2358.674602608517 167.37932790989086 L 2358.4567908945337 167.3937860174945 L 2358.238670245511 167.40725879031308 L 2358.0202624733315 167.41974488108053 L 2357.8015894185905 167.43124304119823 L 2357.582672948412 167.44175212085972 L 2357.363534954259 167.45127106916576 L 2357.14419734975 167.4597989342295 L 2356.9246820684616 167.46733486327153 L 2356.7050110617397 167.4738781027052 L 2356.485206296501 167.47942799821206 L 2356.2652897530397 167.48398399480715 L 2356.0452834228263 167.4875456368946 L 2355.825209306311 167.4901125683132 L 2355.6050894107216 167.49168453237195 L 2355.3849457478645 167.49226137187574 L 2355.1648003319224 167.4918430291411 L 2354.944675177254 167.49042954600193 L 2354.72459229619 167.48802106380543 L 2354.504573696837 167.48461782339774 L 2354.2846413808697 167.48022016510012 L 2354.0648173413374 167.4748285286747 L 2353.8451235604607 167.46844345328066 L 2353.625582007435 167.4610655774202 L 2353.4062146362317 167.45269563887473 L 2353.187043383406 167.44333447463117 L 2352.9680901659003 167.43298302079813 L 2352.7493768788536 167.4216423125124 L 2352.530925393413 167.4093134838353 L 2352.312757554544 167.39599776763947 L 2352.0948951788496 167.3816964954854 L 2351.877360052385 167.3664110974884 L 2351.6601739284824 167.35014310217554 L 2351.4433585255733 167.33289413633278 L 2351.2269355250164 167.31466592484233 L 2351.0109265689316 167.2954602905102 L 2350.795353258035 167.27527915388373 L 2350.580237149478 167.25412453305984 L 2350.3655997546916 167.23199854348294 L 2350.151462537237 167.20890339773356 L 2349.9378469106573 167.18484140530705 L 2349.7247742363375 167.15981497238258 L 2349.512265821367 167.1338266015826 L 2349.3003429164096 167.10687889172252 L 2349.0890267135806 167.07897453755086 L 2348.8783383443233 167.0501163294798 L 2348.6682988772995 167.0203071533061 L 2348.4589293162803 166.98954998992255 L 2348.250250598048 166.9578479150198 L 2348.0422835903 166.925204098779 L 2347.8350490895637 166.89162180555454 L 2347.628567819117 166.85710439354773 L 2347.4228604269147 166.82165531447103 L 2347.2179474835248 166.78527811320282 L 2347.01384948007 166.7479764274329 L 2346.8105868261814 166.7097539872987 L 2346.6081798479545 166.6706146150125 L 2346.406648785919 166.63056222447884 L 2346.206013793013 166.5896008209034 L 2346.0062949325684 166.5477345003924 L 2345.8075121763045 166.50496744954305 L 2345.609685402332 166.46130394502475 L 2345.412834393163 166.41674835315158 L 2345.2169788337346 166.37130512944557 L 2345.0221383094395 166.32497881819128 L 2344.8283323041674 166.27777405198117 L 2344.6355801983573 166.22969555125258 L 2344.44390126706 166.18074812381545 L 2344.253314678008 166.1309366643718 L 2344.063839489702 166.08026615402602 L 2343.8754946495023 166.02874165978693 L 2343.6882989917367 165.97636833406105 L 2343.5022712358145 165.92315141413727 L 2343.3174299843563 165.86909622166323 L 2343.1337937213334 165.81420816211318 L 2342.951380810219 165.75849272424728 L 2342.7702094921515 165.7019554795629 L 2342.590297884113 165.64460208173745 L 2342.4116639771137 165.58643826606283 L 2342.2343256343956 165.52746984887222 L 2342.058300589645 165.46770272695812 L 2341.88360644522 165.40714287698296 L 2341.710260670389 165.3457963548813 L 2341.538280599585 165.28366929525416 L 2341.3676834306725 165.22076791075577 L 2341.1984862232257 165.15709849147217 L 2341.030705896824 165.0926674042922 L 2340.864359229361 165.02748109227093 L 2340.699462855365 164.9615460739852 L 2340.5360332643345 164.8948689428819 L 2340.3740867990937 164.8274563666186 L 2340.213639654154 164.75931508639673 L 2340.054707874096 164.69045191628751 L 2339.897307351965 164.6208737425506 L 2339.7414538276826 164.55058752294536 L 2339.587162886471 164.47960028603524 L 2339.434449957296 164.4079191304847 L 2339.283330311323 164.3355512243496 L 2339.1338190603906 164.26250380436022 L 2338.9859311554997 164.18878417519772 L 2338.839681385317 164.11439970876359 L 2338.695084374698 164.03935784344245 L 2338.5521545832235 163.9636660833583 L 2338.410906303753 163.8873319976241 L 2338.271353660997 163.8103632195848 L 2338.1335106101037 163.73276744605405 L 2337.997390935263 163.65455243654455 L 2337.8630082483287 163.57572601249208 L 2337.730375987458 163.49629605647334 L 2337.5995074157668 163.41627051141776 L 2337.4704156200023 163.33565737981317 L 2337.343113509237 163.2544647229055 L 2337.2176138135756 163.17270065989283 L 2337.0939290828837 163.09037336711327 L 2336.9720716855304 163.00749107722757 L 2336.852053807155 162.9240620783956 L 2336.7338874494444 162.8400947134477 L 2336.617584428936 162.75559737905047 L 2336.5031563758353 162.67057852486684 L 2336.390614732852 162.58504665271147 L 2336.279970754057 162.49901031570022 L 2336.1712355037557 162.41247811739512 L 2336.0644198553823 162.32545871094393 L 2335.959534490413 162.23796079821474 L 2335.8565898972965 162.14999312892593 L 2335.7555963704067 162.06156449977107 L 2335.656564009012 161.97268375353946 L 2335.559502716266 161.8833597782316 L 2335.4644221982167 161.79360150617063 L 2335.3713319628373 161.70341791310892 L 2335.280241319074 161.61281801733062 L 2335.191159375914 161.52181087874985 L 2335.1040950414786 161.4304055980046 L 2335.019057022128 161.33861131554676 L 2334.9360538215938 161.24643721072812 L 2334.8550937401264 161.1538925008823 L 2334.776184873667 161.0609864404032 L 2334.699335113036 160.96772831981949 L 2334.624552143145 160.8741274648654 L 2334.55184344223 160.78019323554852 L 2334.4812162811 160.68593502521347 L 2334.4126777224114 160.59136225960273 L 2334.3462346199635 160.49648439591405 L 2334.2818936180115 160.40131092185476 L 2334.219661150602 160.30585135469292 L 2334.159543440929 160.21011524030573 L 2334.101546500715 160.1141121522248 L 2334.0456761296036 160.017851690679 L 2333.991937914587 159.92134348163424 L 2333.9403372294414 159.82459717583097 L 2333.8908792341917 159.7276224478192 L 2333.843568874597 159.63042899499087 L 2333.798410881654 159.5330265366103 L 2333.7554097711236 159.43542481284217 L 2333.714569843082 159.3376335837775 L 2333.6758951814863 159.2396626284577 L 2333.6393896537725 159.14152174389667 L 2333.6050569104614 159.0432207441011 L 2333.572900384799 158.944769459089 L 2333.542923292412 158.84617773390687 L 2333.5151286309833 158.7474554276451 L 2333.4895191799574 158.64861241245197 L 2333.4660975002566 158.5496585725467 L 2333.44486593403 158.45060380323076 L 2333.4258266044167 158.35145800989858 L 2333.4089814153335 158.25223110704684 L 2333.3943320512853 158.15293301728317 L 2333.3818799771966 158.05357367033378 L 2333.3716264382642 157.95416300205056 L 2333.3635724598334 157.8547109534175 L 2333.357718847295 157.75522746955662 L 2333.354066186006 157.65572249873335 L 2333.3526148412298 157.55620599136188" stroke-miterlimit="10" stroke-width="2.5633703640000003" stroke-dasharray=""/></g><g><g/><text fill="black" stroke="none" font-family="sans-serif" font-size="11pt" font-style="normal" font-weight="normal" text-decoration="normal" x="2308.5289595522345" y="183.67165511890911" text-anchor="start" dominant-baseline="alphabetic" xml:space="preserve">Elastic Search</text></g></g><g><g><text fill="black" stroke="none" font-family="sans-serif" font-size="16pt" font-style="normal" font-weight="normal" text-decoration="normal" x="1114.7997131347656" y="22.75505242909091" text-anchor="start" dominant-baseline="alphabetic" xml:space="preserve">QR Scanner full flow</text></g><g><text fill="black" stroke="none" font-family="sans-serif" font-size="11pt" font-style="normal" font-weight="normal" text-decoration="normal" x="187.09827560965232" y="231.9233325589091" text-anchor="start" dominant-baseline="alphabetic" xml:space="preserve">open UI in the first time</text></g><g><path fill="none" stroke="black" paint-order="fill stroke markers" d=" M 67.8539214 237.9547922389091 L 444.6267583679453 237.9547922389091" stroke-miterlimit="10" stroke-width="1.2565541" stroke-dasharray=""/><g transform="translate(457.0415128759453,237.9547922389091) translate(-457.0415128759453,-237.9547922389091)"><path fill="black" stroke="none" paint-order="stroke fill markers" d=" M 444.4759718759453 231.6720217389091 L 457.0415128759453 237.9547922389091 L 444.4759718759453 244.2375627389091 Z"/></g></g><g><text fill="black" stroke="none" font-family="sans-serif" font-size="11pt" font-style="normal" font-weight="normal" text-decoration="normal" x="231.49640793387107" y="274.1435503189091" text-anchor="start" dominant-baseline="alphabetic" xml:space="preserve">ask email</text></g><g><path fill="none" stroke="black" paint-order="fill stroke markers" d=" M 457.0415128759453 280.1750099989091 L 80.268675908 280.1750099989091" stroke-miterlimit="10" stroke-width="1.2565541" stroke-dasharray=""/><g transform="translate(67.8539214,280.1750099989091) translate(-67.8539214,-280.1750099989091)"><path fill="black" stroke="none" paint-order="stroke fill markers" d=" M 80.4194624 273.8922394989091 L 67.8539214 280.1750099989091 L 80.4194624 286.45778049890913 Z"/></g></g><g><text fill="black" stroke="none" font-family="sans-serif" font-size="11pt" font-style="normal" font-weight="normal" text-decoration="normal" x="227.00936264578513" y="316.3637680789092" text-anchor="start" dominant-baseline="alphabetic" xml:space="preserve">input email</text></g><g><path fill="none" stroke="black" paint-order="fill stroke markers" d=" M 67.8539214 322.39522775890913 L 444.6267583679453 322.39522775890913" stroke-miterlimit="10" stroke-width="1.2565541" stroke-dasharray=""/><g transform="translate(457.0415128759453,322.39522775890913) translate(-457.0415128759453,-322.39522775890913)"><path fill="black" stroke="none" paint-order="stroke fill markers" d=" M 444.4759718759453 316.1124572589091 L 457.0415128759453 322.39522775890913 L 444.4759718759453 328.67799825890916 Z"/></g></g><g><text fill="black" stroke="none" font-family="sans-serif" font-size="11pt" font-style="normal" font-weight="normal" text-decoration="normal" x="506.8918389861992" y="358.58398583890914" text-anchor="start" dominant-baseline="alphabetic" xml:space="preserve">store email</text></g><g><path fill="none" stroke="black" paint-order="fill stroke markers" d=" M 457.0415128759453 364.61544551890915 L 616.0056332447031 364.61544551890915" stroke-miterlimit="10" stroke-width="1.2565541" stroke-dasharray=""/><g transform="translate(628.420387752703,364.61544551890915) translate(-628.420387752703,-364.61544551890915)"><path fill="black" stroke="none" paint-order="stroke fill markers" d=" M 615.854846752703 358.33267501890913 L 628.420387752703 364.61544551890915 L 615.854846752703 370.8982160189092 Z"/></g></g><g><text fill="black" stroke="none" font-family="sans-serif" font-size="11pt" font-style="normal" font-weight="normal" text-decoration="normal" x="762.0586429190469" y="400.8042035989092" text-anchor="start" dominant-baseline="alphabetic" xml:space="preserve">Request OTP</text></g><g><path fill="none" stroke="black" paint-order="fill stroke markers" d=" M 628.420387752703 406.8356632789092 L 972.0712518537578 406.8356632789092" stroke-miterlimit="10" stroke-width="1.2565541" stroke-dasharray=""/><g transform="translate(984.4860063617577,406.8356632789092) translate(-984.4860063617577,-406.8356632789092)"><path fill="black" stroke="none" paint-order="stroke fill markers" d=" M 971.9204653617577 400.55289277890915 L 984.4860063617577 406.8356632789092 L 971.9204653617577 413.1184337789092 Z"/></g></g><g><text fill="black" stroke="none" font-family="sans-serif" font-size="11pt" font-style="normal" font-weight="normal" text-decoration="normal" x="781.6026950430703" y="443.0244213589092" text-anchor="start" dominant-baseline="alphabetic" xml:space="preserve">200 OK</text></g><g><path fill="none" stroke="black" paint-order="fill stroke markers" d=" M 984.4860063617577 449.0558810389092 L 640.835142260703 449.0558810389092" stroke-miterlimit="10" stroke-width="1.2565541" stroke-dasharray=""/><g transform="translate(628.420387752703,449.0558810389092) translate(-628.420387752703,-449.0558810389092)"><path fill="black" stroke="none" paint-order="stroke fill markers" d=" M 640.9859287527031 442.7731105389092 L 628.420387752703 449.0558810389092 L 640.9859287527031 455.33865153890923 Z"/></g></g><g><text fill="black" stroke="none" font-family="sans-serif" font-size="11pt" font-style="normal" font-weight="normal" text-decoration="normal" x="233.94388718191794" y="485.2446391189093" text-anchor="start" dominant-baseline="alphabetic" xml:space="preserve">ask OTP</text></g><g><path fill="none" stroke="black" paint-order="fill stroke markers" d=" M 457.0415128759453 491.27609879890923 L 80.268675908 491.27609879890923" stroke-miterlimit="10" stroke-width="1.2565541" stroke-dasharray=""/><g transform="translate(67.8539214,491.27609879890923) translate(-67.8539214,-491.27609879890923)"><path fill="black" stroke="none" paint-order="stroke fill markers" d=" M 80.4194624 484.9933282989092 L 67.8539214 491.27609879890923 L 80.4194624 497.55886929890926 Z"/></g></g><g><text fill="black" stroke="none" font-family="sans-serif" font-size="11pt" font-style="normal" font-weight="normal" text-decoration="normal" x="229.456841893832" y="527.4648568789092" text-anchor="start" dominant-baseline="alphabetic" xml:space="preserve">input OTP</text></g><g><path fill="none" stroke="black" paint-order="fill stroke markers" d=" M 67.8539214 533.4963165589093 L 444.6267583679453 533.4963165589093" stroke-miterlimit="10" stroke-width="1.2565541" stroke-dasharray=""/><g transform="translate(457.0415128759453,533.4963165589093) translate(-457.0415128759453,-533.4963165589093)"><path fill="black" stroke="none" paint-order="stroke fill markers" d=" M 444.4759718759453 527.2135460589093 L 457.0415128759453 533.4963165589093 L 444.4759718759453 539.7790870589092 Z"/></g></g><g><text fill="black" stroke="none" font-family="sans-serif" font-size="11pt" font-style="normal" font-weight="normal" text-decoration="normal" x="508.1120004241875" y="569.6850746389092" text-anchor="start" dominant-baseline="alphabetic" xml:space="preserve">OTP Code</text></g><g><path fill="none" stroke="black" paint-order="fill stroke markers" d=" M 457.0415128759453 575.7165343189092 L 616.0056332447031 575.7165343189092" stroke-miterlimit="10" stroke-width="1.2565541" stroke-dasharray=""/><g transform="translate(628.420387752703,575.7165343189092) translate(-628.420387752703,-575.7165343189092)"><path fill="black" stroke="none" paint-order="stroke fill markers" d=" M 615.854846752703 569.4337638189093 L 628.420387752703 575.7165343189092 L 615.854846752703 581.9993048189092 Z"/></g></g><g><text fill="black" stroke="none" font-family="sans-serif" font-size="11pt" font-style="normal" font-weight="normal" text-decoration="normal" x="887.531477553164" y="611.9052923989092" text-anchor="start" dominant-baseline="alphabetic" xml:space="preserve">authorization in SDK</text></g><g><path fill="none" stroke="black" paint-order="fill stroke markers" d=" M 628.420387752703 617.9367520789092 L 1267.8372793983594 617.9367520789092" stroke-miterlimit="10" stroke-width="1.2565541" stroke-dasharray=""/><g transform="translate(1280.2520339063594,617.9367520789092) translate(-1280.2520339063594,-617.9367520789092)"><path fill="black" stroke="none" paint-order="stroke fill markers" d=" M 1267.6864929063595 611.6539815789092 L 1280.2520339063594 617.9367520789092 L 1267.6864929063595 624.2195225789092 Z"/></g></g><g><text fill="black" stroke="none" font-family="sans-serif" font-size="11pt" font-style="normal" font-weight="normal" text-decoration="normal" x="888.7587953632226" y="654.1255101589092" text-anchor="start" dominant-baseline="alphabetic" xml:space="preserve">return SDK instance</text></g><g><path fill="none" stroke="black" paint-order="fill stroke markers" d=" M 1280.2520339063594 660.1569698389092 L 640.835142260703 660.1569698389092" stroke-miterlimit="10" stroke-width="1.2565541" stroke-dasharray=""/><g transform="translate(628.420387752703,660.1569698389092) translate(-628.420387752703,-660.1569698389092)"><path fill="black" stroke="none" paint-order="stroke fill markers" d=" M 640.9859287527031 653.8741993389092 L 628.420387752703 660.1569698389092 L 640.9859287527031 666.4397403389091 Z"/></g></g><g><text fill="black" stroke="none" font-family="sans-serif" font-size="11pt" font-style="normal" font-weight="normal" text-decoration="normal" x="829.2227905649004" y="696.3457279189091" text-anchor="start" dominant-baseline="alphabetic" xml:space="preserve">Send event DAVINCI_QR_CODE_VALIDATOR_PERMISSIONS</text></g><g><path fill="none" stroke="black" paint-order="fill stroke markers" d=" M 628.420387752703 702.3771875989091 L 1433.5593829608947 702.3771875989091" stroke-miterlimit="10" stroke-width="1.2565541" stroke-dasharray=""/><g transform="translate(1445.9741374688947,702.3771875989091) translate(-1445.9741374688947,-702.3771875989091)"><path fill="black" stroke="none" paint-order="stroke fill markers" d=" M 1433.4085964688948 696.0944170989092 L 1445.9741374688947 702.3771875989091 L 1433.4085964688948 708.6599580989091 Z"/></g></g><g><text fill="black" stroke="none" font-family="sans-serif" font-size="11pt" font-style="normal" font-weight="normal" text-decoration="normal" x="1601.4265063031721" y="738.5659456789091" text-anchor="start" dominant-baseline="alphabetic" xml:space="preserve">ask permissions </text></g><g><path fill="none" stroke="black" paint-order="fill stroke markers" d=" M 1445.9741374688947 744.5974053589091 L 1853.6059510737855 744.5974053589091" stroke-miterlimit="10" stroke-width="1.2565541" stroke-dasharray=""/><g transform="translate(1866.0207055817855,744.5974053589091) translate(-1866.0207055817855,-744.5974053589091)"><path fill="black" stroke="none" paint-order="stroke fill markers" d=" M 1853.4551645817855 738.3146348589091 L 1866.0207055817855 744.5974053589091 L 1853.4551645817855 750.8801758589091 Z"/></g></g><g><text fill="black" stroke="none" font-family="sans-serif" font-size="11pt" font-style="normal" font-weight="normal" text-decoration="normal" x="1726.1897352454573" y="780.786163438909" text-anchor="start" dominant-baseline="alphabetic" xml:space="preserve">permissions array </text></g><g><path fill="none" stroke="black" paint-order="fill stroke markers" d=" M 1866.0207055817855 786.8176231189091 L 1718.4996241534573 786.8176231189091" stroke-miterlimit="10" stroke-width="1.2565541" stroke-dasharray=""/><g transform="translate(1706.0848696454573,786.8176231189091) translate(-1706.0848696454573,-786.8176231189091)"><path fill="black" stroke="none" paint-order="stroke fill markers" d=" M 1718.6504106454572 780.5348526189091 L 1706.0848696454573 786.8176231189091 L 1718.6504106454572 793.100393618909 Z"/></g></g><g><text fill="black" stroke="none" font-family="sans-serif" font-size="11pt" font-style="normal" font-weight="normal" text-decoration="normal" x="1466.0790030688947" y="823.006381198909" text-anchor="start" dominant-baseline="alphabetic" xml:space="preserve">permissions array in JSON format</text></g><g><path fill="none" stroke="black" paint-order="fill stroke markers" d=" M 1706.0848696454573 829.037840878909 L 1458.3888919768947 829.037840878909" stroke-miterlimit="10" stroke-width="1.2565541" stroke-dasharray=""/><g transform="translate(1445.9741374688947,829.037840878909) translate(-1445.9741374688947,-829.037840878909)"><path fill="black" stroke="none" paint-order="stroke fill markers" d=" M 1458.5396784688946 822.7550703789091 L 1445.9741374688947 829.037840878909 L 1458.5396784688946 835.320611378909 Z"/></g></g><g><text fill="black" stroke="none" font-family="sans-serif" font-size="11pt" font-style="normal" font-weight="normal" text-decoration="normal" x="856.3378494638262" y="865.226598958909" text-anchor="start" dominant-baseline="alphabetic" xml:space="preserve">notify about available permissions by subscription event</text></g><g><path fill="none" stroke="black" paint-order="fill stroke markers" d=" M 1445.9741374688947 871.258058638909 L 640.835142260703 871.258058638909" stroke-miterlimit="10" stroke-width="1.2565541" stroke-dasharray=""/><g transform="translate(628.420387752703,871.258058638909) translate(-628.420387752703,-871.258058638909)"><path fill="black" stroke="none" paint-order="stroke fill markers" d=" M 640.9859287527031 864.975288138909 L 628.420387752703 871.258058638909 L 640.9859287527031 877.540829138909 Z"/></g></g><g><text fill="black" stroke="none" font-family="sans-serif" font-size="11pt" font-style="normal" font-weight="normal" text-decoration="normal" x="777.3778117887421" y="907.446816718909" text-anchor="start" dominant-baseline="alphabetic" xml:space="preserve">enrich data of availalbe events</text></g><g><path fill="none" stroke="black" paint-order="fill stroke markers" d=" M 628.420387752703 913.478276398909 L 1111.9086710140468 913.478276398909" stroke-miterlimit="10" stroke-width="1.2565541" stroke-dasharray=""/><g transform="translate(1124.3234255220468,913.478276398909) translate(-1124.3234255220468,-913.478276398909)"><path fill="black" stroke="none" paint-order="stroke fill markers" d=" M 1111.7578845220469 907.195505898909 L 1124.3234255220468 913.478276398909 L 1111.7578845220469 919.761046898909 Z"/></g></g><g><text fill="black" stroke="none" font-family="sans-serif" font-size="11pt" font-style="normal" font-weight="normal" text-decoration="normal" x="810.7837566129608" y="949.6670344789089" text-anchor="start" dominant-baseline="alphabetic" xml:space="preserve">return enriched data</text></g><g><path fill="none" stroke="black" paint-order="fill stroke markers" d=" M 1124.3234255220468 955.6984941589089 L 640.835142260703 955.6984941589089" stroke-miterlimit="10" stroke-width="1.2565541" stroke-dasharray=""/><g transform="translate(628.420387752703,955.6984941589089) translate(-628.420387752703,-955.6984941589089)"><path fill="black" stroke="none" paint-order="stroke fill markers" d=" M 640.9859287527031 949.415723658909 L 628.420387752703 955.6984941589089 L 640.9859287527031 961.9812646589089 Z"/></g></g><g><text fill="black" stroke="none" font-family="sans-serif" font-size="11pt" font-style="normal" font-weight="normal" text-decoration="normal" x="118.6439985710781" y="991.8872522389089" text-anchor="start" dominant-baseline="alphabetic" xml:space="preserve">show event list and ask event to choose one</text></g><g><path fill="none" stroke="black" paint-order="fill stroke markers" d=" M 457.0415128759453 997.9187119189089 L 80.268675908 997.9187119189089" stroke-miterlimit="10" stroke-width="1.2565541" stroke-dasharray=""/><g transform="translate(67.8539214,997.9187119189089) translate(-67.8539214,-997.9187119189089)"><path fill="black" stroke="none" paint-order="stroke fill markers" d=" M 80.4194624 991.6359414189089 L 67.8539214 997.9187119189089 L 80.4194624 1004.2014824189089 Z"/></g></g><g><text fill="black" stroke="none" font-family="sans-serif" font-size="11pt" font-style="normal" font-weight="normal" text-decoration="normal" x="223.34172195974998" y="1034.107469998909" text-anchor="start" dominant-baseline="alphabetic" xml:space="preserve">select event</text></g><g><path fill="none" stroke="black" paint-order="fill stroke markers" d=" M 67.8539214 1040.1389296789089 L 444.6267583679453 1040.1389296789089" stroke-miterlimit="10" stroke-width="1.2565541" stroke-dasharray=""/><g transform="translate(457.0415128759453,1040.1389296789089) translate(-457.0415128759453,-1040.1389296789089)"><path fill="black" stroke="none" paint-order="stroke fill markers" d=" M 444.4759718759453 1033.856159178909 L 457.0415128759453 1040.1389296789089 L 444.4759718759453 1046.4217001789088 Z"/></g></g><g><text fill="black" stroke="none" font-family="sans-serif" font-size="11pt" font-style="normal" font-weight="normal" text-decoration="normal" x="477.1463784759453" y="1076.327687758909" text-anchor="start" dominant-baseline="alphabetic" xml:space="preserve">store selected event</text></g><g><path fill="none" stroke="black" paint-order="fill stroke markers" d=" M 457.0415128759453 1082.3591474389088 L 616.0056332447031 1082.3591474389088" stroke-miterlimit="10" stroke-width="1.2565541" stroke-dasharray=""/><g transform="translate(628.420387752703,1082.3591474389088) translate(-628.420387752703,-1082.3591474389088)"><path fill="black" stroke="none" paint-order="stroke fill markers" d=" M 615.854846752703 1076.0763769389089 L 628.420387752703 1082.3591474389088 L 615.854846752703 1088.6419179389088 Z"/></g></g><g><text fill="black" stroke="none" font-family="sans-serif" font-size="11pt" font-style="normal" font-weight="normal" text-decoration="normal" x="193.20623917166404" y="1118.547905518909" text-anchor="start" dominant-baseline="alphabetic" xml:space="preserve">QR scanner interface</text></g><g><path fill="none" stroke="black" paint-order="fill stroke markers" d=" M 457.0415128759453 1124.5793651989088 L 80.268675908 1124.5793651989088" stroke-miterlimit="10" stroke-width="1.2565541" stroke-dasharray=""/><g transform="translate(67.8539214,1124.5793651989088) translate(-67.8539214,-1124.5793651989088)"><path fill="black" stroke="none" paint-order="stroke fill markers" d=" M 80.4194624 1118.2965946989088 L 67.8539214 1124.5793651989088 L 80.4194624 1130.8621356989088 Z"/></g></g><g><text fill="black" stroke="none" font-family="sans-serif" font-size="11pt" font-style="normal" font-weight="normal" text-decoration="normal" x="216.01359695974998" y="1160.768123278909" text-anchor="start" dominant-baseline="alphabetic" xml:space="preserve">scan QR code</text></g><g><path fill="none" stroke="black" paint-order="fill stroke markers" d=" M 67.8539214 1166.7995829589088 L 444.6267583679453 1166.7995829589088" stroke-miterlimit="10" stroke-width="1.2565541" stroke-dasharray=""/><g transform="translate(457.0415128759453,1166.7995829589088) translate(-457.0415128759453,-1166.7995829589088)"><path fill="black" stroke="none" paint-order="stroke fill markers" d=" M 444.4759718759453 1160.5168124589088 L 457.0415128759453 1166.7995829589088 L 444.4759718759453 1173.0823534589088 Z"/></g></g><g><text fill="black" stroke="none" font-family="sans-serif" font-size="11pt" font-style="normal" font-weight="normal" text-decoration="normal" x="488.96870513610156" y="1202.9883410389089" text-anchor="start" dominant-baseline="alphabetic" xml:space="preserve">store scan result</text></g><g><path fill="none" stroke="black" paint-order="fill stroke markers" d=" M 457.0415128759453 1209.0198007189088 L 616.0056332447031 1209.0198007189088" stroke-miterlimit="10" stroke-width="1.2565541" stroke-dasharray=""/><g transform="translate(628.420387752703,1209.0198007189088) translate(-628.420387752703,-1209.0198007189088)"><path fill="black" stroke="none" paint-order="stroke fill markers" d=" M 615.854846752703 1202.7370302189088 L 628.420387752703 1209.0198007189088 L 615.854846752703 1215.3025712189087 Z"/></g></g><g><text fill="black" stroke="none" font-family="sans-serif" font-size="11pt" font-style="normal" font-weight="normal" text-decoration="normal" x="854.4704712289629" y="1245.2085587989088" text-anchor="start" dominant-baseline="alphabetic" xml:space="preserve">Send event DAVINCI_QR_CODE_VALIDATOR_CHECK</text></g><g><path fill="none" stroke="black" paint-order="fill stroke markers" d=" M 628.420387752703 1251.2400184789087 L 1433.5593829608947 1251.2400184789087" stroke-miterlimit="10" stroke-width="1.2565541" stroke-dasharray=""/><g transform="translate(1445.9741374688947,1251.2400184789087) translate(-1445.9741374688947,-1251.2400184789087)"><path fill="black" stroke="none" paint-order="stroke fill markers" d=" M 1433.4085964688948 1244.9572479789088 L 1445.9741374688947 1251.2400184789087 L 1433.4085964688948 1257.5227889789087 Z"/></g></g><g><text fill="black" stroke="none" font-family="sans-serif" font-size="11pt" font-style="normal" font-weight="normal" text-decoration="normal" x="1704.722535219254" y="1287.4287765589088" text-anchor="start" dominant-baseline="alphabetic" xml:space="preserve">qr code data</text></g><g><path fill="none" stroke="black" paint-order="fill stroke markers" d=" M 1445.9741374688947 1293.4602362389087 L 2032.5386308541918 1293.4602362389087" stroke-miterlimit="10" stroke-width="1.2565541" stroke-dasharray=""/><g transform="translate(2044.9533853621917,1293.4602362389087) translate(-2044.9533853621917,-1293.4602362389087)"><path fill="black" stroke="none" paint-order="stroke fill markers" d=" M 2032.3878443621918 1287.1774657389087 L 2044.9533853621917 1293.4602362389087 L 2032.3878443621918 1299.7430067389087 Z"/></g></g><g><text fill="black" stroke="none" font-family="sans-serif" font-size="11pt" font-style="normal" font-weight="normal" text-decoration="normal" x="1855.5635839857582" y="1329.6489943189088" text-anchor="start" dominant-baseline="alphabetic" xml:space="preserve">result </text></g><g><path fill="none" stroke="black" paint-order="fill stroke markers" d=" M 2044.9533853621917 1335.6804539989087 L 1718.4996241534573 1335.6804539989087" stroke-miterlimit="10" stroke-width="1.2565541" stroke-dasharray=""/><g transform="translate(1706.0848696454573,1335.6804539989087) translate(-1706.0848696454573,-1335.6804539989087)"><path fill="black" stroke="none" paint-order="stroke fill markers" d=" M 1718.6504106454572 1329.3976834989087 L 1706.0848696454573 1335.6804539989087 L 1718.6504106454572 1341.9632244989086 Z"/></g></g><g><text fill="black" stroke="none" font-family="sans-serif" font-size="11pt" font-style="normal" font-weight="normal" text-decoration="normal" x="1503.9505240649885" y="1371.8692120789087" text-anchor="start" dominant-baseline="alphabetic" xml:space="preserve">result in JSON format </text></g><g><path fill="none" stroke="black" paint-order="fill stroke markers" d=" M 1706.0848696454573 1377.9006717589086 L 1458.3888919768947 1377.9006717589086" stroke-miterlimit="10" stroke-width="1.2565541" stroke-dasharray=""/><g transform="translate(1445.9741374688947,1377.9006717589086) translate(-1445.9741374688947,-1377.9006717589086)"><path fill="black" stroke="none" paint-order="stroke fill markers" d=" M 1458.5396784688946 1371.6179012589087 L 1445.9741374688947 1377.9006717589086 L 1458.5396784688946 1384.1834422589086 Z"/></g></g><g><text fill="black" stroke="none" font-family="sans-serif" font-size="11pt" font-style="normal" font-weight="normal" text-decoration="normal" x="950.4298294442949" y="1414.0894298389087" text-anchor="start" dominant-baseline="alphabetic" xml:space="preserve">notify about vildation result</text></g><g><path fill="none" stroke="black" paint-order="fill stroke markers" d=" M 1445.9741374688947 1420.1208895189086 L 640.835142260703 1420.1208895189086" stroke-miterlimit="10" stroke-width="1.2565541" stroke-dasharray=""/><g transform="translate(628.420387752703,1420.1208895189086) translate(-628.420387752703,-1420.1208895189086)"><path fill="black" stroke="none" paint-order="stroke fill markers" d=" M 640.9859287527031 1413.8381190189086 L 628.420387752703 1420.1208895189086 L 640.9859287527031 1426.4036600189086 Z"/></g></g><g><text fill="black" stroke="none" font-family="sans-serif" font-size="11pt" font-style="normal" font-weight="normal" text-decoration="normal" x="176.91475815359763" y="1456.3096475989087" text-anchor="start" dominant-baseline="alphabetic" xml:space="preserve">show QR code scan result</text></g><g><path fill="none" stroke="black" paint-order="fill stroke markers" d=" M 457.0415128759453 1462.3411072789086 L 80.268675908 1462.3411072789086" stroke-miterlimit="10" stroke-width="1.2565541" stroke-dasharray=""/><g transform="translate(67.8539214,1462.3411072789086) translate(-67.8539214,-1462.3411072789086)"><path fill="black" stroke="none" paint-order="stroke fill markers" d=" M 80.4194624 1456.0583367789086 L 67.8539214 1462.3411072789086 L 80.4194624 1468.6238777789085 Z"/></g></g><g><text fill="black" stroke="none" font-family="sans-serif" font-size="11pt" font-style="normal" font-weight="normal" text-decoration="normal" x="126.82373184744529" y="1539.2422181989086" text-anchor="start" dominant-baseline="alphabetic" xml:space="preserve">show error window with an error message</text></g><g><path fill="none" stroke="black" paint-order="fill stroke markers" d=" M 457.0415128759453 1545.2736778789085 L 80.268675908 1545.2736778789085" stroke-miterlimit="10" stroke-width="1.2565541" stroke-dasharray=""/><g transform="translate(67.8539214,1545.2736778789085) translate(-67.8539214,-1545.2736778789085)"><path fill="black" stroke="none" paint-order="stroke fill markers" d=" M 80.4194624 1538.9909073789086 L 67.8539214 1545.2736778789085 L 80.4194624 1551.5564483789085 Z"/></g></g><g><text fill="black" stroke="none" font-family="sans-serif" font-size="11pt" font-style="normal" font-weight="normal" text-decoration="normal" x="172.84278244558982" y="1622.1747887989086" text-anchor="start" dominant-baseline="alphabetic" xml:space="preserve">show success scan window</text></g><g><path fill="none" stroke="black" paint-order="fill stroke markers" d=" M 457.0415128759453 1628.2062484789085 L 80.268675908 1628.2062484789085" stroke-miterlimit="10" stroke-width="1.2565541" stroke-dasharray=""/><g transform="translate(67.8539214,1628.2062484789085) translate(-67.8539214,-1628.2062484789085)"><path fill="black" stroke="none" paint-order="stroke fill markers" d=" M 80.4194624 1621.9234779789085 L 67.8539214 1628.2062484789085 L 80.4194624 1634.4890189789085 Z"/></g></g><g><text fill="black" stroke="none" font-family="sans-serif" font-size="11pt" font-style="normal" font-weight="normal" text-decoration="normal" x="166.00844711844138" y="1664.3950065589086" text-anchor="start" dominant-baseline="alphabetic" xml:space="preserve">click to the button "Use ticket"</text></g><g><path fill="none" stroke="black" paint-order="fill stroke markers" d=" M 67.8539214 1670.4264662389085 L 444.6267583679453 1670.4264662389085" stroke-miterlimit="10" stroke-width="1.2565541" stroke-dasharray=""/><g transform="translate(457.0415128759453,1670.4264662389085) translate(-457.0415128759453,-1670.4264662389085)"><path fill="black" stroke="none" paint-order="stroke fill markers" d=" M 444.4759718759453 1664.1436957389085 L 457.0415128759453 1670.4264662389085 L 444.4759718759453 1676.7092367389084 Z"/></g></g><g><text fill="black" stroke="none" font-family="sans-serif" font-size="11pt" font-style="normal" font-weight="normal" text-decoration="normal" x="491.4090280120781" y="1706.6152243189085" text-anchor="start" dominant-baseline="alphabetic" xml:space="preserve">user ticket even</text></g><g><path fill="none" stroke="black" paint-order="fill stroke markers" d=" M 457.0415128759453 1712.6466839989084 L 616.0056332447031 1712.6466839989084" stroke-miterlimit="10" stroke-width="1.2565541" stroke-dasharray=""/><g transform="translate(628.420387752703,1712.6466839989084) translate(-628.420387752703,-1712.6466839989084)"><path fill="black" stroke="none" paint-order="stroke fill markers" d=" M 615.854846752703 1706.3639134989085 L 628.420387752703 1712.6466839989084 L 615.854846752703 1718.9294544989084 Z"/></g></g><g><text fill="black" stroke="none" font-family="sans-serif" font-size="11pt" font-style="normal" font-weight="normal" text-decoration="normal" x="834.9228332895098" y="1748.8354420789085" text-anchor="start" dominant-baseline="alphabetic" xml:space="preserve">Send event DAVINCI_QR_CODE_VALIDATOR_USE_TICKET</text></g><g><path fill="none" stroke="black" paint-order="fill stroke markers" d=" M 628.420387752703 1754.8669017589084 L 1433.5593829608947 1754.8669017589084" stroke-miterlimit="10" stroke-width="1.2565541" stroke-dasharray=""/><g transform="translate(1445.9741374688947,1754.8669017589084) translate(-1445.9741374688947,-1754.8669017589084)"><path fill="black" stroke="none" paint-order="stroke fill markers" d=" M 1433.4085964688948 1748.5841312589084 L 1445.9741374688947 1754.8669017589084 L 1433.4085964688948 1761.1496722589084 Z"/></g></g><g><text fill="black" stroke="none" font-family="sans-serif" font-size="11pt" font-style="normal" font-weight="normal" text-decoration="normal" x="1800.5759028499358" y="1791.0556598389085" text-anchor="start" dominant-baseline="alphabetic" xml:space="preserve">ticket data</text></g><g><path fill="none" stroke="black" paint-order="fill stroke markers" d=" M 1445.9741374688947 1797.0871195189084 L 2209.567646999344 1797.0871195189084" stroke-miterlimit="10" stroke-width="1.2565541" stroke-dasharray=""/><g transform="translate(2221.982401507344,1797.0871195189084) translate(-2221.982401507344,-1797.0871195189084)"><path fill="black" stroke="none" paint-order="stroke fill markers" d=" M 2209.416860507344 1790.8043490189084 L 2221.982401507344 1797.0871195189084 L 2209.416860507344 1803.3698900189083 Z"/></g></g><g><text fill="black" stroke="none" font-family="sans-serif" font-size="11pt" font-style="normal" font-weight="normal" text-decoration="normal" x="1944.0780920583343" y="1833.2758775989084" text-anchor="start" dominant-baseline="alphabetic" xml:space="preserve">result </text></g><g><path fill="none" stroke="black" paint-order="fill stroke markers" d=" M 2221.982401507344 1839.3073372789083 L 1718.4996241534573 1839.3073372789083" stroke-miterlimit="10" stroke-width="1.2565541" stroke-dasharray=""/><g transform="translate(1706.0848696454573,1839.3073372789083) translate(-1706.0848696454573,-1839.3073372789083)"><path fill="black" stroke="none" paint-order="stroke fill markers" d=" M 1718.6504106454572 1833.0245667789084 L 1706.0848696454573 1839.3073372789083 L 1718.6504106454572 1845.5901077789083 Z"/></g></g><g><text fill="black" stroke="none" font-family="sans-serif" font-size="11pt" font-style="normal" font-weight="normal" text-decoration="normal" x="1503.9505240649885" y="1875.4960953589084" text-anchor="start" dominant-baseline="alphabetic" xml:space="preserve">result in JSON format </text></g><g><path fill="none" stroke="black" paint-order="fill stroke markers" d=" M 1706.0848696454573 1881.5275550389083 L 1458.3888919768947 1881.5275550389083" stroke-miterlimit="10" stroke-width="1.2565541" stroke-dasharray=""/><g transform="translate(1445.9741374688947,1881.5275550389083) translate(-1445.9741374688947,-1881.5275550389083)"><path fill="black" stroke="none" paint-order="stroke fill markers" d=" M 1458.5396784688946 1875.2447845389083 L 1445.9741374688947 1881.5275550389083 L 1458.5396784688946 1887.8103255389083 Z"/></g></g><g><text fill="black" stroke="none" font-family="sans-serif" font-size="11pt" font-style="normal" font-weight="normal" text-decoration="normal" x="950.4298294442949" y="1917.7163131189084" text-anchor="start" dominant-baseline="alphabetic" xml:space="preserve">notify about vildation result</text></g><g><path fill="none" stroke="black" paint-order="fill stroke markers" d=" M 1445.9741374688947 1923.7477727989083 L 640.835142260703 1923.7477727989083" stroke-miterlimit="10" stroke-width="1.2565541" stroke-dasharray=""/><g transform="translate(628.420387752703,1923.7477727989083) translate(-628.420387752703,-1923.7477727989083)"><path fill="black" stroke="none" paint-order="stroke fill markers" d=" M 640.9859287527031 1917.4650022989083 L 628.420387752703 1923.7477727989083 L 640.9859287527031 1930.0305432989082 Z"/></g></g><g><text fill="black" stroke="none" font-family="sans-serif" font-size="11pt" font-style="normal" font-weight="normal" text-decoration="normal" x="132.92811722342185" y="1959.9365308789083" text-anchor="start" dominant-baseline="alphabetic" xml:space="preserve">activate QR scanner for scan next ticket</text></g><g><path fill="none" stroke="black" paint-order="fill stroke markers" d=" M 457.0415128759453 1965.9679905589082 L 80.268675908 1965.9679905589082" stroke-miterlimit="10" stroke-width="1.2565541" stroke-dasharray=""/><g transform="translate(67.8539214,1965.9679905589082) translate(-67.8539214,-1965.9679905589082)"><path fill="black" stroke="none" paint-order="stroke fill markers" d=" M 80.4194624 1959.6852200589083 L 67.8539214 1965.9679905589082 L 80.4194624 1972.2507610589082 Z"/></g></g><g><g/><path fill="none" stroke="black" paint-order="fill stroke markers" d=" M 15.078649200000001 1484.9590810789086 L 2274.757673707344 1484.9590810789086 L 2274.757673707344 1988.5859643589083 L 15.078649200000001 1988.5859643589083 L 15.078649200000001 1484.9590810789086 Z" stroke-miterlimit="10" stroke-width="2.154092742857143" stroke-dasharray=""/><path fill="white" stroke="black" paint-order="fill stroke markers" d=" M 15.078649200000001 1484.9590810789086 L 15.078649200000001 1503.0534601189086 L 58.91163729726563 1503.0534601189086 L 67.95882681726563 1494.0062705989087 L 67.95882681726563 1484.9590810789086 L 15.078649200000001 1484.9590810789086" stroke-miterlimit="10" stroke-width="2.154092742857143" stroke-dasharray=""/><text fill="black" stroke="none" font-family="sans-serif" font-size="8.8pt" font-style="normal" font-weight="bold" text-decoration="normal" x="30.157298400000002" y="1497.0220004389087" text-anchor="start" dominant-baseline="alphabetic" xml:space="preserve">alt</text><g><rect fill="white" stroke="none" x="80.77567863726563" y="1486.1653730149087" width="116.56125345140624" height="15.681795168000004"/></g><text fill="black" stroke="none" font-family="sans-serif" font-size="8.8pt" font-style="normal" font-weight="bold" text-decoration="normal" x="83.03747601726563" y="1497.0220004389087" text-anchor="start" dominant-baseline="alphabetic" xml:space="preserve">[case result is false]</text><g><path fill="none" stroke="black" paint-order="fill stroke markers" d=" M 15.078649200000001 1567.8916516789086 L 2274.757673707344 1567.8916516789086" stroke-miterlimit="10" stroke-width="2.154092742857143" stroke-dasharray="3.7696623000000002"/></g><g/><g><rect fill="white" stroke="none" x="80.77567863726563" y="1569.0979436149087" width="136.1134842863672" height="15.681795168000004"/></g><text fill="black" stroke="none" font-family="sans-serif" font-size="8.8pt" font-style="normal" font-weight="bold" text-decoration="normal" x="83.03747601726563" y="1579.9545710389086" text-anchor="start" dominant-baseline="alphabetic" xml:space="preserve">[case result is success]</text></g><g/></g><g/><g/><g/><g/><g/><g/><g/><g/><g/><g/><g/><g/><g/></g></svg>