<svg width="24" height="24" viewBox="0 0 24 24" fill="none" xmlns="http://www.w3.org/2000/svg">
<g id="Logo/Variant3" clip-path="url(#clip0_5_31)">
<path id="Vector" fill-rule="evenodd" clip-rule="evenodd" d="M11.5491 2.38468C5.8061 2.38468 1.15053 6.95565 1.15053 12.5943C1.15053 18.2329 5.8061 22.8038 11.5491 22.8038C11.8646 22.8038 12.1204 23.055 12.1204 23.3648C12.1204 23.6746 11.8646 23.9258 11.5491 23.9258C5.17497 23.9258 0.00778198 18.8525 0.00778198 12.5943C0.00778198 6.336 5.17497 1.2627 11.5491 1.2627C12.8924 1.2627 14.1834 1.48827 15.384 1.90344C15.6816 2.00637 15.838 2.3267 15.7332 2.61893C15.6282 2.91117 15.302 3.06462 15.0044 2.96171C13.9241 2.58813 12.7614 2.38468 11.5491 2.38468ZM11.5474 5.97714C7.82395 5.97714 4.80551 8.94073 4.80551 12.5965C4.80551 16.2523 7.82395 19.2159 11.5474 19.2159C11.8629 19.2159 12.1188 19.467 12.1188 19.7769C12.1188 20.0867 11.8629 20.3378 11.5474 20.3378C7.19282 20.3378 3.66276 16.872 3.66276 12.5965C3.66276 8.32108 7.19282 4.85515 11.5474 4.85515C12.9774 4.85515 14.3202 5.22948 15.4778 5.88414C15.7511 6.03879 15.8451 6.38181 15.6876 6.65027C15.5301 6.91874 15.1808 7.01101 14.9073 6.85636C13.9187 6.29718 12.772 5.97714 11.5474 5.97714ZM15.7695 12.8335C15.7785 12.0538 15.3876 11.2618 14.5978 10.8141L12.0499 9.36984C10.4874 8.4841 8.5342 9.59128 8.5342 11.3627V14.2513C8.5342 16.0228 10.4874 17.13 12.0499 16.2443C12.3231 16.0893 12.4168 15.7462 12.2591 15.4779C12.1012 15.2096 11.7518 15.1177 11.4785 15.2725C10.6778 15.7264 9.67694 15.1591 9.67694 14.2513V11.3627C9.67694 10.455 10.6778 9.88762 11.4785 10.3415L14.0264 11.7858C14.4317 12.0155 14.6315 12.415 14.6268 12.8208C14.6232 13.1306 14.8762 13.3846 15.1917 13.3881C15.5072 13.3916 15.766 13.1433 15.7695 12.8335Z" fill="#5210E2"/>
<path id="Vector_2" fill-rule="evenodd" clip-rule="evenodd" d="M15.2055 0.0878906C15.5211 0.0878906 15.7769 0.339054 15.7769 0.648882V12.8075V12.8083C15.7758 13.5784 15.3846 14.3561 14.6049 14.798L12.0572 16.2423C10.4946 17.1281 8.54141 16.0209 8.54141 14.2494C8.54141 13.9396 8.79722 13.6884 9.11278 13.6884C9.42834 13.6884 9.68416 13.9396 9.68416 14.2494C9.68416 15.1572 10.685 15.7246 11.4857 15.2706L14.0336 13.8264C14.4338 13.5994 14.6335 13.2074 14.6342 12.8071V12.8068V0.648882C14.6342 0.339056 14.8899 0.0878906 15.2055 0.0878906ZM18.8622 0.678508C19.1778 0.678508 19.4336 0.929673 19.4336 1.2395V12.5956C19.4336 16.8711 15.9035 20.3369 11.549 20.3369C7.19442 20.3369 3.66435 16.8711 3.66435 12.5956C3.66435 12.2858 3.92016 12.0346 4.23573 12.0346C4.55128 12.0346 4.8071 12.2858 4.8071 12.5956C4.8071 16.2514 7.82554 19.215 11.549 19.215C15.2724 19.215 18.2909 16.2514 18.2909 12.5956V1.2395C18.2909 0.929673 18.5467 0.678508 18.8622 0.678508ZM23.0903 1.82505C23.0903 1.51522 22.8345 1.26406 22.5189 1.26406C22.2034 1.26406 21.9476 1.51522 21.9476 1.82505V12.5956C21.9476 18.2342 17.292 22.8051 11.5491 22.8051C5.8061 22.8051 1.15053 18.2342 1.15053 12.5956C1.15053 12.2858 0.894716 12.0346 0.579156 12.0346C0.263595 12.0346 0.00778198 12.2858 0.00778198 12.5956C0.00778198 18.8539 5.17498 23.9271 11.5491 23.9271C17.9231 23.9271 23.0903 18.8539 23.0903 12.5956V1.82505Z" fill="#5210E2"/>
</g>
<defs>
<clipPath id="clip0_5_31">
<rect width="23.2" height="24" fill="white"/>
</clipPath>
</defs>
</svg>
